<svg width="86" height="91" viewBox="0 0 86 91" fill="none" xmlns="http://www.w3.org/2000/svg">
<mask id="mask0_110_316" style="mask-type:luminance" maskUnits="userSpaceOnUse" x="14" y="12" width="92" height="92">
<path d="M104.667 64.8493C108.411 39.9475 91.4484 16.6968 66.7807 12.9174C42.113 9.13798 19.0808 26.2611 15.337 51.1629C11.5931 76.0648 28.5553 99.3155 53.223 103.095C77.8907 106.874 100.923 89.7512 104.667 64.8493Z" fill="white"/>
</mask>
<g mask="url(#mask0_110_316)">
<path d="M120 0H0V116H120V0Z" fill="#0057FF"/>
<path d="M59.9999 66.6995L10.1715 97.2056L3.7749 86.5622L48.1124 59.4243L3.7749 32.2864L10.1715 21.6526L59.9999 52.149L109.828 21.6526L116.215 32.2864L71.8874 59.4243L116.215 86.5622L109.828 97.2056L59.9999 66.6995Z" fill="white"/>
<path d="M51.449 107.56V68.3164H12.45V51.0424H51.449V9.07495H68.551V51.0424H107.55V68.3164H68.551V107.56H51.449Z" fill="white"/>
</g>
</svg>
