<svg width="47" height="47" viewBox="0 0 47 47" fill="none" xmlns="http://www.w3.org/2000/svg">
<path d="M43.7586 7.69824H3.24136C1.67496 7.69824 0.405151 8.96806 0.405151 10.5344V36.4655C0.405151 38.0319 1.67496 39.3017 3.24136 39.3017H43.7586C45.325 39.3017 46.5948 38.0319 46.5948 36.4655V10.5344C46.5948 8.96806 45.325 7.69824 43.7586 7.69824Z" fill="white"/>
<path fill-rule="evenodd" clip-rule="evenodd" d="M17.2189 32.3255V33.5222V34.719H16.6944V34.4284C16.528 34.644 16.2756 34.7792 15.9325 34.7792C15.256 34.7792 14.7257 34.2536 14.7257 33.5222C14.7257 32.7914 15.256 32.2653 15.9325 32.2653C16.2756 32.2653 16.528 32.4005 16.6944 32.6161V32.3255H17.2189ZM15.9977 32.7559C15.5437 32.7559 15.2658 33.1016 15.2658 33.5222C15.2658 33.9429 15.5437 34.2885 15.9977 34.2885C16.4316 34.2885 16.7244 33.9578 16.7244 33.5222C16.7244 33.0866 16.4316 32.7559 15.9977 32.7559ZM34.9443 33.5222C34.9443 33.1016 35.2222 32.7559 35.6762 32.7559C36.1106 32.7559 36.4029 33.0866 36.4029 33.5222C36.4029 33.9578 36.1106 34.2885 35.6762 34.2885C35.2222 34.2885 34.9443 33.9429 34.9443 33.5222ZM36.898 31.3643V33.5222V34.719H36.3729V34.4284C36.2065 34.644 35.9541 34.7792 35.611 34.7792C34.9345 34.7792 34.4042 34.2536 34.4042 33.5222C34.4042 32.7914 34.9345 32.2653 35.611 32.2653C35.9541 32.2653 36.2065 32.4005 36.3729 32.6161V31.3643H36.898ZM23.7299 32.7313C24.0679 32.7313 24.285 32.9416 24.3405 33.3119H23.0887C23.1447 32.9663 23.3561 32.7313 23.7299 32.7313ZM22.5387 33.5222C22.5387 32.776 23.0332 32.2653 23.7403 32.2653C24.4162 32.2653 24.8806 32.776 24.8858 33.5222C24.8858 33.5921 24.8806 33.6575 24.8754 33.7223H23.0841C23.1598 34.1533 23.4676 34.3086 23.8055 34.3086C24.0476 34.3086 24.3053 34.2181 24.5075 34.0582L24.7645 34.4439C24.4717 34.6892 24.1389 34.7792 23.7756 34.7792C23.0535 34.7792 22.5387 34.2834 22.5387 33.5222ZM30.074 33.5222C30.074 33.1016 30.3518 32.7559 30.8059 32.7559C31.2397 32.7559 31.5326 33.0866 31.5326 33.5222C31.5326 33.9578 31.2397 34.2885 30.8059 34.2885C30.3518 34.2885 30.074 33.9429 30.074 33.5222ZM32.0271 32.3255V33.5222V34.719H31.5025V34.4284C31.3356 34.644 31.0837 34.7792 30.7406 34.7792C30.0641 34.7792 29.5338 34.2536 29.5338 33.5222C29.5338 32.7914 30.0641 32.2653 30.7406 32.2653C31.0837 32.2653 31.3356 32.4005 31.5025 32.6161V32.3255H32.0271ZM27.1116 33.5222C27.1116 34.2484 27.6211 34.7792 28.3987 34.7792C28.762 34.7792 29.0041 34.699 29.2664 34.4937L29.0144 34.0731C28.8175 34.2135 28.6107 34.2885 28.3831 34.2885C27.9642 34.2834 27.6564 33.9831 27.6564 33.5222C27.6564 33.0614 27.9642 32.7611 28.3831 32.7559C28.6107 32.7559 28.8175 32.831 29.0144 32.9714L29.2664 32.5507C29.0041 32.3455 28.762 32.2653 28.3987 32.2653C27.6211 32.2653 27.1116 32.7961 27.1116 33.5222ZM33.2384 32.6161C33.3748 32.4057 33.5717 32.2653 33.8745 32.2653C33.9807 32.2653 34.1321 32.2854 34.2482 32.3306L34.0865 32.8213C33.9755 32.776 33.8646 32.7611 33.7584 32.7611C33.4152 32.7611 33.2436 32.9811 33.2436 33.3772V34.719H32.7185V32.3255H33.2384V32.6161ZM19.8133 32.5158C19.5608 32.3507 19.2131 32.2653 18.8295 32.2653C18.2183 32.2653 17.8249 32.5559 17.8249 33.0316C17.8249 33.422 18.1178 33.6626 18.6573 33.7378L18.9052 33.7727C19.1928 33.8129 19.3286 33.8879 19.3286 34.0232C19.3286 34.2083 19.1368 34.3138 18.7787 34.3138C18.4153 34.3138 18.1531 34.1986 17.9763 34.0633L17.729 34.4685C18.0167 34.6789 18.38 34.7792 18.7735 34.7792C19.4701 34.7792 19.8739 34.4536 19.8739 33.998C19.8739 33.5772 19.5562 33.3571 19.0311 33.2821L18.7838 33.2465C18.5569 33.2167 18.3749 33.1721 18.3749 33.0115C18.3749 32.8362 18.5464 32.7313 18.8341 32.7313C19.142 32.7313 19.4401 32.8465 19.5862 32.9365L19.8133 32.5158ZM25.9459 32.6161C26.0816 32.4057 26.2786 32.2653 26.5813 32.2653C26.6876 32.2653 26.839 32.2854 26.955 32.3306L26.7933 32.8213C26.6824 32.776 26.5715 32.7611 26.4652 32.7611C26.1221 32.7611 25.9505 32.9811 25.9505 33.3772V34.719H25.426V32.3255H25.9459V32.6161ZM22.1049 32.3255H21.247V31.5993H20.7168V32.3255H20.2275V32.8012H20.7168V33.8931C20.7168 34.4485 20.9339 34.7792 21.5544 34.7792C21.782 34.7792 22.0443 34.7093 22.2106 34.5941L22.0593 34.1481C21.9027 34.2381 21.7311 34.2834 21.5948 34.2834C21.3325 34.2834 21.247 34.1229 21.247 33.8827V32.8012H22.1049V32.3255ZM14.2618 33.2167V34.719H13.7315V33.387C13.7315 32.9811 13.56 32.7559 13.2018 32.7559C12.8534 32.7559 12.6114 32.9766 12.6114 33.3921V34.719H12.0811V33.387C12.0811 32.9811 11.9049 32.7559 11.5565 32.7559C11.1978 32.7559 10.9656 32.9766 10.9656 33.3921V34.719H10.4359V32.3255H10.961V32.6206C11.158 32.3404 11.4099 32.2653 11.6675 32.2653C12.036 32.2653 12.2983 32.4258 12.4647 32.6911C12.6871 32.3553 13.0048 32.2601 13.3127 32.2653C13.8984 32.2705 14.2618 32.651 14.2618 33.2167Z" fill="#231F20"/>
<path d="M27.5894 28.2576H19.6394V14.082H27.5894V28.2576Z" fill="#FF5F00"/>
<path d="M20.1438 21.1706C20.1438 18.295 21.5007 15.7335 23.6139 14.0828C22.0686 12.8757 20.1184 12.1553 17.9989 12.1553C12.9813 12.1553 8.91382 16.1915 8.91382 21.1706C8.91382 26.1497 12.9813 30.1859 17.9989 30.1859C20.1184 30.1859 22.0686 29.4655 23.6139 28.2584C21.5007 26.6077 20.1438 24.0462 20.1438 21.1706Z" fill="#EB001B"/>
<path d="M38.3146 21.1706C38.3146 26.1497 34.2472 30.1859 29.2295 30.1859C27.11 30.1859 25.1598 29.4655 23.6139 28.2584C25.7276 26.6077 27.0846 24.0462 27.0846 21.1706C27.0846 18.295 25.7276 15.7335 23.6139 14.0828C25.1598 12.8757 27.11 12.1553 29.2295 12.1553C34.2472 12.1553 38.3146 16.1915 38.3146 21.1706Z" fill="#F79E1B"/>
</svg>
