<svg width="156" height="401" viewBox="0 0 156 401" fill="none" xmlns="http://www.w3.org/2000/svg">
<g clip-path="url(#clip0_47_47)">
<path d="M0 407.195C0 407.195 51.5417 238.495 50.9141 194.716C50.2864 150.938 48.0448 137.882 50.4882 118.673C52.9315 99.4647 61.3225 73.6347 62.3611 45.9555C63.3923 18.2763 57.3998 2.8261 61.6214 0.432501C65.8356 -1.96109 73.599 5.57015 76.5355 24.2715C79.472 42.9729 85.2777 89.8083 85.2777 89.8083C107.933 57.7371 119.611 11.4013 126.523 9.34324C134.436 6.98692 130.371 42.0408 119.858 69.5112C109.345 96.9816 106.095 107.771 106.095 107.771C106.095 107.771 122.809 97.1904 129.729 98.0778C136.648 98.9651 143.096 111.552 143.096 111.552C143.096 111.552 160.453 143.862 131.552 173.621C137.776 207.437 113.933 237.48 113.933 237.48C113.933 237.48 102.762 380.164 104.421 417.015L0 407.195Z" fill="#FF5A2A"/>
<path d="M70.6699 112.581C92.3985 129.672 100.289 128.203 105.049 127.494C109.808 126.786 121.293 107.861 128.219 106.832C135.146 105.803 152.025 109.181 154.939 113.901C157.853 118.621 148.819 126.294 135.661 127.069C133.704 134.72 131.724 145.174 129.198 150.99C131.335 167.306 132.545 197.155 110.653 221.463L70.6625 112.581H70.6699Z" fill="#FF5A2A"/>
<path d="M70.6699 112.581C92.3984 129.672 100.289 128.203 105.048 127.494C109.808 126.786 121.293 107.861 128.219 106.832C135.146 105.803 152.025 109.181 154.939 113.901C157.853 118.621 148.819 126.294 135.661 127.069C133.704 134.72 131.723 145.174 129.198 150.99C131.335 167.306 132.545 197.155 110.652 221.463" stroke="#4B4B4B" stroke-width="1.34" stroke-linecap="round" stroke-linejoin="round"/>
<path d="M70.401 96.5715C75.5641 98.9129 80.7273 101.254 85.8904 103.596C92.0548 106.392 98.4359 109.352 102.785 114.527" stroke="#4B4B4B" stroke-width="1.34" stroke-linecap="round" stroke-linejoin="round"/>
<path d="M69.2876 66.7C72.9414 67.0131 76.5279 68.1242 79.7185 69.9287" stroke="#4B4B4B" stroke-width="1.34" stroke-linecap="round" stroke-linejoin="round"/>
<path d="M67.5765 31.4597C70.1394 31.4895 72.6948 32.2278 74.8767 33.57" stroke="#4B4B4B" stroke-width="1.34" stroke-linecap="round" stroke-linejoin="round"/>
<path d="M101.708 76.6995C105.519 77.9298 108.949 80.301 111.437 83.4254" stroke="#4B4B4B" stroke-width="1.34" stroke-linecap="round" stroke-linejoin="round"/>
<path d="M117.168 36.1201C119.529 37.9843 121.621 40.1915 123.347 42.6522" stroke="#4B4B4B" stroke-width="1.34" stroke-linecap="round" stroke-linejoin="round"/>
<path d="M141.474 109.591C142.692 111.023 143.91 112.447 145.121 113.878C145.651 114.497 146.189 115.131 146.892 115.549C148.64 116.6 150.867 116.1 152.839 115.564" stroke="#4B4B4B" stroke-width="1.34" stroke-linecap="round" stroke-linejoin="round"/>
<path d="M139.905 139.082C141.975 141.826 143.425 145.025 144.119 148.388" stroke="#4B4B4B" stroke-width="1.34" stroke-linecap="round" stroke-linejoin="round"/>
<path d="M108.321 119.605C109.188 120.59 110.055 121.574 110.929 122.551" stroke="#4B4B4B" stroke-width="1.34" stroke-linecap="round" stroke-linejoin="round"/>
</g>
<defs>
<clipPath id="clip0_47_47">
<rect width="156" height="417" fill="white"/>
</clipPath>
</defs>
</svg>
