<svg width="426" height="143" viewBox="0 0 426 143" fill="none" xmlns="http://www.w3.org/2000/svg">
<g clip-path="url(#clip0_47_66)">
<path d="M252.328 110.42C254.225 110.002 255.983 109.649 257.806 109.315C259.611 108.962 261.416 108.646 263.211 108.348C266.811 107.707 270.42 107.206 274.03 106.667C281.248 105.691 288.476 104.828 295.713 104.196C310.188 102.914 324.69 102.143 339.192 102.143C353.684 102.133 368.177 102.551 382.596 103.833L388 104.279L390.703 104.502L393.396 104.818L404.168 106.082C407.759 106.444 411.331 107.057 414.904 107.605L425.611 109.259C425.861 109.296 426.037 109.538 426 109.788C425.963 110.03 425.741 110.206 425.491 110.179H425.472L414.728 109.036C411.146 108.664 407.574 108.218 403.974 108.033L393.202 107.289L390.508 107.104L387.815 107.011L382.42 106.825C368.048 106.24 353.666 106.5 339.33 107.196C324.995 107.875 310.706 109.315 296.518 111.265C289.42 112.222 282.368 113.411 275.335 114.703C271.836 115.399 268.32 116.059 264.858 116.849C263.118 117.22 261.379 117.61 259.666 118.038C257.954 118.437 256.196 118.883 254.586 119.32L254.502 119.338C252.059 119.998 249.551 118.549 248.894 116.096C248.237 113.644 249.681 111.126 252.124 110.467C252.189 110.448 252.272 110.429 252.337 110.411L252.328 110.42Z" fill="#D9AF57"/>
<path d="M207.23 55.4514C209.201 55.2749 210.987 55.1448 212.847 55.0426C214.689 54.9219 216.521 54.8383 218.354 54.7732C222.019 54.5967 225.674 54.5596 229.33 54.4853C236.632 54.4388 243.924 54.5038 251.199 54.8011C265.747 55.3678 280.258 56.4547 294.658 58.322C309.059 60.1614 323.394 62.4282 337.544 65.5403L342.856 66.6736L345.513 67.2403L348.15 67.8906L358.682 70.5197C362.199 71.3372 365.669 72.4055 369.14 73.3996L379.551 76.4095C379.801 76.4838 379.94 76.7347 379.866 76.9855C379.801 77.2177 379.56 77.3664 379.32 77.3106H379.301L368.751 74.951C365.234 74.1706 361.736 73.3345 358.182 72.7307L347.567 70.7705L344.911 70.2874L342.246 69.888L336.915 69.0983C322.709 66.8873 308.392 65.5217 294.094 64.5834C279.786 63.6265 265.441 63.4408 251.152 63.7659C244.008 63.9145 236.872 64.2954 229.765 64.7785C226.22 65.0758 222.667 65.3266 219.14 65.7168C217.373 65.8933 215.614 66.0791 213.865 66.3021C212.125 66.5064 210.33 66.748 208.72 66.9988L208.618 67.0174C205.453 67.5005 202.501 65.3173 202.01 62.1402C201.529 58.963 203.704 55.9995 206.869 55.5071C206.98 55.4886 207.109 55.4793 207.221 55.4607L207.23 55.4514Z" fill="#AE423E"/>
<path d="M197.374 99.0028C199.326 98.5847 201.168 98.2224 203.056 97.8787C204.935 97.5257 206.804 97.2005 208.683 96.8939C212.431 96.2436 216.188 95.7327 219.946 95.1846C227.46 94.1906 234.984 93.308 242.527 92.6484C257.603 91.32 272.716 90.5025 287.828 90.4653C302.932 90.4096 318.035 90.7812 333.074 92.0167L338.71 92.4441L341.533 92.6577L344.346 92.9643L355.591 94.1906C359.339 94.5436 363.068 95.1381 366.798 95.677L377.978 97.3027C378.228 97.3399 378.403 97.5721 378.366 97.8322C378.329 98.083 378.107 98.2503 377.857 98.2317H377.839L366.622 97.0519C362.883 96.671 359.154 96.2158 355.406 96.0114L344.171 95.231L341.366 95.036L338.553 94.9338L332.926 94.7294C317.934 94.0977 302.913 94.3113 287.949 94.9616C272.975 95.5933 258.047 96.9868 243.212 98.8913C235.79 99.8296 228.404 101 221.056 102.264C217.391 102.951 213.717 103.592 210.08 104.382C208.257 104.753 206.434 105.134 204.629 105.552C202.825 105.952 200.992 106.388 199.28 106.825L199.206 106.843C197.05 107.392 194.866 106.091 194.32 103.926C193.773 101.762 195.069 99.5694 197.225 99.0213C197.272 99.012 197.337 98.9935 197.374 98.9842V99.0028Z" fill="#BF9B53"/>
<path d="M47.5225 124.02C47.5225 124.02 48.4017 120.462 44.2464 120.314C44.2464 120.314 35.9542 118.391 28.3469 137.296C28.3469 137.296 30.1608 142.442 38.9898 142.498C38.9898 142.498 40.8962 127.931 47.5225 124.02Z" fill="#504B42"/>
<g style="mix-blend-mode:multiply">
<path d="M38.9898 142.508C38.9898 142.508 40.8962 127.941 47.5225 124.03C47.5225 124.03 48.4017 120.472 44.2464 120.323C44.2464 120.323 39.3322 119.19 33.5943 127.291C34.8899 128.275 36.7131 128.796 37.3054 130.654C37.6663 131.787 37.1018 133.292 35.9265 133.496C36.5188 133.97 36.2504 135.02 35.6026 135.429C34.964 135.837 34.1403 135.791 33.3907 135.698C33.5388 136.302 33.6868 136.961 33.4555 137.537C32.9928 138.736 31.2344 139.024 30.7346 140.185C32.3357 141.374 34.8992 142.489 38.9712 142.517L38.9898 142.508Z" fill="#A6A7AA"/>
</g>
<path d="M38.1383 142.982C29.7999 142.61 27.9675 137.686 27.8935 137.473L27.8287 137.296L27.8935 137.12C35.5655 118.029 44.0058 119.747 44.3574 119.84C44.3945 119.84 44.4222 119.84 44.4592 119.84C45.7919 119.896 46.8284 120.361 47.4577 121.197C48.4017 122.46 48.0223 124.077 48.0038 124.151L47.9575 124.355L47.7817 124.457C41.433 128.211 39.508 142.433 39.4895 142.573L39.434 143.009H38.999C38.7121 143.009 38.4252 143 38.1476 142.982H38.1383ZM28.8837 137.305C29.2631 138.141 31.3362 141.802 38.564 142.006C38.9435 139.507 41.0443 127.514 47.0783 123.724C47.1338 123.343 47.1801 122.46 46.6711 121.791C46.2176 121.187 45.3477 120.872 44.2371 120.816C44.0706 120.779 36.1856 119.302 28.893 137.305H28.8837Z" fill="#2F2B25"/>
<path d="M250.819 109.733L255.474 106.193C255.474 106.193 260.148 112.362 258.445 120.268L253.484 119.589C253.484 119.589 253.281 113.282 250.81 109.733H250.819Z" fill="#504B42"/>
<g style="mix-blend-mode:multiply">
<path d="M253.836 112.78C253.929 112.928 254.058 113.096 254.234 113.068C254.428 113.04 254.502 112.817 254.539 112.622C254.706 111.674 254.715 110.699 254.567 109.751C254.965 109.723 255.159 110.225 255.234 110.615C255.446 111.869 255.668 113.124 255.881 114.378C255.937 114.675 255.992 114.982 256.159 115.232C256.326 115.483 256.649 115.65 256.936 115.548C257.205 115.455 257.344 115.158 257.418 114.889C257.492 114.619 257.547 114.322 257.732 114.108C257.917 113.895 258.306 113.83 258.463 114.062C258.528 114.155 258.537 114.275 258.547 114.387C258.713 116.356 258.685 118.335 258.473 120.295C257.427 120.026 256.363 119.868 255.289 119.822C254.327 116.152 253.225 112.492 252.392 108.794C252.624 110.207 253.086 111.554 253.845 112.771L253.836 112.78Z" fill="#504B42"/>
</g>
<path d="M202.954 53.4914L206.878 50.147C206.878 50.147 214.504 60.7747 209.34 70.975L204.731 68.4667C204.731 68.4667 207.804 62.9113 202.954 53.4914Z" fill="#504B42"/>
<g style="mix-blend-mode:multiply">
<path d="M207.878 59.883C207.979 60.1988 208.09 60.5333 208.359 60.7377C208.775 60.0409 208.72 59.1584 208.544 58.3594C208.368 57.5605 208.09 56.7801 208.109 55.9626C209.053 56.6408 209.303 57.9228 209.377 59.0933C209.451 60.3568 209.405 61.6295 209.229 62.8836C209.164 63.3853 209.071 63.8962 209.145 64.3979C209.219 64.8995 209.488 65.4105 209.951 65.6149C210.228 65.7356 210.58 65.7728 210.728 66.0422C210.811 66.1908 210.793 66.3674 210.774 66.5346C210.635 67.7701 210.293 68.9871 209.756 70.1112C209.645 70.3435 209.497 70.5943 209.247 70.65C209.09 70.6872 208.923 70.6314 208.775 70.5757C208.118 70.3342 207.452 70.0833 206.804 69.8232C206.536 69.7117 206.239 69.5817 206.119 69.3216C206.036 69.1451 206.045 68.9314 206.064 68.7363C206.202 66.8783 206.517 65.0203 206.388 63.153C206.202 60.4868 205.12 57.9878 204.324 55.4424C204.176 54.9686 204.037 54.4762 204.028 53.9746C204.028 53.4636 204.222 51.9587 204.879 51.8658C205.619 51.7636 205.823 53.4543 205.99 53.9467C206.628 55.9255 207.267 57.9042 207.896 59.883H207.878Z" fill="#504B42"/>
</g>
<path d="M166.833 5.38828C170.294 3.98549 173.996 2.91715 177.707 3.2423C179.059 3.36307 180.734 4.07839 180.65 5.44401C180.595 6.34514 179.753 6.96756 179.068 7.56212C176.838 9.49443 175.644 12.3557 174.755 15.1799C173.311 19.7505 172.451 24.5163 172.21 29.3006C172.182 29.8858 172.108 30.5733 171.618 30.8892C171.34 31.0657 170.998 31.0935 170.665 31.1028C165.038 31.3536 159.402 31.5952 153.775 31.846C150.999 31.9668 148.222 32.0876 145.446 32.2083C144.104 32.2641 138.866 33.286 137.977 32.1619C136.617 30.4339 143.206 23.0484 144.474 21.5621C147.334 18.2177 150.564 15.1892 154.099 12.5601C157.921 9.7081 162.298 6.94898 166.824 5.37898L166.833 5.38828Z" fill="#AE423E"/>
<g style="mix-blend-mode:multiply">
<path d="M151.831 20.7908C158.134 23.4106 165.26 23.0855 172.007 22.0078C172.229 21.9707 172.479 21.9428 172.664 22.0729C172.904 22.2494 172.895 22.6024 172.867 22.8997C172.59 25.603 172.303 28.3064 172.025 31.0191C166.296 29.8671 160.392 30.7682 154.552 31.0748C152.961 31.1584 151.378 31.1956 149.786 31.2327C145.649 31.3349 141.957 31.177 137.829 31.2792C137.811 30.7218 138.403 29.5048 140.06 27.043C141.124 25.473 142.401 23.9308 143.632 22.5652C144.668 21.4226 146.066 19.4717 147.473 18.7563C148.777 18.0875 150.527 20.2427 151.831 20.7908Z" fill="#D0D2D3"/>
</g>
<path d="M194.088 100.369L197.438 97.8232C197.438 97.8232 200.788 102.255 199.576 107.931L196.013 107.448C196.013 107.448 195.865 102.914 194.097 100.369H194.088Z" fill="#504B42"/>
<g style="mix-blend-mode:multiply">
<path d="M198.549 100.21C198.873 100.285 199.049 100.638 199.16 100.963C199.835 102.914 200.067 105.013 199.817 107.066C199.78 107.336 199.715 107.642 199.484 107.782C199.336 107.865 199.15 107.856 198.975 107.847C198.225 107.782 197.494 107.614 196.781 107.373C196.522 107.28 196.263 107.168 196.106 106.946C195.939 106.704 195.939 106.388 195.921 106.091C195.865 105.245 195.55 104.437 195.328 103.62C195.125 102.867 194.708 101.065 195.671 100.647C196.013 100.498 196.494 100.703 196.846 100.684C197.401 100.666 198.021 100.099 198.54 100.21H198.549Z" fill="#504B42"/>
</g>
<path d="M138.412 104.466C138.412 104.466 179.984 97.5074 187.379 96.662C187.379 96.662 193.977 94.451 196.189 102.059C198.401 109.668 197.66 112.102 190.794 113.152C183.927 114.201 150.554 117.481 144.474 117.927C138.385 118.382 135.432 117.425 134.174 113.17C132.915 108.925 134.988 105.023 138.412 104.456V104.466Z" fill="#E9DBBF"/>
<g style="mix-blend-mode:multiply">
<path d="M134.174 113.179C135.432 117.425 138.385 118.382 144.474 117.936C150.564 117.481 183.927 114.21 190.794 113.161C197.179 112.185 198.262 110.002 196.605 103.583C195.504 104.038 194.421 104.54 193.302 104.948C189.026 106.518 184.334 106.481 179.79 106.138C175.329 105.803 170.887 105.19 166.5 104.307C162.882 103.583 159.3 102.672 155.774 101.585C146.279 103.146 138.412 104.465 138.412 104.465C134.988 105.041 132.915 108.934 134.174 113.179Z" fill="#BBBDBF"/>
</g>
<path d="M184.269 114.285L183.427 113.764C184.759 111.609 183.612 107.81 183.603 107.772L184.547 107.484C184.602 107.661 185.833 111.758 184.269 114.294V114.285Z" fill="#877B60"/>
<path d="M149.333 117.815L148.491 117.304C148.491 117.304 149.87 114.935 149.203 111.841L149.092 111.312L190.016 106.416L190.136 106.815C190.192 107.011 191.562 111.646 189.128 113.811L188.471 113.068C190.072 111.646 189.544 108.599 189.285 107.503L150.258 112.176C150.758 115.39 149.388 117.713 149.324 117.815H149.333Z" fill="#877B60"/>
<path d="M173.062 105.469C173.062 105.469 173.108 115.047 183.066 119.181C183.066 119.181 186.536 115.325 190.359 116.18C190.359 116.18 182.427 112.826 179.919 103.258L173.052 105.469H173.062Z" fill="#504B42"/>
<g style="mix-blend-mode:multiply" opacity="0.6">
<path d="M178.929 110.346C180.456 109.863 182.122 110.151 183.612 110.708C183.482 110.262 183.168 109.891 182.881 109.519C181.576 107.81 180.789 105.775 179.993 103.778C179.956 103.676 179.91 103.574 179.817 103.518C179.697 103.444 179.54 103.481 179.401 103.527C178.772 103.731 178.142 103.936 177.513 104.15L175.153 104.921C174.616 105.097 174.08 105.274 173.571 105.506C173.46 105.552 173.348 105.608 173.274 105.701C173.2 105.794 173.173 105.915 173.154 106.026C173.099 106.388 173.117 106.769 173.21 107.122C173.321 107.54 173.534 107.921 173.691 108.321C173.959 109.017 174.033 109.779 174.228 110.504C174.515 111.6 175.125 113.031 176.051 113.727C176.31 112.111 177.319 110.838 178.92 110.337L178.929 110.346Z" fill="#504B42"/>
</g>
<path d="M183.047 119.673C182.992 119.673 182.936 119.654 182.881 119.636C172.728 115.428 172.571 105.571 172.571 105.469C172.571 105.255 172.71 105.06 172.914 104.995L179.781 102.784C179.91 102.747 180.049 102.756 180.169 102.821C180.29 102.886 180.373 102.998 180.41 103.128C182.825 112.334 190.488 115.688 190.562 115.716C190.794 115.818 190.914 116.078 190.84 116.319C190.766 116.561 190.516 116.7 190.266 116.654C186.777 115.873 183.473 119.469 183.445 119.506C183.344 119.617 183.205 119.673 183.057 119.673H183.047ZM173.571 105.831C173.682 107.568 174.663 114.991 182.946 118.595C183.649 117.899 185.741 116.013 188.313 115.632C185.815 114.053 181.474 110.467 179.577 103.889L173.561 105.831H173.571Z" fill="#272425"/>
<path d="M185.889 115.26C185.889 115.26 234.596 107.104 243.267 106.119C243.267 106.119 251.004 103.527 253.595 112.445C256.187 121.364 255.317 124.216 247.275 125.442C239.232 126.677 200.131 130.514 192.996 131.044C185.861 131.573 182.4 130.449 180.928 125.47C179.457 120.49 181.881 115.929 185.898 115.251L185.889 115.26Z" fill="#E9DBBF"/>
<g style="mix-blend-mode:multiply">
<path d="M180.919 125.479C182.39 130.459 185.861 131.583 192.987 131.053C200.122 130.524 239.214 126.687 247.265 125.451C253.707 124.467 255.539 122.432 254.688 117.09C254.678 117.109 254.669 117.127 254.651 117.155C250.134 125.479 198.281 126.594 189.331 127.003C180.521 127.411 181.206 119.255 181.234 119.013C180.41 120.825 180.215 123.11 180.919 125.488V125.479Z" fill="#BBBDBF"/>
</g>
<path d="M198.604 130.858L197.762 130.347C197.762 130.347 199.391 127.542 198.604 123.891L198.493 123.361L246.284 117.639L246.405 118.038C246.469 118.27 248.061 123.649 245.257 126.139L244.6 125.396C246.553 123.668 245.859 119.943 245.572 118.716L199.678 124.207C200.298 127.978 198.688 130.728 198.614 130.849L198.604 130.858Z" fill="#877B60"/>
<path d="M202.316 60.9604C202.316 60.9604 198.049 28.1112 162.576 30.4523C127.103 32.7933 108.279 29.8856 101.246 25.7887C101.246 25.7887 91.3988 -2.42481 57.7212 0.157794C24.0529 2.74969 -2.46167 40.0116 0.185159 77.2271C2.82273 114.452 37.0001 131.74 80.2007 125.321C123.401 118.892 168.231 110.067 180.095 105.357C191.96 100.647 207.054 86.3963 202.325 60.9697L202.316 60.9604Z" fill="#E9DBBF"/>
<g style="mix-blend-mode:multiply">
<path d="M104.392 34.5402C105.234 32.738 106.937 31.4374 108.807 30.7871C110.676 30.1368 112.712 30.081 114.683 30.304C115.479 30.3876 116.294 30.5177 117.071 30.304C116.22 30.1368 115.387 29.8488 114.554 29.6166C111.046 28.6504 107.326 28.5947 103.865 27.4427C103.458 27.3034 102.264 26.6159 101.838 27.0061C101.394 27.4148 102.254 28.5761 102.458 29.0592C103.235 30.8335 103.883 32.6637 104.402 34.5309L104.392 34.5402Z" fill="#D0D2D3"/>
</g>
<path d="M140.643 31.2885C135.645 31.3164 131.138 31.2049 127.103 30.9727C129.824 34.7444 134.766 42.6315 138.477 54.4669C142.595 67.6029 145.844 87.9943 140.828 114.907C144.983 114.09 148.935 113.272 152.637 112.483C159.143 72.1828 148.546 45.0376 140.643 31.2885Z" fill="#4674B8"/>
<path d="M161.225 30.5454C156.57 30.8427 152.202 31.0378 148.12 31.1585C150.665 34.5494 156.07 42.7059 160.059 55.4239C163.881 67.603 166.954 86.0156 163.381 110.077C168.027 108.98 171.988 107.949 175.135 107.011C179.799 68.5691 168.786 43.0032 161.225 30.5454Z" fill="#4674B8"/>
<g style="mix-blend-mode:multiply">
<path d="M203.148 72.4708C202.501 68.0581 106.863 73.3812 106.863 73.3812C106.863 73.3812 108.807 87.9572 126.437 88.1058C137.061 88.1987 161.891 86.7495 179.938 85.5882C161.003 101.771 138.209 103.518 120.542 103.899C101.921 104.307 97.7011 93.4196 97.7011 93.4196L3.37793 92.3977C13.1601 119.023 43.395 130.784 80.2006 125.303C123.401 118.874 168.231 110.049 180.095 105.339C187.675 102.329 196.568 95.4077 200.77 84.1762H200.789C200.789 84.1762 203.815 76.8743 203.158 72.4615L203.148 72.4708Z" fill="#D0D2D3"/>
</g>
<path d="M42.1919 115.576C42.0253 115.363 38.1939 110.188 37.9717 104.809L38.9527 104.772C39.1563 109.844 42.9415 114.926 42.9785 114.982L42.1919 115.576Z" fill="#F8EEDE"/>
<path d="M42.8212 115.604C42.6546 115.39 38.8232 110.225 38.6011 104.837L39.5821 104.791C39.7857 109.863 43.5708 114.944 43.6078 115L42.8212 115.595V115.604Z" fill="#877B60"/>
<path d="M74.7959 106.054C116.46 105.413 98.5988 46.6355 93.1571 29.9229C87.7154 13.2103 72.982 18.6449 54.1396 17.3071C41.5903 16.4153 35.4267 11.919 32.6966 9.01123C11.9755 22.6767 -1.7584 49.952 0.185078 77.2272C0.731101 84.8729 2.61905 91.6638 5.6268 97.5908C50.2619 110.197 74.8052 106.054 74.8052 106.054H74.7959Z" fill="#CAEEFE"/>
<path d="M47.939 16.4989C46.0696 16.1366 44.3945 15.6814 42.8952 15.1704C19.842 51.7263 23.1459 86.3778 26.7089 102.682C29.911 103.323 32.9743 103.871 35.8802 104.326C24.1454 61.9917 39.6469 29.7556 47.9483 16.4989H47.939Z" fill="white"/>
<path d="M78.0998 17.7902C73.1394 17.2143 67.3089 17.5951 60.8492 17.5487C55.6481 31.6787 46.3657 65.3826 56.4903 106.528C68.4935 107.113 74.7959 106.054 74.7959 106.054C75.9065 106.035 76.9708 105.97 77.998 105.868C73.7224 87.9943 66.4483 47.8989 78.0998 17.7809V17.7902Z" fill="white"/>
<path d="M36.8334 12.3556C34.9733 11.1944 33.6313 10.0145 32.6966 9.02051C31.1233 10.061 29.5871 11.1851 28.0971 12.3742C18.9257 25.25 3.58155 54.9035 13.7339 99.7553C15.372 100.164 16.9638 100.545 18.537 100.917C16.0938 88.338 9.3657 41.7118 36.8334 12.3556Z" fill="white"/>
<g style="mix-blend-mode:multiply">
<path d="M74.7959 106.054C116.46 105.413 98.5989 46.6354 93.1571 29.9228C91.6579 25.3243 89.4553 22.4166 86.6604 20.5679C87.8912 25.2221 88.6224 29.9972 89.0388 34.8093C89.7237 42.6779 89.6866 50.7509 87.3637 58.3036C81.922 76.0381 64.44 88.05 46.3009 91.6359C31.8267 94.4972 16.9637 92.8622 2.46173 89.6943C3.31316 92.472 4.35893 95.1103 5.61756 97.5815C50.2527 110.188 74.7959 106.045 74.7959 106.045V106.054Z" fill="#CAEEFE"/>
</g>
<path d="M129.01 116.923L128.056 116.654C133.489 97.4888 126.381 80.7298 126.307 80.5626L127.214 80.1631C127.288 80.3303 134.544 97.4052 129.01 116.923Z" fill="#948971"/>
<path d="M128.14 117.146L127.186 116.877C132.619 97.7115 125.511 80.9524 125.437 80.7852L126.344 80.3857C126.418 80.553 133.674 97.6279 128.14 117.146Z" fill="#F8EEDE"/>
<path d="M179.521 95.0359C179.281 95.0266 179.077 94.8315 179.049 94.5807L178.309 85.458C178.291 85.1886 178.485 84.947 178.763 84.9285C179.031 84.9099 179.272 85.105 179.29 85.3837L180.03 94.5064C180.049 94.7758 179.855 95.0173 179.577 95.0359C179.558 95.0359 179.54 95.0359 179.512 95.0359H179.521Z" fill="#272425"/>
<path d="M183.047 94.739C182.807 94.7298 182.603 94.5347 182.575 94.2838L181.835 85.1611C181.817 84.8917 182.011 84.6502 182.289 84.6316C182.557 84.613 182.798 84.8081 182.816 85.0868L183.556 94.2095C183.575 94.4789 183.381 94.7205 183.103 94.739C183.084 94.739 183.066 94.739 183.038 94.739H183.047Z" fill="#272425"/>
<path d="M186.583 94.451C186.342 94.4417 186.138 94.2466 186.111 93.9958L185.37 84.873C185.352 84.6036 185.546 84.3621 185.824 84.3435C186.092 84.3249 186.333 84.52 186.351 84.7987L187.092 93.9214C187.11 94.1908 186.916 94.4324 186.638 94.451C186.62 94.451 186.601 94.451 186.573 94.451H186.583Z" fill="#272425"/>
<path d="M190.109 94.1629C189.868 94.1536 189.664 93.9585 189.637 93.7077L188.896 84.5849C188.878 84.3155 189.072 84.074 189.35 84.0554C189.609 84.0368 189.859 84.2319 189.877 84.5106L190.618 93.6333C190.636 93.9028 190.442 94.1443 190.164 94.1629C190.146 94.1629 190.127 94.1629 190.099 94.1629H190.109Z" fill="#272425"/>
<path d="M116.979 49.2459C117.562 49.1902 171.933 42.8358 190.766 45.3534C190.766 45.3534 203.852 45.6228 206.471 60.3288C209.09 75.0348 197.068 77.8682 189.192 78.2955C181.326 78.7229 135.645 80.7574 124.641 80.3207C113.638 79.8841 106.188 78.2955 105.049 66.8968C103.911 55.498 110.593 49.8962 116.969 49.2552L116.979 49.2459Z" fill="#596777"/>
<g style="mix-blend-mode:multiply">
<path d="M124.651 80.3117C135.654 80.7483 181.326 78.7139 189.202 78.2865C196.596 77.887 207.646 75.3602 206.795 62.8745C162.271 76.7537 120.986 67.5752 120.986 67.5752C110.519 68.5692 106.447 65.197 104.975 63.209C104.911 64.3609 104.929 65.5872 105.059 66.8878C106.197 78.2865 113.656 79.8751 124.651 80.3117Z" fill="#BBBDBF"/>
</g>
<path d="M120.94 64.7508C121.504 70.845 119.126 76.0381 115.627 76.3633C112.129 76.6884 108.844 72.0156 108.279 65.9214C107.715 59.8272 110.093 54.6341 113.591 54.309C117.09 53.9838 120.375 58.6566 120.94 64.7508Z" fill="#504B42"/>
<g style="mix-blend-mode:multiply">
<path d="M114.147 57.1329C113.203 59.8362 112.888 62.7626 113.23 65.6053C113.425 67.2496 113.897 68.9683 115.128 70.0738C115.526 70.4361 116.007 70.724 116.284 71.1978C116.368 71.3372 116.423 71.5323 116.321 71.6623C116.266 71.7274 116.183 71.7645 116.099 71.7831C115.359 71.9875 114.554 71.7645 113.915 71.3465C113.277 70.9191 112.786 70.306 112.351 69.6836C111.907 69.0426 111.5 68.3644 111.241 67.6305C110.593 65.8097 110.871 63.803 111.157 61.8893C110.186 63.0227 109.982 64.6113 109.871 66.107C109.76 67.5748 109.704 69.0612 109.945 70.5197C110.186 71.9782 110.732 73.4088 111.713 74.5051C112.694 75.6013 114.137 76.3352 115.6 76.2516C115.988 76.233 116.368 76.1494 116.719 75.9914C117.228 75.7592 117.636 75.3504 118.043 74.9603C118.478 74.5236 118.922 74.087 119.255 73.5761C119.514 73.1859 119.699 72.7585 119.875 72.3219C121.458 68.3087 121.356 63.738 120.051 59.6226C119.866 59.0373 119.653 58.4428 119.329 57.9132C118.737 56.9192 117.821 56.1667 116.932 55.4421C116.359 54.9776 115.803 54.2994 115.239 54.9962C114.739 55.6186 114.434 56.3897 114.174 57.1329H114.147Z" fill="#504B42"/>
</g>
<path d="M130.898 80.7483L130.259 79.9865C130.259 79.9865 134.1 76.6514 135.09 69.2288L135.145 68.82L199.067 66.1631L199.039 66.7019C199.021 67.0363 198.595 74.8863 194.116 78.1564L193.533 77.3575C196.994 74.8306 197.827 69.0058 198.003 67.2036L135.997 69.7769C134.877 77.3203 131.046 80.6182 130.879 80.7576L130.898 80.7483Z" fill="#313D4A"/>
<path d="M162.696 68.411L161.817 67.9558C167.527 56.8265 160.957 45.7064 160.883 45.5949L161.725 45.084C161.79 45.1955 168.647 56.7893 162.687 68.411H162.696Z" fill="#313D4A"/>
<path d="M239.538 126.724L238.696 126.204C240.278 123.649 238.927 119.153 238.908 119.106L239.852 118.818C239.917 119.023 241.342 123.788 239.538 126.724Z" fill="#877B60"/>
<path d="M119.727 50.6118C119.727 50.6118 124.345 52.9435 126.696 62.6051C126.696 62.6051 126.511 53.7703 125.197 52.1539L159.605 49.4412C159.605 49.4412 163.622 54.337 162.632 60.0968C162.632 60.0968 164.714 50.491 160.253 47.4067L119.718 50.6025L119.727 50.6118Z" fill="#4C5965"/>
<path d="M167.814 50.3977C169.98 50.7786 172.192 50.5928 174.385 50.4535C178.411 50.1933 182.464 50.1004 186.453 50.6485C190.442 51.1966 194.394 52.4229 197.771 54.6246C198.308 54.9684 198.836 55.3492 199.447 55.535C200.057 55.7208 200.779 55.6837 201.251 55.2564C201.695 54.8662 201.844 54.1973 201.723 53.6213C201.603 53.0361 201.242 52.5251 200.826 52.1071C199.761 51.048 198.299 50.4999 196.874 50.0633C187.527 47.202 177.559 47.6107 167.823 46.7189C167.259 46.6632 166.5 46.5981 166.01 46.979C165.787 47.1462 165.63 47.3878 165.482 47.62C164.381 49.4037 166.25 50.119 167.814 50.3977Z" fill="#7B8B99"/>
<path d="M89.7607 121.745C89.7607 121.745 89.844 118.075 93.8882 119.023C93.8882 119.023 102.403 119.338 104.799 139.59C104.799 139.59 101.708 144.087 93.1756 141.82C93.1756 141.82 95.1376 127.263 89.7607 121.745Z" fill="#504B42"/>
<g style="mix-blend-mode:multiply">
<path d="M89.7607 121.745C95.1377 127.263 93.1757 141.82 93.1757 141.82C101.708 144.087 104.799 139.591 104.799 139.591C104.799 139.516 104.781 139.451 104.772 139.377C104.707 139.284 104.651 139.191 104.577 139.108C103.347 139.526 102.005 139.609 100.727 139.331C99.6632 139.098 98.4878 138.337 98.5989 137.259C97.7937 137.166 97.2662 136.274 97.294 135.457C97.3217 134.639 97.7475 133.896 98.1547 133.19C97.3865 133.153 96.6647 132.595 96.4333 131.862C96.2019 131.128 96.4703 130.254 97.0719 129.781C96.2945 129.632 95.7762 128.833 95.6929 128.043C95.6096 127.254 95.8688 126.473 96.1186 125.721C95.3783 125.962 94.5083 125.721 93.9901 125.145C93.4718 124.56 93.333 123.668 93.6477 122.952C92.3983 122.581 91.6764 121.401 91.5284 120.156C91.4913 119.859 91.4636 119.478 91.408 119.106C89.7977 119.785 89.7515 121.745 89.7515 121.745H89.7607Z" fill="#A6A7AA"/>
</g>
<path d="M97.0626 142.944C95.878 142.888 94.5454 142.693 93.0461 142.303L92.6204 142.192L92.6759 141.755C92.6944 141.616 94.5454 127.374 89.3998 122.088L89.2517 121.939V121.735C89.2517 121.661 89.3072 119.998 90.5474 119.032C91.3895 118.372 92.5464 118.205 93.9901 118.549C94.2585 118.549 102.856 119.134 105.281 139.544L105.299 139.73L105.188 139.888C105.077 140.055 102.819 143.213 97.0441 142.953L97.0626 142.944ZM93.7217 141.448C100.672 143.148 103.698 140.138 104.29 139.451C101.94 120.072 93.9716 119.524 93.8698 119.524C92.6482 119.245 91.769 119.348 91.1674 119.812C90.5103 120.323 90.3252 121.187 90.2697 121.568C95.1006 126.817 94.0086 138.949 93.7217 141.458V141.448Z" fill="#2F2B25"/>
<g style="mix-blend-mode:soft-light" opacity="0.6">
<path d="M136.774 33.5273C148.75 33.8524 160.725 34.1869 172.71 34.512C177.347 34.6421 182.557 35.0323 185.574 38.5717C185.824 38.869 186.074 39.2406 185.981 39.6122C185.861 40.1603 185.167 40.3275 184.602 40.3461C182.372 40.439 180.16 40.0117 177.957 39.6494C161.419 36.8624 144.502 36.9088 127.816 38.4788C123.734 38.8597 119.644 39.3428 115.544 39.2035C113.601 39.1384 110.982 38.6553 110.704 36.2771C110.51 34.5771 111.842 34.0197 113.277 33.7874C118.052 33.0164 123.161 33.2672 127.982 33.3136C130.916 33.3508 133.85 33.4251 136.783 33.5087L136.774 33.5273Z" fill="white"/>
</g>
<g style="mix-blend-mode:soft-light" opacity="0.6">
<path d="M44.0058 6.49358C42.9508 7.08814 41.831 7.97997 41.8495 9.18766C41.8495 9.39204 41.8957 9.60571 42.0346 9.75435C42.2011 9.93086 42.451 9.9866 42.6916 10.0238C45.4125 10.4325 48.1889 10.2003 50.9283 9.94944C58.5263 9.25269 66.3372 8.43518 73.6484 10.6183C75.5641 11.1943 77.4613 11.9746 79.4603 12.0861C80.5153 12.1512 81.7462 11.9282 82.283 11.0085C82.8567 10.0423 82.3662 8.76962 81.6444 7.91494C80.1266 6.1034 77.7574 5.2766 75.4993 4.57985C72.473 3.65086 69.2895 2.58252 66.1059 2.49891C62.3577 2.39672 58.6374 2.87979 54.9355 3.0563C51.2707 3.23281 47.1801 4.70062 44.0058 6.49358Z" fill="white"/>
</g>
<path d="M101.135 122.079C99.1542 113.904 94.0178 111.219 93.1201 110.81C44.3575 123.045 14.1133 109.863 13.8172 109.723L14.2151 108.822C14.2892 108.859 21.8132 112.176 35.2324 113.95C47.6151 115.585 67.6977 116.198 93.0368 109.807L93.1849 109.77L93.333 109.826C93.5921 109.928 99.802 112.417 102.088 121.847L101.125 122.079H101.135Z" fill="#877B60"/>
<path d="M14.0948 108.562C17.1766 109.816 20.4157 110.727 23.6548 111.516L26.098 112.083L28.5598 112.557C30.1978 112.9 31.8544 113.123 33.5017 113.365C40.1188 114.303 46.8007 114.656 53.4732 114.628C56.8142 114.508 60.1458 114.48 63.4775 114.155C65.1433 114.006 66.8092 113.932 68.4658 113.718L73.4355 113.077C74.2591 112.965 75.0921 112.882 75.9157 112.742L78.3775 112.306L83.3102 111.423C86.5771 110.754 89.8162 109.946 93.0738 109.212L93.2404 109.175L93.3792 109.231C94.6101 109.825 95.5911 110.606 96.5165 111.488C97.4328 112.371 98.2286 113.365 98.9135 114.424C99.5706 115.502 100.163 116.616 100.607 117.787C100.857 118.363 101.014 118.967 101.218 119.561C101.384 120.165 101.523 120.769 101.671 121.373H101.616C101.422 120.797 101.255 120.202 101.051 119.617C100.811 119.05 100.626 118.456 100.339 117.908C99.8297 116.784 99.1911 115.725 98.4878 114.731C97.7567 113.755 96.933 112.845 96.0075 112.064C95.1006 111.293 94.0548 110.587 93.0183 110.169L93.3144 110.188C90.0383 110.894 86.7714 111.674 83.4768 112.315L78.5163 113.151L76.036 113.569C75.2124 113.699 74.3702 113.774 73.5373 113.885L68.5398 114.48C66.874 114.684 65.1989 114.74 63.5238 114.87C60.1829 115.176 56.8234 115.167 53.4732 115.26C46.7729 115.223 40.0633 114.805 33.4277 113.802C31.7711 113.541 30.1146 113.3 28.4765 112.938L26.0148 112.445L23.5715 111.851C20.3231 111.033 17.1025 110.095 13.993 108.794L14.0948 108.571V108.562Z" fill="#F8EEDE"/>
<path d="M92.0651 125.015L91.2969 124.392C91.4543 124.197 95.1006 119.747 98.7377 121.373L98.3397 122.274C95.3875 120.955 92.1021 124.968 92.0651 125.015Z" fill="#2F2B25"/>
<path d="M93.2034 128.74L92.4816 128.062C92.6667 127.857 97.1089 123.129 101.329 125.21L100.894 126.101C97.331 124.336 93.2497 128.693 93.2127 128.74H93.2034Z" fill="#2F2B25"/>
<path d="M93.6661 132.419L93.0646 131.629C93.333 131.425 99.6169 126.668 102.902 128.926L102.347 129.743C100.107 128.192 95.3135 131.146 93.6661 132.419Z" fill="#2F2B25"/>
<path d="M93.7587 135.819L93.2867 134.946C93.5643 134.797 100.024 131.304 103.855 132.66L103.532 133.599C100.098 132.391 93.8234 135.791 93.7587 135.819Z" fill="#2F2B25"/>
<path d="M93.6847 139.173L93.2034 138.309C93.4718 138.16 99.9038 134.593 104.605 136.423L104.253 137.343C99.9778 135.689 93.7495 139.136 93.6939 139.173H93.6847Z" fill="#2F2B25"/>
<g style="mix-blend-mode:soft-light" opacity="0.6">
<path d="M238.473 108.711C241.241 108.061 244.1 107.308 246.895 107.819C249.69 108.339 252.411 110.578 252.411 113.439C252.411 113.783 252.365 114.146 252.133 114.396C251.902 114.647 251.532 114.721 251.189 114.759C248.931 115.019 246.692 114.378 244.452 113.978C241.611 113.477 238.714 113.384 235.827 113.384C223.916 113.393 212.005 115.037 200.539 118.252C197.67 119.06 194.792 119.961 191.821 120.091C190.507 120.147 189.193 120.054 187.906 119.803C187.268 119.682 186.592 119.497 186.166 118.995C184.824 117.397 187.453 117.09 188.369 116.858C190.127 116.412 191.904 116.013 193.681 115.65C197.272 114.917 200.9 114.341 204.527 113.83C211.774 112.808 219.057 112.065 226.294 110.978C230.385 110.365 234.457 109.64 238.473 108.702V108.711Z" fill="white"/>
</g>
<path d="M43.8022 127.504C43.7189 127.365 41.7292 124.151 36.2134 124.652L36.1208 123.668C42.2937 123.101 44.5518 126.845 44.6444 127.003L43.7929 127.504H43.8022Z" fill="#2F2B25"/>
<path d="M42.414 130.161C42.414 130.161 37.981 126.324 34.0663 127.281L33.835 126.315C38.2402 125.238 42.8675 129.242 43.0618 129.418L42.414 130.161Z" fill="#2F2B25"/>
<path d="M40.9888 133.441C40.9888 133.441 36.5188 129.26 32.1043 130.236L31.8915 129.27C36.8149 128.183 41.47 132.54 41.6644 132.716L40.9888 133.431V133.441Z" fill="#2F2B25"/>
<path d="M39.943 136.748C39.8968 136.701 35.0843 132.094 30.5681 133.088L30.3552 132.122C35.399 131.016 40.415 135.837 40.6279 136.042L39.943 136.757V136.748Z" fill="#2F2B25"/>
<path d="M39.1193 140.278C39.0638 140.222 33.2056 135.048 29.2816 135.8L29.0966 134.825C33.4833 133.979 39.5173 139.312 39.7764 139.535L39.1193 140.278Z" fill="#2F2B25"/>
</g>
<defs>
<clipPath id="clip0_47_66">
<rect width="426" height="143" fill="white"/>
</clipPath>
</defs>
</svg>
