<svg width="48" height="48" viewBox="0 0 48 48" fill="none" xmlns="http://www.w3.org/2000/svg">
<path d="M17.8046 30.3189L19.9396 17.79H23.3545L21.2179 30.3189H17.8046Z" fill="#0E4595"/>
<path d="M33.5556 18.0604C32.8792 17.8066 31.819 17.5342 30.495 17.5342C27.1206 17.5342 24.7438 19.2334 24.7235 21.6688C24.7045 23.4691 26.4204 24.4734 27.7158 25.0727C29.045 25.6869 29.4919 26.0785 29.4855 26.6268C29.477 27.4667 28.424 27.8502 27.4424 27.8502C26.0756 27.8502 25.3495 27.6603 24.228 27.1927L23.7878 26.9935L23.3086 29.7982C24.1062 30.148 25.5811 30.4509 27.1126 30.4667C30.7024 30.4667 33.0328 28.7868 33.0593 26.1861C33.072 24.7608 32.1622 23.6763 30.192 22.7821C28.9984 22.2025 28.2674 21.8157 28.2751 21.2288C28.2751 20.7081 28.8939 20.1512 30.2309 20.1512C31.3475 20.1339 32.1565 20.3774 32.7868 20.6312L33.0928 20.7758L33.5556 18.0604Z" fill="#0E4595"/>
<path d="M42.3433 17.79H39.7046C38.8871 17.79 38.2753 18.0131 37.9163 18.829L32.8447 30.3107H36.4307C36.4307 30.3107 37.017 28.767 37.1496 28.428C37.5414 28.428 41.0251 28.4334 41.5231 28.4334C41.6252 28.872 41.9386 30.3107 41.9386 30.3107H45.1073L42.3433 17.79ZM38.1566 25.8802C38.4391 25.1583 39.5172 22.3778 39.5172 22.3778C39.4971 22.4112 39.7976 21.6524 39.97 21.182L40.2008 22.2622C40.2008 22.2622 40.8547 25.2529 40.9914 25.88H38.1566V25.8802Z" fill="#0E4595"/>
<path d="M2.9362 17.79L2.89258 18.0507C4.24253 18.3774 5.44823 18.8504 6.50383 19.4388L9.53395 30.2988L13.1471 30.2948L18.5233 17.79H14.9057L11.5625 26.3338L11.2063 24.5974C11.1896 24.5438 11.1715 24.49 11.153 24.4362L9.9907 18.8478C9.78405 18.0544 9.18452 17.8177 8.44283 17.79H2.9362Z" fill="#0E4595"/>
</svg>
