<svg width="149" height="93" viewBox="0 0 149 93" fill="none" xmlns="http://www.w3.org/2000/svg">
<g clip-path="url(#clip0_47_342)">
<path d="M30.0255 36.0088C27.4314 36.0088 25.3233 38.0934 25.3233 40.6737V90.5689C25.3233 92.7825 28.0611 93.8418 29.567 92.2121L43.9885 80.6279C44.8783 79.6704 46.1309 79.1204 47.445 79.1204H77.1985C79.7926 79.1204 81.9007 77.0358 81.9007 74.4555V40.6737C81.9007 38.1002 79.7994 36.0088 77.1985 36.0088H30.0255Z" fill="#0057FF"/>
<path d="M121.69 7.5168C124.284 7.5168 126.392 9.60142 126.392 12.1817V62.0769C126.392 64.2905 123.654 65.3498 122.149 63.7201L107.727 52.1359C106.837 51.1785 105.585 50.6284 104.271 50.6284H74.5171C71.923 50.6284 69.8149 48.537 69.8149 45.9635V12.1749C69.8149 9.60142 71.923 7.51001 74.5171 7.51001H121.697L121.69 7.5168Z" fill="#FF5A2A"/>
<path d="M5.5219 79.4736C-9.02286 59.3811 9.74502 47.3419 9.92298 47.2129L12.1748 50.3161C11.5588 50.7574 -3.10229 61.004 8.64988 77.2396L10.8402 75.6778L10.5801 83.6632L3.40692 80.9743L5.51506 79.4736H5.5219Z" fill="#0057FF"/>
<path d="M141.332 3.47664C158.478 21.4302 141.531 35.88 141.367 36.0361L138.711 33.2589C139.265 32.7361 152.393 20.6222 138.533 6.10448L136.575 7.94465L135.74 0L143.215 1.70437L141.326 3.47664H141.332Z" fill="#0057FF"/>
<path d="M48.5938 69H46.5625L52.4375 53H54.4375L60.3125 69H58.2812L53.5 55.5312H53.375L48.5938 69ZM49.3438 62.75H57.5313V64.4687H49.3438V62.75Z" fill="#F6F2E9"/>
<path d="M84.7571 36.9387V20.9387H90.1633C91.4133 20.9387 92.4394 21.1523 93.2415 21.5793C94.0435 22.0012 94.6373 22.5819 95.0227 23.3215C95.4081 24.0611 95.6008 24.9023 95.6008 25.845C95.6008 26.7877 95.4081 27.6236 95.0227 28.3528C94.6373 29.0819 94.0461 29.6549 93.2493 30.0715C92.4524 30.483 91.4342 30.6887 90.1946 30.6887H85.8196V28.9387H90.1321C90.9862 28.9387 91.6737 28.8137 92.1946 28.5637C92.7206 28.3137 93.1008 27.9596 93.3352 27.5012C93.5748 27.0377 93.6946 26.4856 93.6946 25.845C93.6946 25.2043 93.5748 24.6444 93.3352 24.1653C93.0956 23.6861 92.7128 23.3163 92.1868 23.0559C91.6607 22.7903 90.9654 22.6575 90.1008 22.6575H86.6946V36.9387H84.7571ZM92.2883 29.7512L96.2258 36.9387H93.9758L90.1008 29.7512H92.2883ZM109.329 20.9387H111.267V31.5325C111.267 32.6262 111.009 33.6028 110.493 34.4622C109.983 35.3163 109.262 35.9908 108.329 36.4856C107.397 36.9752 106.303 37.22 105.048 37.22C103.793 37.22 102.699 36.9752 101.767 36.4856C100.835 35.9908 100.111 35.3163 99.595 34.4622C99.0846 33.6028 98.8293 32.6262 98.8293 31.5325V20.9387H100.767V31.3762C100.767 32.1575 100.939 32.8528 101.282 33.4622C101.626 34.0663 102.116 34.5429 102.751 34.8918C103.392 35.2356 104.157 35.4075 105.048 35.4075C105.939 35.4075 106.704 35.2356 107.345 34.8918C107.986 34.5429 108.475 34.0663 108.814 33.4622C109.157 32.8528 109.329 32.1575 109.329 31.3762V20.9387Z" fill="#F6F2E9"/>
</g>
<defs>
<clipPath id="clip0_47_342">
<rect width="149" height="93" fill="white"/>
</clipPath>
</defs>
</svg>
