<svg width="275" height="274" viewBox="0 0 275 274" fill="none" xmlns="http://www.w3.org/2000/svg">
<g clip-path="url(#clip0_34_82)">
<path d="M115.981 148.907C120.095 208.677 187.716 218.371 191.482 193.375C192.737 185.045 184.256 178.444 176.686 182.162C176.091 182.455 175.522 182.803 174.993 183.206C164.467 191.717 171.678 207.928 183.115 211.752C183.411 211.856 183.713 211.958 184.017 212.057C208.434 220.037 233.29 200.815 232.188 175.161C231.554 160.407 230.323 145.004 247.057 127.082" stroke="#F44545" stroke-width="3" stroke-miterlimit="10" stroke-linecap="round"/>
<path d="M59.9332 65.5549C21.5959 84.1419 37.3587 142.622 37.3587 142.622L45.2725 138.214C45.2725 138.214 32.8203 70.74 78.8136 65.7678C78.8136 65.7678 65.7463 62.7359 59.9332 65.5549Z" fill="#0057FF"/>
<path d="M109.334 114.264C109.334 114.264 107.57 56.9801 59.9332 65.5549C59.9332 65.5549 109.898 40.9335 120.67 116.94L109.334 114.264Z" fill="#0946BC"/>
<path d="M126.504 122.627C126.349 116.608 125.244 110.625 121.49 110.343C113.844 109.769 109.318 112.49 109.318 112.49C105.398 114.652 102.722 118.984 101.97 123.472C99.7004 137.015 107.147 145.286 110.307 147.996C110.667 148.324 111.054 148.625 111.469 148.891C111.488 148.904 111.509 148.915 111.528 148.927C112.312 149.45 113.161 149.875 114.047 150.193C120.831 152.808 127.438 149.421 127.438 149.421L126.921 144.928C130.226 138.62 129.068 128.864 126.502 122.631L126.504 122.627Z" fill="#0057FF"/>
<path d="M118.174 110.652C112.934 112.128 109.288 117.272 108.39 122.636C106.017 136.808 114.283 145.209 117.142 147.504C120.002 149.798 123.998 150.695 127.439 149.416C138.135 145.447 136.26 127.814 132.006 119.82C129.243 114.629 124.774 108.788 118.175 110.647L118.174 110.652Z" fill="#0946BC"/>
<path d="M121.283 118.947C121.283 118.947 121.418 118.905 121.654 118.862C122.956 118.623 125.471 120.026 127.989 124.894C131.063 130.843 130.487 138.965 125.528 139.996C122.073 140.713 121.672 124.907 121.672 124.907" fill="#0057FF"/>
<path d="M126.284 139.596C126.058 139.759 125.81 139.891 125.525 139.998C124.655 140.321 123.415 140.037 122.506 139.305C121.377 138.399 115.823 133.415 117.359 124.255C117.68 122.333 118.724 120.523 120.086 119.537C121.196 118.732 122.249 118.65 123.203 119.433C123.889 119.996 124.984 121.185 126.294 123.652C128.853 128.462 129.326 137.391 126.286 139.599L126.284 139.596Z" fill="white"/>
<path d="M55.4199 134.407C55.4199 134.407 43.6688 130.384 38.6691 138.098C33.6694 145.813 34.3655 163.297 39.5508 168.846C44.7361 174.395 54.739 172.864 59.0067 170.471C63.2727 168.075 55.4199 134.407 55.4199 134.407Z" fill="#0057FF"/>
<path d="M45.1884 153.394C45.1884 153.394 46.5537 168.988 55.6241 170.565C64.6944 172.142 65.6666 156.252 65.0727 150.687C64.4788 145.121 59.7585 131.032 51.0171 134.868C43.9807 137.955 45.1855 153.395 45.1855 153.395L45.1884 153.394Z" fill="#0946BC"/>
</g>
<defs>
<clipPath id="clip0_34_82">
<rect width="202" height="201" fill="white" transform="translate(0 99.2754) rotate(-29.4367)"/>
</clipPath>
</defs>
</svg>
