<svg width="100" height="100" viewBox="0 0 100 100" fill="none" xmlns="http://www.w3.org/2000/svg">
<mask id="mask0_47_401" style="mask-type:luminance" maskUnits="userSpaceOnUse" x="14" y="-4" width="92" height="92">
<path d="M104.667 48.8493C108.411 23.9475 91.4485 0.696752 66.7807 -3.08264C42.113 -6.86202 19.0809 10.2611 15.337 35.1629C11.5932 60.0648 28.5553 83.3155 53.223 87.0949C77.8908 90.8743 100.923 73.7512 104.667 48.8493Z" fill="white"/>
</mask>
<g mask="url(#mask0_47_401)">
<path d="M120 -16H0V100H120V-16Z" fill="#0057FF"/>
<path d="M60 50.6995L10.1716 81.2056L3.77502 70.5622L48.1125 43.4243L3.77502 16.2864L10.1716 5.65259L60 36.149L109.828 5.65259L116.215 16.2864L71.8875 43.4243L116.215 70.5622L109.828 81.2056L60 50.6995Z" fill="white"/>
<path d="M51.449 91.5604V52.3164H12.45V35.0424H51.449V-6.92505H68.551V35.0424H107.55V52.3164H68.551V91.5604H51.449Z" fill="white"/>
</g>
</svg>
