<svg width="93" height="104" viewBox="0 0 93 104" fill="none" xmlns="http://www.w3.org/2000/svg">
<g clip-path="url(#clip0_47_396)">
<path d="M63.1866 104L50.1355 92.7003C48.839 92.8028 47.6452 92.8514 46.5 92.8514C20.8569 92.8568 0 72.0266 0 46.4284C0 20.8302 20.8569 0 46.5 0C72.1431 0 93 20.8248 93 46.4284C93 65.5758 81.0455 82.9109 63.192 89.7716V104.005L63.1866 104ZM50.7351 90.8665L61.4094 100.106V88.5311L61.9928 88.3207C79.4735 81.8753 91.2228 65.0364 91.2228 46.423C91.2228 21.8011 71.1653 1.7745 46.5054 1.7745C21.8455 1.7745 1.77724 21.8065 1.77724 46.4284C1.77724 71.0503 21.8347 91.0769 46.4946 91.0769C47.6992 91.0769 48.9633 91.0175 50.357 90.8989L50.7297 90.8665H50.7351Z" fill="#FF5A2A"/>
<path d="M27.4659 57V36.6364H29.9318V45.7045H40.7898V36.6364H43.2557V57H40.7898V47.892H29.9318V57H27.4659ZM51.7943 57V41.7273H54.1409V57H51.7943ZM52.9875 39.1818C52.5301 39.1818 52.1357 39.026 51.8042 38.7145C51.4794 38.4029 51.317 38.0284 51.317 37.5909C51.317 37.1534 51.4794 36.7789 51.8042 36.4673C52.1357 36.1558 52.5301 36 52.9875 36C53.4449 36 53.836 36.1558 54.1608 36.4673C54.4922 36.7789 54.6579 37.1534 54.6579 37.5909C54.6579 38.0284 54.4922 38.4029 54.1608 38.7145C53.836 39.026 53.4449 39.1818 52.9875 39.1818ZM65.4611 36.6364L65.2622 51.2727H62.9554L62.7565 36.6364H65.4611ZM64.1088 57.1591C63.6183 57.1591 63.1974 56.9834 62.846 56.6321C62.4947 56.2808 62.319 55.8598 62.319 55.3693C62.319 54.8788 62.4947 54.4579 62.846 54.1065C63.1974 53.7552 63.6183 53.5795 64.1088 53.5795C64.5994 53.5795 65.0203 53.7552 65.3716 54.1065C65.7229 54.4579 65.8986 54.8788 65.8986 55.3693C65.8986 55.6941 65.8157 55.9924 65.65 56.2642C65.4909 56.536 65.2755 56.7547 65.0037 56.9205C64.7386 57.0795 64.4403 57.1591 64.1088 57.1591Z" fill="black"/>
</g>
<defs>
<clipPath id="clip0_47_396">
<rect width="93" height="104" fill="white"/>
</clipPath>
</defs>
</svg>
