<svg width="345" height="312" viewBox="0 0 345 312" fill="none" xmlns="http://www.w3.org/2000/svg">
<g clip-path="url(#clip0_384_643)">
<path d="M44.2946 289.918C56.9037 272.181 48.2214 247.922 41.1346 227.338C32.886 203.366 27.3637 178.447 24.7149 153.226C23.0264 137.179 22.6856 120.14 30.1907 105.862C40.3213 86.6051 64.3003 76.4762 85.6072 80.7884C106.914 85.1005 124.519 102.496 131.079 123.25C138.166 145.664 134.688 173.351 151.921 189.328C168.976 205.134 195.96 199.79 218.336 193.516C240.712 187.242 267.773 182.061 284.665 198.045C297.925 210.594 298.862 232.216 291.744 249.046C284.627 265.868 271.08 278.99 257.79 291.508L44.3024 289.926L44.2946 289.918Z" fill="#D0F1F1"/>
<path d="M10.8589 290.329H328.72" stroke="#211D1D" stroke-width="1.51" stroke-linecap="round" stroke-linejoin="round"/>
<path d="M148.746 66.5646C151.611 78.0274 159.062 88.6448 169.758 93.6239C180.594 98.6651 193.164 97.5172 204.929 99.557C219.413 102.07 232.959 109.694 242.64 120.776C249.425 128.547 254.266 137.823 260.795 145.811C267.324 153.8 276.316 160.725 286.617 161.02C299.459 161.385 310.952 150.527 313.617 137.939C316.281 125.36 311.309 112.005 302.851 102.318C295.075 93.4145 284.518 87.0549 277.803 77.3217C269.082 64.68 268.114 48.2924 261.701 34.3324C252.229 13.7102 229.969 -0.335163 207.291 0.00608378C174.003 0.510198 140.187 32.3392 148.746 66.5646Z" stroke="#211D1D" stroke-width="1.51" stroke-linecap="round" stroke-linejoin="round"/>
<path d="M16.5129 43.7787C15.8468 49.8358 18.2323 55.9162 21.857 60.8178C27.2864 68.1623 35.7828 73.3508 44.8834 74.0333C53.9839 74.7158 63.4795 70.5898 68.5835 63.0126C70.4114 60.2981 71.6661 57.2192 72.4406 54.0316C74.7177 44.6473 72.4406 33.9756 65.5707 27.1972C50.9633 12.7796 18.8132 22.7455 16.5129 43.7787Z" fill="#D0F1F1"/>
<path d="M312.161 99.9603C312.912 104.125 316.336 107.452 320.262 109.019C323.934 110.477 328.186 110.578 331.795 108.972C335.404 107.367 338.254 103.993 338.913 100.092C339.881 94.3996 336.07 88.6915 331.005 85.9305C328.712 84.6818 326.102 83.9063 323.5 84.0691C315.538 84.55 310.79 92.4297 312.153 99.9603H312.161Z" stroke="#211D1D" stroke-width="1.51" stroke-linecap="round" stroke-linejoin="round"/>
<path d="M39.7172 215.604C35.0856 215.371 30.2294 215.526 26.1323 217.706C21.9421 219.939 18.9912 224.19 17.8914 228.812C16.7839 233.434 17.4267 238.382 19.2236 242.78C22.0041 249.597 27.813 255.336 34.954 257.081C44.4573 259.408 55.2385 253.645 58.6154 244.455C63.1696 232.03 52.6826 216.248 39.7172 215.596V215.604Z" stroke="#211D1D" stroke-width="1.21" stroke-linecap="round" stroke-linejoin="round"/>
<path d="M330.393 170.761C330.47 171.126 330.54 171.482 330.61 171.847C330.765 172.599 330.904 173.359 331.036 174.112C331.175 174.949 331.299 175.795 331.4 176.624C331.965 180.983 332.105 185.318 331.849 189.576C331.237 199.907 328.317 209.803 323.5 218.636C315.623 233.085 302.673 244.657 286.47 250.551C283.542 251.621 280.522 252.497 277.393 253.172C272.583 254.211 267.789 254.731 263.057 254.754C257.72 254.785 252.461 254.188 247.38 253.025C244.313 252.335 241.308 251.419 238.38 250.318C237.707 250.062 237.033 249.798 236.367 249.527C223.541 244.214 212.426 235.109 204.736 223.29C200.251 216.403 196.921 208.609 195.085 200.101C188.68 170.49 202.203 141.205 226.654 126.267C230.914 123.654 235.507 121.49 240.386 119.83C241.355 119.497 242.323 119.186 243.314 118.899C244.476 118.558 245.661 118.248 246.854 117.961H246.877C247.28 117.86 247.682 117.767 248.085 117.682C250.711 117.116 253.329 116.705 255.931 116.441C267.347 115.301 278.524 117.038 288.646 121.149C291.109 122.149 293.518 123.281 295.842 124.553C296.849 125.104 297.84 125.678 298.824 126.283C300.574 127.353 302.27 128.501 303.92 129.726C307.049 132.037 309.992 134.628 312.703 137.451C318.194 143.175 322.748 149.891 326.048 157.391C327.907 161.61 329.37 166.069 330.385 170.753L330.393 170.761Z" fill="#FF5A2A"/>
<path d="M286.462 250.558C283.534 251.629 280.514 252.505 277.385 253.18C272.575 254.219 267.781 254.739 263.049 254.762C257.712 254.793 252.453 254.196 247.372 253.032C244.305 252.342 241.3 251.427 238.372 250.326C237.699 250.07 237.025 249.806 236.359 249.535C223.533 244.222 212.418 235.117 204.728 223.297C207.183 216.279 216.152 212.517 223.269 214.976C230.689 217.527 235.453 225.492 235.561 233.349C236.243 230.495 240.386 230.014 242.849 231.604C245.304 233.201 246.699 235.962 248.658 238.142C250.618 240.321 253.909 241.95 256.403 240.43C258.37 239.22 258.905 236.653 260.144 234.714C262.623 230.82 268.648 229.804 272.265 232.674C275.882 235.543 276.285 241.639 273.071 244.959C276.115 241.981 281.606 243.33 284.293 246.642C285.246 247.813 285.935 249.147 286.447 250.558H286.462Z" fill="#211E21"/>
<path d="M312.711 137.459C312.262 137.257 311.82 137.071 311.363 136.9C308.923 135.962 306.801 134.543 304.183 135.295C303.138 133.837 303.889 131.82 303.928 129.99C302.983 129.269 302.054 128.524 301.124 127.788C300.404 127.276 299.676 126.756 298.948 126.252C298.909 126.267 298.863 126.283 298.824 126.298C295.679 127.617 293.782 133.596 290.134 134C289.096 134.116 288.236 132.689 286.974 132.798C285.084 132.953 284.294 134.799 282.528 135.326C278.555 136.536 277.726 133.55 277.571 129.866C277.463 127.439 277.649 124.763 280.065 123.289C281.645 122.32 283.845 122.917 285.564 122.576C286.881 122.312 287.764 121.754 288.639 121.164C278.516 117.054 267.34 115.317 255.923 116.457C256.249 117.643 256.791 118.783 257.589 119.846C260.679 123.995 265.574 125.407 267.541 129.951C268.215 131.502 268.416 133.278 269.315 134.706C270.376 136.412 272.498 137.404 272.227 139.661C271.615 144.796 263.227 143.524 260.075 143.082C256.52 142.577 251.516 142.841 249.216 146.098C248.093 147.688 247.706 150 248.279 151.861C249.17 154.746 249.836 153.606 248.976 156.6C247.683 161.137 246.536 163.735 248.906 168.171C251.284 172.615 253.662 174.693 253.654 180.122C253.646 185.838 256.954 188.491 262.995 188.646C268.695 188.793 271.987 183.581 277.416 183.124C280.112 182.891 282.451 184.473 285.208 184.357C288.771 184.217 289.584 182.371 292.302 180.688C295.284 178.85 301.465 177.439 304.191 180.239C307.041 183.178 302.913 187.8 303.541 191.391C304.021 194.121 306.135 196.572 306.615 199.325C307.134 202.327 305.423 204.793 305.245 207.818C305.097 210.292 308.645 221.7 312.362 219.079C313.261 218.443 314.198 211.595 314.709 210.191C315.654 207.577 316.134 205.716 315.91 202.924C315.67 199.946 314.709 197.495 316.095 194.951C317.513 192.337 319.759 191.197 320.758 188.227C322.044 184.419 323.206 180.882 325.444 177.478C327.032 175.066 327.876 173.041 327.984 170.164C328.124 166.286 326.877 161.703 326.048 157.406C322.749 149.906 318.194 143.19 312.703 137.467L312.711 137.459Z" fill="#211E21"/>
<path d="M289.274 183.24C292.101 179.851 297.104 178.269 299.273 183.279C301.07 187.42 297.848 191.593 300.59 195.626C303.494 199.899 304.586 202.722 303.052 207.802C302.472 209.717 302.425 211.827 303.331 213.688C304.447 215.969 306.236 217.333 306.546 220.017C306.832 222.53 306.484 224.414 308.761 226.175C311.1 227.982 314.004 226.625 315.057 224.127C315.615 222.801 316.289 221.537 316.39 220.11C316.521 218.241 316.165 216.372 316.351 214.479C316.738 210.571 319.767 208.438 320.688 204.925C321.176 203.063 320.959 201.318 320.727 199.441C320.464 197.293 321.192 195.215 322.477 193.477C323.871 191.6 326.311 190.515 327.31 188.359C328.325 186.164 328.255 184.093 328.077 181.751C327.922 179.719 327.821 177.749 328.658 175.849C329.44 174.065 329.487 173.987 329.177 171.994C328.751 169.226 328.821 166.433 328.062 163.673C327.419 161.338 326.443 159.236 325.32 157.104C324.53 155.599 323.655 153.978 322.284 152.939C318.605 150.162 313.021 150.946 308.939 152C303.804 153.327 298.808 156.142 296.043 160.795C295.06 162.455 294.215 164.239 293.681 166.1C293.201 167.767 293.317 169.567 292.813 171.211C291.868 174.298 287.345 175.763 286.997 178.982C286.85 180.339 287.616 180.805 289.274 183.248V183.24Z" fill="#211E21"/>
<path d="M331.849 189.576C331.237 199.907 328.317 209.803 323.5 218.636C322.895 217.659 322.477 216.566 322.384 215.077C322.245 212.851 322.353 210.167 323.492 208.081C324.7 205.863 326.683 204.645 327.542 202.078C328.41 199.472 327.968 196.634 328.898 194.067C329.432 192.585 330.168 190.313 331.702 189.63C331.748 189.607 331.802 189.592 331.857 189.576H331.849Z" fill="#211E21"/>
<path d="M224.083 136.892C229.582 131.999 236.785 127.182 244.275 126.337" stroke="white" stroke-width="2.27" stroke-linecap="round" stroke-linejoin="round"/>
<path d="M216.152 146.688C217.36 144.175 219.103 141.934 220.993 139.902" stroke="white" stroke-width="2.27" stroke-linecap="round" stroke-linejoin="round"/>
<path d="M318.333 152.342C322.02 156.809 324.754 164.154 325.498 169.784" stroke="white" stroke-width="2.27" stroke-linecap="round" stroke-linejoin="round"/>
<path d="M281.683 135.365C279.608 140.476 278.5 148.441 280.692 153.598C283.465 160.144 289.785 163.502 296.252 160.206C302.177 157.189 305.701 153.303 309.481 147.96C311.332 145.331 313.299 142.221 316.451 141.329" stroke="#FF5A2A" stroke-width="1.89" stroke-linecap="round" stroke-linejoin="round"/>
<path d="M250.563 173.832C251.617 164.875 268.098 159.818 275.271 162.711C288.995 168.241 287.965 183.961 283.349 195.711" stroke="#FF5A2A" stroke-width="1.89" stroke-linecap="round" stroke-linejoin="round"/>
<path d="M292.612 197.371C292.612 186.575 298.831 170.009 311.161 167.822C315.762 167.007 319.131 171.18 320.022 175.484C320.835 179.409 319.371 184.093 318.07 187.723C313.756 199.721 305.67 209.942 298.909 220.583" stroke="#FF5A2A" stroke-width="1.89" stroke-linecap="round" stroke-linejoin="round"/>
<path d="M216.129 197.037C214.626 208.849 217.902 220.994 224.757 230.952C227.258 234.59 231.472 238.483 235.786 239.484C243.028 241.166 254.916 239.646 260.175 234.171" stroke="#FF5A2A" stroke-width="1.89" stroke-linecap="round" stroke-linejoin="round"/>
<path d="M279.035 235.172C269.802 234.667 258.494 244.688 259.501 254.405" stroke="#FF5A2A" stroke-width="1.89" stroke-linecap="round" stroke-linejoin="round"/>
<path d="M300.574 258.19C298.39 261.843 298.56 266.744 300.884 270.32C303.207 273.895 307.514 276.02 311.766 275.849C315.212 275.702 318.659 274.027 320.58 271.157C322.663 268.047 322.733 263.805 321.068 260.455C317.125 252.544 305.647 249.713 300.574 258.198V258.19Z" fill="#D0F1F1"/>
<path d="M221.62 296.324C230.295 296.324 237.327 289.283 237.327 280.596C237.327 271.909 230.295 264.868 221.62 264.868C212.945 264.868 205.913 271.909 205.913 280.596C205.913 289.283 212.945 296.324 221.62 296.324Z" fill="#211E21"/>
<path d="M289.776 295.249C291.844 284.446 284.774 274.01 273.986 271.94C263.197 269.869 252.776 276.948 250.708 287.751C248.64 298.554 255.71 308.99 266.498 311.061C277.286 313.131 287.708 306.052 289.776 295.249Z" fill="#211E21"/>
<mask id="mask0_384_643" style="mask-type:luminance" maskUnits="userSpaceOnUse" x="205" y="264" width="33" height="33">
<path d="M221.62 296.324C230.295 296.324 237.327 289.283 237.327 280.596C237.327 271.909 230.295 264.868 221.62 264.868C212.945 264.868 205.913 271.909 205.913 280.596C205.913 289.283 212.945 296.324 221.62 296.324Z" fill="white"/>
</mask>
<g mask="url(#mask0_384_643)">
<path d="M227.553 255.895C228.753 261.525 226.143 268.296 222.208 272.36C219.869 274.772 217.182 276.928 214.425 278.789C207.919 283.186 205.2 288.173 203.047 296.014" stroke="#6FC3D1" stroke-width="0.68" stroke-linecap="round" stroke-linejoin="round"/>
<path d="M209.336 297.17C209.615 291.462 216.252 285.125 221.085 282.915C226.491 280.449 233.067 280.604 238.311 283.404" stroke="#6FC3D1" stroke-width="0.68" stroke-linecap="round" stroke-linejoin="round"/>
</g>
<mask id="mask1_384_643" style="mask-type:luminance" maskUnits="userSpaceOnUse" x="250" y="271" width="41" height="41">
<path d="M289.776 295.249C291.844 284.446 284.774 274.01 273.986 271.94C263.197 269.869 252.776 276.948 250.708 287.751C248.64 298.554 255.71 308.99 266.498 311.061C277.286 313.131 287.708 306.052 289.776 295.249Z" fill="white"/>
</mask>
<g mask="url(#mask1_384_643)">
<path d="M249.572 286.063C255.311 287.211 260.779 292.012 264.071 296.65C268.222 302.513 269.508 311.432 268.121 318.397" stroke="#6FC3D1" stroke-width="0.68" stroke-linecap="round" stroke-linejoin="round"/>
<path d="M254.87 272.305C255.644 273.383 255.892 274.795 256.512 275.989C257.573 278.044 259.006 280.076 260.384 281.914C262.684 284.978 265.767 287.692 269.384 289.104C277.795 292.377 286.028 289.042 291.458 282.256" stroke="#6FC3D1" stroke-width="0.68" stroke-linecap="round" stroke-linejoin="round"/>
</g>
<path d="M343.988 279.067C347.836 266.23 340.564 252.7 327.745 248.846C314.925 244.993 301.414 252.275 297.565 265.111C293.717 277.948 300.989 291.478 313.808 295.332C326.628 299.185 340.139 291.903 343.988 279.067Z" fill="#211E21"/>
<path d="M335.295 260.19C330.672 260.741 334.087 268.621 338.525 266.969C339.795 266.496 340.283 264.72 340.059 263.425C339.679 261.222 337.58 260.423 335.288 260.19H335.295Z" stroke="#6FC3D1" stroke-width="0.63" stroke-linecap="round" stroke-linejoin="round"/>
<mask id="mask2_384_643" style="mask-type:luminance" maskUnits="userSpaceOnUse" x="296" y="247" width="50" height="50">
<path d="M343.988 279.067C347.836 266.23 340.564 252.7 327.745 248.846C314.925 244.993 301.414 252.275 297.565 265.111C293.717 277.948 300.989 291.478 313.808 295.332C326.628 299.185 340.139 291.903 343.988 279.067Z" fill="white"/>
</mask>
<g mask="url(#mask2_384_643)">
<path d="M297.042 283.109C304.005 279.2 313.477 279.758 321.145 280.154C324.994 280.356 329.2 280.999 332.646 282.806C336.635 284.893 339.052 287.871 342.057 291.113" stroke="#6FC3D1" stroke-width="0.63" stroke-linecap="round" stroke-linejoin="round"/>
<path d="M291.667 265.418C294.633 266.496 296.849 268.497 300.148 269.071C304.09 269.761 307.614 269.311 311.262 267.76C315.135 266.116 318.597 263.72 322.136 261.432C326.094 258.872 329.657 255.452 334.715 255.879C338.827 256.22 343.552 259.128 346.363 262.037" stroke="#6FC3D1" stroke-width="0.63" stroke-linecap="round" stroke-linejoin="round"/>
</g>
<mask id="mask3_384_643" style="mask-type:luminance" maskUnits="userSpaceOnUse" x="228" y="12" width="88" height="77">
<path d="M244.058 71.2334C244.569 71.1171 245.065 70.9775 245.56 70.8224C241.843 64.9591 239.682 58.0101 239.682 50.557C239.682 29.6324 256.62 12.6709 277.517 12.6709C298.413 12.6709 315.352 29.6324 315.352 50.557C315.352 71.4816 298.413 88.4509 277.517 88.4509C269.934 88.4509 262.871 86.2095 256.953 82.3627C245.591 84.7282 232.92 78.3531 228.172 67.7124C232.61 71.1249 238.582 72.4511 244.05 71.2412L244.058 71.2334Z" fill="white"/>
</mask>
<g mask="url(#mask3_384_643)">
<path d="M277.525 88.4431C298.42 88.4431 315.36 71.4809 315.36 50.557C315.36 29.6331 298.42 12.6709 277.525 12.6709C256.629 12.6709 239.689 29.6331 239.689 50.557C239.689 71.4809 256.629 88.4431 277.525 88.4431Z" fill="black"/>
<path d="M257.883 82.1456C246.288 85.0694 233.06 78.6323 228.18 67.7046C232.618 71.1171 238.59 72.4433 244.058 71.2334C249.526 70.0236 254.374 66.2931 256.961 61.3218" fill="black"/>
<path d="M246.552 87.0316C247.659 87.0316 248.767 86.5973 249.588 85.7286C271.592 62.4773 313.485 18.2084 314.539 17.1303C316.142 15.4862 316.126 12.8415 314.492 11.2206C312.858 9.59966 310.232 9.59966 308.606 11.2283C307.847 11.9884 254.25 68.6275 243.516 79.974C241.928 81.6492 241.997 84.3016 243.678 85.8915C244.484 86.6593 245.522 87.0393 246.552 87.0393V87.0316Z" fill="#0057FF"/>
<path d="M309.288 87.7917C310.318 87.7917 311.356 87.4117 312.161 86.6439C313.834 85.054 313.904 82.4093 312.324 80.7264C301.589 69.3799 247.992 12.7485 247.233 11.9807C245.599 10.3443 242.958 10.3443 241.324 11.9807C239.697 13.6094 239.69 16.2463 241.308 17.8828C242.447 19.0538 284.278 63.253 306.259 86.481C307.08 87.3497 308.188 87.784 309.295 87.784L309.288 87.7917Z" fill="#0057FF"/>
<path d="M311.549 10.003C312.61 10.003 313.671 10.4063 314.492 11.2129C316.126 12.8261 316.142 15.4707 314.538 17.1227C313.477 18.2085 271.592 62.4697 249.588 85.7287C248.767 86.5973 247.659 87.0316 246.551 87.0316C245.521 87.0316 244.484 86.6516 243.678 85.8838C242.005 84.2939 241.928 81.6493 243.515 79.9663C254.25 68.6198 307.847 11.9885 308.606 11.2207C309.419 10.4063 310.48 9.99527 311.549 9.99527M311.549 6.95508C309.628 6.95508 307.816 7.70737 306.452 9.07236C305.755 9.77036 265.333 52.4804 241.308 77.8723C239.984 79.276 239.279 81.1064 239.333 83.0375C239.387 84.9687 240.185 86.7602 241.587 88.0864C242.934 89.3661 244.693 90.0641 246.551 90.0641C248.526 90.0641 250.432 89.242 251.795 87.8072C277.346 60.8022 315.731 20.2559 316.715 19.2399C319.48 16.4014 319.441 11.8256 316.63 9.04133C315.266 7.69186 313.47 6.95508 311.557 6.95508H311.549Z" fill="white"/>
<path d="M244.275 10.7632C245.344 10.7632 246.412 11.1742 247.226 11.9885C247.985 12.7486 301.581 69.3877 312.316 80.7342C313.904 82.4094 313.834 85.0618 312.153 86.6517C311.348 87.4195 310.31 87.7995 309.28 87.7995C308.172 87.7995 307.065 87.3574 306.244 86.4966C284.263 63.2686 242.431 19.0694 241.293 17.8983C239.682 16.2619 239.682 13.625 241.308 11.9963C242.122 11.182 243.19 10.7709 244.267 10.7709M244.267 7.73071C242.338 7.73071 240.526 8.48301 239.163 9.84799C236.367 12.6478 236.351 17.2236 239.132 20.0388C240.185 21.1169 278.524 61.6321 304.036 88.5906C305.392 90.0254 307.305 90.8475 309.28 90.8475C311.131 90.8475 312.897 90.1417 314.244 88.8698C315.646 87.5436 316.444 85.752 316.498 83.8209C316.552 81.8897 315.848 80.0594 314.523 78.6557C285.169 47.6333 250.029 10.515 249.379 9.85575C248.016 8.49076 246.203 7.73847 244.275 7.73847L244.267 7.73071Z" fill="white"/>
<path d="M235.592 41.5761H267.502V9.62305H287.252V41.5761H319.162V61.3529H287.252V93.306H267.502V61.3529H235.592V41.5761Z" fill="#0057FF"/>
<path d="M235.592 41.5761H267.502V9.62305H287.252V41.5761H319.162V61.3529H287.252V93.306H267.502V61.3529H235.592V41.5761Z" stroke="white" stroke-width="2.94" stroke-linecap="round" stroke-linejoin="round"/>
<path d="M235.592 41.5761H267.502V9.62305H287.252V41.5761H319.162V61.3529H287.252V93.306H267.502V61.3529H235.592V41.5761Z" stroke="white" stroke-width="2.94" stroke-linecap="round" stroke-linejoin="round"/>
</g>
<path d="M24.6373 184.868C38.2441 184.868 49.2746 173.823 49.2746 160.198C49.2746 146.573 38.2441 135.527 24.6373 135.527C11.0305 135.527 0 146.573 0 160.198C0 173.823 11.0305 184.868 24.6373 184.868Z" fill="#211E21"/>
<path d="M73.0216 274.958C69.6292 283.737 67.1353 289.577 67.1353 289.577L172.826 289.988V274.958H73.0216Z" fill="#C0BCFA"/>
<path d="M194.435 23.6763C194.814 28.5623 194.985 33.4638 194.946 38.3731C194.892 46.2916 194.086 54.753 189.137 60.9264C183.15 68.3951 172.717 70.5123 163.152 70.7838C153.587 71.0552 143.719 70.0392 134.696 73.2268C125.673 76.4143 117.758 85.6823 120.182 94.9502C112.824 95.5241 108.014 103.218 106.713 110.492C103.15 130.424 116.418 151.52 109.401 170.505" stroke="white" stroke-width="0.76" stroke-linecap="round" stroke-linejoin="round"/>
<path d="M103.104 95.183C108.758 88.1254 112.925 81.029 112.925 71.2958C112.925 52.4109 97.6357 37.1013 78.7763 37.1013C59.9169 37.1013 44.6279 52.4109 44.6279 71.2958C44.6279 76.5308 45.8052 81.4866 47.8964 85.9228C49.7475 89.8316 52.6132 92.9416 55.3627 96.1835L80.2866 125.624C87.203 116.426 93.4224 106.7 100.858 97.8975C101.625 96.9901 102.368 96.0904 103.096 95.183H103.104Z" fill="#FF5A2A"/>
<path d="M97.6901 73.8994C99.3812 63.5472 92.3713 53.7823 82.0331 52.0889C71.6948 50.3956 61.9431 57.4149 60.252 67.7671C58.5609 78.1193 65.5708 87.8842 75.909 89.5776C86.2473 91.271 95.999 84.2516 97.6901 73.8994Z" stroke="white" stroke-width="0.76" stroke-linecap="round" stroke-linejoin="round"/>
<path d="M31.8638 178.726C32.3827 181.914 34.1563 184.884 36.72 186.838C39.2836 188.793 42.614 189.723 45.8205 189.374C44.3644 189.398 43.3421 187.963 42.7922 186.613C40.9953 182.232 41.3748 177.004 43.7913 172.933C40.4919 175.05 35.5117 177.291 31.8638 178.726Z" fill="#211E21"/>
<path d="M227.05 272.551V295.231H219.404V278.319H215.516V272.551H227.05Z" fill="white"/>
<path d="M284.603 301.787V308.816H263.055V303.247L272.773 294.259C273.618 293.465 274.181 292.787 274.463 292.223C274.744 291.66 274.885 291.109 274.885 290.572C274.885 289.906 274.655 289.394 274.194 289.035C273.759 288.651 273.118 288.459 272.273 288.459C271.454 288.459 270.686 288.677 269.969 289.112C269.252 289.547 268.701 290.162 268.317 290.956L261.48 287.537C262.504 285.617 264.002 284.106 265.974 283.005C267.946 281.878 270.327 281.315 273.118 281.315C275.244 281.315 277.126 281.661 278.765 282.352C280.403 283.043 281.684 284.029 282.606 285.309C283.528 286.59 283.988 288.062 283.988 289.727C283.988 291.212 283.668 292.607 283.028 293.913C282.414 295.194 281.197 296.653 279.379 298.292L275.538 301.787H284.603Z" fill="white"/>
<path d="M329.179 273.741C331.771 274.381 333.755 275.549 335.131 277.245C336.539 278.909 337.243 280.925 337.243 283.293C337.243 285.309 336.683 287.197 335.563 288.957C334.475 290.685 332.779 292.093 330.475 293.181C328.171 294.269 325.307 294.813 321.883 294.813C319.515 294.813 317.147 294.557 314.779 294.045C312.443 293.533 310.395 292.781 308.635 291.789L312.475 283.437C313.851 284.237 315.323 284.845 316.891 285.261C318.491 285.677 320.027 285.885 321.499 285.885C322.811 285.885 323.867 285.661 324.667 285.213C325.467 284.765 325.867 284.125 325.867 283.293C325.867 281.757 324.539 280.989 321.883 280.989H317.419V274.029L322.363 268.989H310.363V260.445H335.419V267.405L329.179 273.741Z" fill="white"/>
</g>
<defs>
<clipPath id="clip0_384_643">
<rect width="345" height="312" fill="white"/>
</clipPath>
</defs>
</svg>
