<svg width="107" height="83" viewBox="0 0 107 83" fill="none" xmlns="http://www.w3.org/2000/svg">
<path d="M98.0511 0H8.94375C4.00766 0 0 4.02064 0 8.97269V52.7029C0 57.6602 4.00766 61.6756 8.94375 61.6756H53.6006C55.1737 61.6756 56.0557 63.4919 55.0912 64.7338L43.29 79.9263C42.047 81.5304 43.847 83.7038 45.6471 82.7723L85.9456 61.8826C86.2138 61.7429 86.5129 61.6705 86.8121 61.6705H98.0563C102.997 61.6705 107 57.6498 107 52.6978V8.97269C107 4.01546 102.992 0 98.0563 0H98.0511Z" fill="#0057FF"/>
<path d="M86.3944 41.4067C86.8947 41.4067 87.3021 40.9979 87.3021 40.496V24.3048C87.3021 23.8028 86.8947 23.394 86.3944 23.394C85.894 23.394 85.4866 23.8028 85.4866 24.3048V40.496C85.4866 40.9979 85.894 41.4067 86.3944 41.4067Z" fill="white"/>
<path d="M81.355 37.9968C81.8554 37.9968 82.2628 37.588 82.2628 37.0861V27.7149C82.2628 27.213 81.8554 26.8042 81.355 26.8042C80.8547 26.8042 80.4473 27.213 80.4473 27.7149V37.0861C80.4473 37.588 80.8547 37.9968 81.355 37.9968Z" fill="white"/>
<path d="M76.321 39.1195C76.8213 39.1195 77.2288 38.7107 77.2288 38.2088V26.5919C77.2288 26.0899 76.8213 25.6812 76.321 25.6812C75.8207 25.6812 75.4132 26.0899 75.4132 26.5919V38.2088C75.4132 38.7107 75.8207 39.1195 76.321 39.1195Z" fill="white"/>
<path d="M71.2818 43.223C71.7821 43.223 72.1896 42.8142 72.1896 42.3123V22.4937C72.1896 21.9918 71.7821 21.583 71.2818 21.583C70.7815 21.583 70.374 21.9918 70.374 22.4937V42.3123C70.374 42.8142 70.7815 43.223 71.2818 43.223Z" fill="white"/>
<path d="M66.2425 39.3784C66.7428 39.3784 67.1503 38.9696 67.1503 38.4677V26.3333C67.1503 25.8314 66.7428 25.4226 66.2425 25.4226C65.7422 25.4226 65.3347 25.8314 65.3347 26.3333V38.4677C65.3347 38.9696 65.7422 39.3784 66.2425 39.3784Z" fill="white"/>
<path d="M61.2084 36.3564C61.7088 36.3564 62.1162 35.9477 62.1162 35.4457V29.3604C62.1162 28.8585 61.7088 28.4497 61.2084 28.4497C60.7081 28.4497 60.3007 28.8585 60.3007 29.3604V35.4457C60.3007 35.9477 60.7081 36.3564 61.2084 36.3564Z" fill="white"/>
<path d="M91.4335 36.3564C91.9339 36.3564 92.3413 35.9477 92.3413 35.4457V29.3604C92.3413 28.8585 91.9339 28.4497 91.4335 28.4497C90.9332 28.4497 90.5258 28.8585 90.5258 29.3604V35.4457C90.5258 35.9477 90.9332 36.3564 91.4335 36.3564Z" fill="white"/>
<path d="M15.8708 36.3564C16.3711 36.3564 16.7786 35.9477 16.7786 35.4457V29.3604C16.7786 28.8585 16.3711 28.4497 15.8708 28.4497C15.3705 28.4497 14.963 28.8585 14.963 29.3604V35.4457C14.963 35.9477 15.3705 36.3564 15.8708 36.3564Z" fill="white"/>
<path d="M56.1693 41.7121C56.6696 41.7121 57.077 41.3033 57.077 40.8013V24.0047C57.077 23.5028 56.6696 23.094 56.1693 23.094C55.6689 23.094 55.2615 23.5028 55.2615 24.0047V40.8013C55.2615 41.3033 55.6689 41.7121 56.1693 41.7121Z" fill="white"/>
<path d="M51.13 40.1544C51.6303 40.1544 52.0377 39.7456 52.0377 39.2437V25.557C52.0377 25.055 51.6303 24.6462 51.13 24.6462C50.6296 24.6462 50.2222 25.055 50.2222 25.557V39.2437C50.2222 39.7456 50.6296 40.1544 51.13 40.1544Z" fill="white"/>
<path d="M46.0959 37.7381C46.5962 37.7381 47.0037 37.3293 47.0037 36.8273V27.9788C47.0037 27.4769 46.5962 27.0681 46.0959 27.0681C45.5956 27.0681 45.1881 27.4769 45.1881 27.9788V36.8273C45.1881 37.3293 45.5956 37.7381 46.0959 37.7381Z" fill="white"/>
<path d="M41.0567 40.672C41.557 40.672 41.9645 40.2632 41.9645 39.7613V25.0396C41.9645 24.5377 41.557 24.1289 41.0567 24.1289C40.5564 24.1289 40.1489 24.5377 40.1489 25.0396V39.7613C40.1489 40.2632 40.5564 40.672 41.0567 40.672Z" fill="white"/>
<path d="M36.0174 43.223C36.5177 43.223 36.9252 42.8142 36.9252 42.3123V22.4937C36.9252 21.9918 36.5177 21.583 36.0174 21.583C35.5171 21.583 35.1096 21.9918 35.1096 22.4937V42.3123C35.1096 42.8142 35.5171 43.223 36.0174 43.223Z" fill="white"/>
<path d="M30.9833 40.9774C31.4837 40.9774 31.8911 40.5686 31.8911 40.0666V24.7396C31.8911 24.2376 31.4837 23.8289 30.9833 23.8289C30.483 23.8289 30.0756 24.2376 30.0756 24.7396V40.0666C30.0756 40.5686 30.483 40.9774 30.9833 40.9774Z" fill="white"/>
<path d="M25.9442 41.8827C26.4445 41.8827 26.8519 41.474 26.8519 40.972V23.8287C26.8519 23.3268 26.4445 22.918 25.9442 22.918C25.4438 22.918 25.0364 23.3268 25.0364 23.8287V40.972C25.0364 41.474 25.4438 41.8827 25.9442 41.8827Z" fill="white"/>
<path d="M20.9049 38.9904C21.4052 38.9904 21.8126 38.5816 21.8126 38.0796V26.7266C21.8126 26.2247 21.4052 25.8159 20.9049 25.8159C20.4045 25.8159 19.9971 26.2247 19.9971 26.7266V38.0796C19.9971 38.5816 20.4045 38.9904 20.9049 38.9904Z" fill="white"/>
</svg>
