<svg width="241" height="337" viewBox="0 0 241 337" fill="none" xmlns="http://www.w3.org/2000/svg">
<g clip-path="url(#clip0_47_296)">
<path d="M132.381 154.39C145.436 139.159 160.493 126.065 177.13 115.46L179.186 114.153C179.316 114.093 179.439 114.027 179.561 113.961C194.023 104.941 209.636 97.7904 225.961 92.7124L226.577 92.5161C226.689 92.4933 226.8 92.4705 226.89 92.4423C228.878 91.8284 231.491 91.0388 234.1 90.3772L244.712 87.6463C245.094 87.7233 245.505 87.72 245.903 87.6398C277.84 81.1129 311.174 82.3434 342.296 91.2262L347.786 92.7969C348.041 92.9758 348.314 93.1179 348.612 93.2156C374.481 101.481 398.06 114.646 418.704 132.341C444.359 154.332 464.236 182.526 476.193 213.889C476.3 214.164 476.447 214.422 476.621 214.65L478.765 220.953C489.072 251.23 492.085 284.04 487.481 315.84C487.468 315.947 487.455 316.054 487.448 316.154L487.407 316.448C487.393 316.541 487.386 316.641 487.372 316.734C487.193 318.003 486.968 319.219 486.726 320.5C486.616 321.104 486.5 321.716 486.398 322.327C486.291 322.959 486.382 323.59 486.644 324.145L483.131 337.663L483.078 337.894L482.722 339.169C482.591 339.676 482.45 340.148 482.302 340.627C482.189 341.004 482.077 341.382 481.971 341.766L481.749 342.563C481.387 343.846 481.024 345.129 480.633 346.401C480.44 347.025 480.233 347.651 480.025 348.277L479.657 349.383L479.354 350.336C478.965 351.543 478.575 352.75 478.149 353.939C477.938 354.522 477.72 355.099 477.502 355.676C477.361 356.056 477.213 356.429 477.078 356.801L476.708 357.801C476.268 358.991 475.834 360.173 475.371 361.344C475.192 361.783 475.012 362.208 474.825 362.641C474.681 362.978 474.537 363.316 474.399 363.645C474.088 364.393 473.776 365.14 473.458 365.881C473.403 366.006 473.357 366.137 473.318 366.275L472.588 367.941L472.353 368.49C467.434 379.684 461.372 390.583 454.314 400.891C450.118 407.015 445.536 412.991 440.687 418.648C427.58 433.939 412.525 447.046 395.961 457.597L393.947 458.886C393.802 458.947 393.666 459.014 393.53 459.096C387.419 462.906 381.126 466.376 374.807 469.415L374.176 469.704C372.459 470.524 370.447 471.473 368.438 472.358L367.244 472.89C367.121 472.942 366.976 473.003 366.825 473.057C366.625 473.136 366.411 473.216 366.219 473.302L354.055 478.535C353.49 478.38 352.866 478.385 352.286 478.586C351.706 478.787 351.119 478.995 350.538 479.196C349.413 479.587 348.28 479.986 347.145 480.343L346.549 480.531C346.423 480.555 346.297 480.578 346.193 480.608C315.507 490.024 282.608 492.051 251.066 486.47C250.908 486.439 250.245 486.306 250.072 486.277L244.421 485.279C244.193 485.162 243.952 485.074 243.693 485.023C210.868 477.973 179.98 462.64 154.379 440.695C133.727 422.993 117.129 401.745 105.048 377.534C104.913 377.26 104.731 377.012 104.523 376.794C104.523 376.794 102.105 371.547 102.096 371.527C88.7654 342.595 82.3762 310.421 83.6361 278.482C83.6534 278.154 83.6784 277.833 83.7098 277.504C83.7456 277.14 83.7738 276.769 83.7879 276.399C83.8096 275.944 83.725 275.489 83.5591 275.083C83.5591 275.083 84.6483 264.716 84.6537 264.695C84.9021 262.3 85.2482 259.699 85.7439 256.278C86.551 250.911 87.6368 245.296 88.9786 239.597C90.4495 233.363 92.2415 227.155 94.2829 221.147C95.5899 217.302 96.846 213.901 98.1336 210.724C98.485 209.853 98.8582 208.987 99.2313 208.122L99.6402 207.168C99.701 207.036 99.7476 206.905 99.7791 206.76C99.7791 206.76 100.738 204.566 100.751 204.551C107.684 188.749 116.713 173.821 127.604 160.147C129.15 158.205 130.759 156.252 132.386 154.354L132.381 154.39ZM165.633 190.412C166.147 189.813 166.406 189.034 166.346 188.244C166.291 187.447 165.915 186.703 165.308 186.182L137.132 162.031C136.517 161.504 135.71 161.247 134.907 161.323C134.133 161.396 133.409 161.764 132.902 162.356C132.882 162.379 132.492 162.835 132.492 162.835C132.316 163.04 132.14 163.245 131.98 163.463C131.786 163.705 131.586 163.968 131.393 164.224L131.012 164.714C129.947 166.08 128.797 167.544 127.667 169.078C127.384 169.454 127.11 169.851 126.834 170.234L126.334 170.925C125.392 172.224 124.457 173.53 123.537 174.849C123.231 175.298 122.926 175.761 122.62 176.21L122.124 176.958C121.278 178.221 120.439 179.477 119.623 180.767C119.301 181.281 118.972 181.803 118.658 182.323L118.216 183.038C117.447 184.289 116.678 185.539 115.939 186.802C115.594 187.389 115.256 187.982 114.912 188.583L114.544 189.228C113.844 190.459 113.152 191.697 112.482 192.94C112.091 193.672 111.702 194.418 111.319 195.157L111.115 195.548C110.491 196.752 109.868 197.956 109.273 199.172C108.807 200.116 108.362 201.065 107.917 202.014C107.63 202.611 107.358 203.22 107.078 203.823L106.931 204.132C106.531 205.014 106.574 206.039 107.065 206.881C111.229 214.085 116.168 221.875 121.759 230.026C122.254 230.74 123.027 231.206 123.886 231.31C124.745 231.414 125.603 231.135 126.246 230.554C139.792 218.285 153.037 204.785 165.613 190.435L165.633 190.412ZM173.091 181.712C185.4 167.014 196.71 151.868 206.69 136.675C207.166 135.951 207.311 135.06 207.076 134.227C206.842 133.394 206.264 132.701 205.491 132.328C196.682 128.083 188.243 124.392 180.406 121.35C179.499 120.994 178.48 121.108 177.669 121.638L177.366 121.839C176.771 122.225 176.184 122.618 175.598 123.01C174.761 123.571 173.98 124.113 173.206 124.648C172.022 125.477 170.86 126.325 169.698 127.173L169.302 127.466C168.711 127.894 168.113 128.33 167.531 128.779C166.331 129.687 165.148 130.622 163.971 131.549L163.409 131.99C162.928 132.367 162.446 132.745 161.98 133.135C160.771 134.115 159.593 135.12 158.409 136.133L157.783 136.663C157.377 137.014 156.958 137.365 156.552 137.716C155.349 138.766 154.17 139.849 152.991 140.933L152.362 141.513C152.004 141.838 151.646 142.164 151.296 142.496C150.072 143.646 148.879 144.823 147.694 146.007L147.107 146.584C146.803 146.876 146.506 147.162 146.217 147.468C144.763 148.934 143.347 150.447 142.272 151.593L141.872 152.014C141.681 152.206 141.498 152.405 141.315 152.603C141.145 152.801 140.969 152.992 140.785 153.19C140.785 153.19 140.381 153.647 140.361 153.669C139.854 154.262 139.593 155.026 139.646 155.809C139.694 156.614 140.071 157.372 140.686 157.9L168.862 182.051C169.469 182.572 170.262 182.83 171.058 182.761C171.848 182.701 172.578 182.325 173.092 181.726L173.112 181.703L173.091 181.712ZM117.89 237.905C118.762 236.888 118.866 235.384 118.084 234.252C113.974 228.292 110.164 222.472 106.775 216.945C106.175 215.97 105.069 215.417 103.929 215.533C103.14 215.608 102.432 215.989 101.937 216.566C101.71 216.831 101.534 217.129 101.404 217.465C101.369 217.567 101.32 217.67 101.278 217.765C101.193 217.956 101.116 218.154 101.039 218.351C100.758 219.124 100.493 219.911 100.234 220.704C100.073 221.184 99.9187 221.671 99.7495 222.145L99.525 222.822L99.3569 223.31C98.5867 225.561 97.7949 227.898 97.0963 230.25C96.798 231.258 96.529 232.279 96.2535 233.307C96.1266 233.778 96.0008 234.263 95.8738 234.733C95.7903 235.031 95.7144 235.334 95.6385 235.638L95.223 237.244C94.7783 238.931 94.3162 240.669 93.9192 242.423C93.6491 243.613 93.4018 244.824 93.1609 246.027L92.9461 247.107C92.8442 247.626 92.7498 248.151 92.6478 248.669L92.4873 249.532C92.3311 250.36 92.176 251.202 92.0274 252.036C91.8158 253.251 92.3625 254.457 93.4124 255.106C94.4548 255.75 95.7911 255.697 96.777 254.961C103.21 250.176 110.001 244.696 117.546 238.23C117.659 238.129 117.778 238.02 117.876 237.906L117.89 237.905ZM212.649 127.295C212.747 127.181 212.843 127.053 212.918 126.92C218.105 118.564 222.461 111.023 226.251 103.867C226.827 102.78 226.675 101.451 225.88 100.52C225.085 99.588 223.796 99.2332 222.628 99.628C221.785 99.9198 220.942 100.212 220.107 100.51L219.34 100.774C218.897 100.922 218.456 101.084 218.014 101.245L217.035 101.604C215.842 102.043 214.649 102.483 213.472 102.949C211.758 103.627 210.07 104.367 208.43 105.081C208.43 105.081 206.474 105.92 206.199 106.04C205.753 106.238 205.308 106.435 204.854 106.626C203.873 107.049 202.892 107.486 201.927 107.936C199.778 108.952 197.672 110.058 195.626 111.123C195.626 111.123 194.5 111.699 194.35 111.781C193.908 112.021 193.457 112.24 193.007 112.473C192.256 112.857 191.512 113.233 190.778 113.644C190.601 113.743 190.417 113.849 190.242 113.962C190.154 114.019 190.052 114.076 189.964 114.133C189.652 114.313 189.385 114.532 189.157 114.797C188.662 115.374 188.395 116.133 188.441 116.923C188.501 118.068 189.217 119.076 190.279 119.512C196.287 122.029 202.6 124.898 209.061 128.039C210.306 128.646 211.777 128.313 212.649 127.295ZM291.083 174.283C291.155 174.199 291.22 174.123 291.276 174.027C302.657 157.492 313.065 140.955 322.197 124.877C322.616 124.143 322.698 123.278 322.438 122.476C322.178 121.673 321.603 121.022 320.838 120.67C293.22 108.007 264.263 100.348 237.097 98.5436C236.141 98.4753 235.229 98.8788 234.624 99.5849C234.468 99.7671 234.334 99.9688 234.224 100.19C229.442 109.671 224.009 119.344 218.101 128.926C217.659 129.64 217.541 130.5 217.766 131.299C217.984 132.105 218.539 132.778 219.278 133.161C241.17 144.498 263.983 158.495 287.078 174.775C287.738 175.235 288.546 175.414 289.337 175.275C290.022 175.151 290.64 174.799 291.089 174.275L291.083 174.283ZM176.323 308.21C176.772 307.686 177.026 307.021 177.044 306.325C177.06 305.522 176.76 304.751 176.204 304.17C156.507 283.756 139.18 263.359 124.693 243.552C124.202 242.881 123.451 242.435 122.621 242.343C121.791 242.251 120.96 242.499 120.327 243.037C111.602 250.481 102.88 257.321 94.395 263.364C94.1932 263.507 94.0142 263.67 93.8581 263.852C93.2528 264.558 93.0012 265.528 93.2148 266.462C99.1908 293.079 111.181 320.532 127.901 345.848C128.366 346.55 129.105 347.025 129.93 347.153C130.763 347.287 131.611 347.066 132.273 346.54C146.671 335.121 161.422 322.306 176.113 308.425C176.192 308.348 176.265 308.279 176.336 308.195L176.323 308.21ZM240.841 239.811C256.475 221.326 271.229 202.362 284.688 183.434C285.149 182.788 285.334 181.973 285.203 181.188C285.072 180.404 284.621 179.701 283.975 179.24C260.752 162.864 237.829 148.826 215.847 137.517C214.592 136.876 213.084 137.19 212.193 138.231C212.108 138.329 212.023 138.428 211.961 138.546C201.665 154.323 189.953 170.06 177.168 185.299C176.116 186.557 176.268 188.439 177.513 189.506L236.598 240.151C237.205 240.672 237.99 240.924 238.794 240.862C239.584 240.801 240.314 240.426 240.828 239.826L240.841 239.811ZM233.389 248.504C233.903 247.905 234.162 247.126 234.108 246.329C234.054 245.531 233.671 244.795 233.064 244.274L173.972 193.622C172.726 192.555 170.85 192.685 169.761 193.925C156.657 208.889 142.903 222.876 128.868 235.501C128.768 235.587 128.676 235.679 128.591 235.777C127.7 236.818 127.619 238.356 128.445 239.498C142.918 259.398 160.31 279.904 180.122 300.429C180.67 301.004 181.44 301.335 182.235 301.344C183.03 301.354 183.801 301.054 184.375 300.492C200.963 284.352 217.447 266.858 233.368 248.513L233.381 248.498L233.389 248.504ZM123.637 353.204C124.496 352.202 124.61 350.732 123.848 349.592C111.547 331.092 101.808 311.707 94.8934 291.977C94.4032 290.582 92.9704 289.749 91.5159 290.017C90.8239 290.148 90.2208 290.514 89.7912 291.015C89.3161 291.569 89.0385 292.293 89.0699 293.07C89.0981 293.806 89.1328 294.533 89.1751 295.268L89.2673 297.019C89.3811 299.33 89.5015 301.725 89.7118 304.091C89.8279 305.416 89.9927 306.729 90.151 308.05L90.3484 309.695C90.6217 312.05 90.908 314.481 91.2844 316.885C91.5219 318.406 91.8093 319.93 92.0783 321.398L92.2811 322.468C92.6964 324.734 93.1444 327.146 93.6834 329.544C94.0825 331.322 94.5305 333.089 94.96 334.8L95.0435 335.148C95.5142 337.027 96.166 339.509 96.8916 342.027C97.461 343.99 98.0933 345.942 98.6237 347.582C99.4133 350.01 100.164 352.208 100.927 354.298C101.566 356.057 102.268 357.897 103.014 359.761C103.286 360.443 103.573 361.123 103.866 361.795L104.333 362.894C104.681 363.732 105.397 364.372 106.267 364.617C107.144 364.869 108.083 364.712 108.822 364.187C113.188 361.107 117.88 357.661 123.16 353.638C123.334 353.511 123.486 353.365 123.623 353.205L123.637 353.204ZM327.442 115.332C327.578 115.173 327.7 115 327.798 114.808C330.99 108.904 333.684 103.732 336.016 99.0139C336.422 98.2026 336.426 97.2448 336.051 96.4226C335.668 95.594 334.934 94.9909 334.052 94.775L332.916 94.4865C332.185 94.2945 331.455 94.1166 330.719 93.9463C328.784 93.4994 326.888 93.0991 325.08 92.7347C322.876 92.2943 320.567 91.8831 318.019 91.4763C316.223 91.1889 314.293 90.8906 312.329 90.6302C309.722 90.2917 307.135 90.0368 305.177 89.847L304.749 89.809C303.042 89.6495 301.263 89.4814 299.502 89.3685C297.015 89.2123 294.541 89.1331 292.224 89.0701L291.044 89.0332C289.572 88.9833 288.102 88.9475 286.627 88.9475C284.151 88.9463 281.67 89.045 279.273 89.1372L277.646 89.1914C276.344 89.2347 275.042 89.2781 273.744 89.3638C271.303 89.5232 268.84 89.7834 266.477 90.0361L264.873 90.202C264.211 90.2671 263.549 90.3322 262.882 90.4189C262.117 90.5133 261.437 90.8918 260.961 91.4461C260.532 91.9472 260.263 92.599 260.239 93.303C260.197 94.7814 261.233 96.0775 262.686 96.3487C283.176 100.149 303.772 106.805 323.913 116.114C325.149 116.686 326.59 116.341 327.443 115.346L327.442 115.332ZM411.062 137.092C411.59 136.477 411.847 135.67 411.771 134.867C411.695 134.065 411.297 133.315 410.669 132.803C391.166 117.034 369.206 105.284 345.411 97.8871C344.249 97.5226 343.009 97.9087 342.247 98.7971C342.085 98.9869 341.945 99.1962 341.829 99.4392C339.053 105.121 336.03 110.998 332.826 116.918C332.441 117.629 332.356 118.465 332.6 119.24C332.837 120.009 333.382 120.648 334.099 121.026C353.521 130.943 372.184 143.266 389.573 157.645C390.838 158.689 392.698 158.532 393.765 157.287L411.07 137.098L411.062 137.092ZM175.204 412.25C176.272 411.005 176.143 409.143 174.917 408.052C158.117 393.125 143.094 376.586 130.287 358.891C129.811 358.233 129.097 357.805 128.293 357.683C127.497 357.567 126.683 357.778 126.033 358.261C120.712 362.301 115.36 366.195 110.137 369.844C109.929 369.995 109.736 370.159 109.573 370.349C108.811 371.237 108.619 372.521 109.157 373.615C120.074 395.959 135.02 415.83 153.6 432.691C154.202 433.233 154.997 433.52 155.808 433.464C156.613 433.417 157.371 433.039 157.899 432.424L175.197 412.244L175.204 412.25ZM386.319 165.958C386.84 165.351 387.104 164.551 387.028 163.748C386.96 162.952 386.569 162.209 385.948 161.689C368.818 147.546 350.426 135.429 331.28 125.682C330.025 125.041 328.526 125.376 327.647 126.401C327.524 126.545 327.409 126.71 327.316 126.881C317.987 143.356 307.328 160.324 295.627 177.295C294.701 178.635 295.019 180.462 296.334 181.418C310.885 192.007 325.521 203.512 339.841 215.602C341.1 216.668 342.982 216.517 344.056 215.264L386.325 165.951L386.319 165.958ZM224.913 354.259C225.987 353.006 225.849 351.123 224.603 350.042C210.482 337.767 196.896 325.067 184.19 312.293C183.045 311.14 181.185 311.113 180.001 312.232C164.92 326.477 149.79 339.626 135.029 351.3C134.875 351.418 134.73 351.557 134.606 351.701C133.721 352.733 133.633 354.265 134.458 355.407C147.046 372.836 161.818 389.146 178.367 403.858C178.969 404.401 179.756 404.666 180.567 404.611C181.364 404.557 182.116 404.187 182.643 403.572L224.913 354.259ZM336.61 223.95C337.131 223.342 337.389 222.549 337.321 221.753C337.253 220.957 336.876 220.213 336.262 219.7C322.124 207.752 307.663 196.397 293.291 185.935C292.645 185.46 291.836 185.267 291.037 185.399C290.337 185.51 289.698 185.871 289.242 186.402C289.184 186.471 289.125 186.539 289.074 186.614C275.494 205.714 260.644 224.806 244.93 243.369C243.864 244.628 244.015 246.51 245.268 247.584L283.952 280.742C285.212 281.823 287.102 281.677 288.182 280.417L336.589 223.944L336.61 223.95ZM280.765 289.1C281.845 287.84 281.7 285.951 280.44 284.87L241.756 251.712C240.503 250.638 238.62 250.776 237.539 252.022C221.487 270.518 204.898 288.12 188.224 304.345C188.166 304.413 188.1 304.475 188.041 304.543C187.585 305.075 187.326 305.761 187.324 306.471C187.322 307.272 187.636 308.042 188.198 308.616C200.75 321.232 214.182 333.773 228.12 345.892C228.728 346.413 229.514 346.678 230.311 346.624C231.109 346.57 231.853 346.194 232.373 345.586L280.787 289.106L280.765 289.1ZM250.724 479.354C250.874 479.18 251.001 478.986 251.119 478.771C253.42 474.289 255.95 469.57 258.629 464.74C259.04 463.999 259.12 463.107 258.846 462.305C258.571 461.503 257.96 460.848 257.176 460.519C231.196 449.51 206.419 434.331 183.539 415.403C182.274 414.359 180.414 414.516 179.347 415.761L161.996 436.003C161.469 436.618 161.212 437.425 161.288 438.227C161.364 439.03 161.762 439.779 162.39 440.291C187.192 460.326 216.746 474.174 247.864 480.34C248.944 480.555 250.035 480.159 250.724 479.354ZM263.961 455.231C264.078 455.094 264.186 454.937 264.281 454.781C273.17 439.417 283.269 423.563 294.302 407.665C294.755 407.013 294.926 406.199 294.788 405.408C294.642 404.625 294.191 403.922 293.533 403.476C273.328 389.648 253.053 374.165 233.264 357.439C232.004 356.373 230.122 356.525 229.049 357.778L186.779 407.091C186.258 407.698 185.994 408.498 186.069 409.301C186.138 410.097 186.528 410.84 187.15 411.36C209.946 430.202 234.64 445.231 260.528 456.055C261.751 456.564 263.129 456.217 263.962 455.245L263.961 455.231ZM300.701 398.57C300.76 398.502 300.818 398.434 300.869 398.359C314.099 379.867 328.572 361.308 343.895 343.201C344.961 341.941 344.81 340.06 343.557 338.986L289.111 292.317C287.851 291.236 285.961 291.382 284.881 292.642L236.481 349.107C235.96 349.714 235.702 350.507 235.77 351.303C235.839 352.1 236.215 352.844 236.829 353.357C256.504 369.985 276.665 385.37 296.728 399.103C298 399.97 299.705 399.732 300.695 398.578L300.701 398.57ZM399.444 283.42C400.427 282.274 400.408 280.545 399.357 279.42C382.701 261.666 364.4 244.095 344.967 227.2C344.359 226.68 343.573 226.414 342.776 226.468C341.978 226.522 341.234 226.899 340.714 227.506L292.313 283.971C291.233 285.232 291.378 287.121 292.639 288.201L347.092 334.877C348.344 335.951 350.227 335.813 351.309 334.567C366.808 316.716 382.943 299.582 399.255 283.626C399.313 283.558 399.379 283.496 399.438 283.428L399.444 283.42ZM449.844 238.467C450.677 237.496 450.815 236.074 450.119 234.95C435.409 210.961 416.759 188.851 394.69 169.222C394.089 168.694 393.295 168.422 392.491 168.469C391.693 168.524 390.935 168.901 390.414 169.509L348.145 218.822C347.071 220.074 347.209 221.957 348.455 223.039C367.995 240.025 386.411 257.707 403.189 275.579C403.73 276.162 404.494 276.5 405.29 276.524C406.086 276.548 406.865 276.254 407.446 275.698C421.371 262.465 435.502 250.066 449.44 238.846C449.58 238.729 449.719 238.598 449.836 238.461L449.844 238.467ZM471.646 221.713C472.336 220.908 472.561 219.771 472.183 218.736C461.345 188.925 443.133 161.816 419.51 140.329C418.908 139.786 418.113 139.5 417.301 139.555C416.49 139.611 415.738 139.98 415.211 140.595L397.861 160.837C396.793 162.082 396.922 163.944 398.148 165.034C420.321 184.726 439.126 206.903 454.032 230.954C454.477 231.679 455.211 232.175 456.052 232.331C456.886 232.479 457.75 232.271 458.425 231.744C462.775 228.36 467.053 225.151 471.13 222.193C471.325 222.057 471.497 221.888 471.646 221.713ZM379.573 443.879C379.651 443.788 379.729 443.697 379.792 443.592C389.322 429.371 400.05 415.135 411.685 401.269C412.737 400.011 412.585 398.129 411.34 397.061L352.256 346.416C351.648 345.895 350.863 345.643 350.059 345.705C349.27 345.766 348.54 346.141 348.025 346.741L348.012 346.756C332.845 364.681 318.533 383.022 305.476 401.267C305.002 401.927 304.817 402.757 304.971 403.561C305.118 404.358 305.591 405.066 306.271 405.518C330.633 421.58 354.12 434.744 376.073 444.659C377.3 445.21 378.728 444.88 379.587 443.878L379.573 443.879ZM456.293 354.421C457.152 353.419 457.26 351.957 456.527 350.829C443.364 330.629 426.757 309.439 407.174 287.832C406.624 287.229 405.859 286.877 405.041 286.848C404.223 286.818 403.439 287.134 402.859 287.703C386.686 303.528 370.742 320.47 355.471 338.055L355.458 338.071C354.943 338.67 354.684 339.449 354.745 340.239C354.799 341.036 355.176 341.78 355.783 342.301L414.867 392.946C416.113 394.014 417.989 393.883 419.078 392.644C430.97 379.077 443.406 366.306 456.05 354.674C456.136 354.589 456.222 354.505 456.3 354.414L456.293 354.421ZM364.563 467.812C364.68 467.676 364.782 467.526 364.877 467.37C367.42 463.004 370.242 458.376 373.505 453.232C373.974 452.501 374.097 451.605 373.848 450.773C373.6 449.941 373.009 449.263 372.215 448.898C350.392 438.925 327.085 425.796 302.96 409.871C301.69 409.033 300.008 409.29 299.038 410.421C298.973 410.497 298.908 410.573 298.852 410.67C288.266 425.923 278.512 441.19 269.859 456.033C269.414 456.797 269.33 457.726 269.628 458.561C269.926 459.396 270.587 460.054 271.412 460.367C296.237 469.528 321.818 474.61 345.384 475.067C345.711 475.071 346.034 475.032 346.345 474.93C349.053 474.076 351.713 473.169 354.267 472.25C354.267 472.25 354.778 472.083 354.916 472.029C357.668 471.016 360.538 469.881 363.457 468.642C363.89 468.46 364.265 468.176 364.564 467.827L364.563 467.812ZM477.645 335.95C477.944 335.601 478.16 335.18 478.274 334.724C479.028 331.709 479.7 328.742 480.269 325.897C480.398 325.27 480.505 324.638 480.606 324.013C480.674 323.611 480.743 323.209 480.819 322.813C481.178 320.842 481.549 318.842 481.849 316.847C481.902 316.524 481.892 316.198 481.838 315.876C477.702 292.245 469.025 268.41 456.043 245.033C455.615 244.257 454.857 243.713 453.992 243.538C453.121 243.371 452.223 243.589 451.529 244.153C438.063 255.054 424.473 267.02 411.11 279.721C411.037 279.791 410.958 279.868 410.893 279.944C409.923 281.075 409.927 282.777 410.949 283.904C430.345 305.284 446.874 326.288 460.075 346.336C460.549 347.059 461.317 347.546 462.177 347.664C463.038 347.782 463.904 347.524 464.555 346.949C468.735 343.302 472.999 339.726 477.234 336.322C477.374 336.205 477.512 336.074 477.63 335.937L477.645 335.95ZM311.872 481.666C312.301 481.165 312.57 480.513 312.594 479.809C312.643 478.323 311.601 477.034 310.147 476.763C296.16 474.151 281.892 470.114 267.744 464.769C266.539 464.316 265.212 464.68 264.405 465.622C264.275 465.774 264.16 465.939 264.06 466.117C261.517 470.667 259.472 474.419 257.629 477.937C257.178 478.801 257.173 479.837 257.615 480.704C258.065 481.577 258.905 482.165 259.88 482.303C260.102 482.335 260.325 482.368 260.547 482.4C260.877 482.446 261.208 482.506 261.544 482.544C263.549 482.801 265.557 482.994 267.429 483.176C269.022 483.33 270.908 483.497 272.84 483.639C274.658 483.762 276.567 483.87 278.693 483.941C280.543 484.011 282.397 484.06 284.2 484.078C286.315 484.099 288.215 484.095 289.993 484.065C291.608 484.04 293.334 483.978 295.567 483.877C297.39 483.794 299.327 483.701 301.28 483.558C303.24 483.408 305.203 483.207 306.948 483.03C307.947 482.925 308.946 482.82 309.944 482.701C310.718 482.613 311.39 482.228 311.865 481.673L311.872 481.666ZM483.275 281.81C483.75 281.255 484.02 280.525 483.996 279.754C483.976 279.302 483.914 277.945 483.914 277.945C483.785 274.976 483.642 272.562 483.457 270.349C483.372 269.235 483.251 268.131 483.138 267.019L483.066 266.365C482.788 263.677 482.503 261.26 482.179 258.98C481.99 257.633 481.781 256.294 481.572 254.956C481.188 252.546 480.743 250.083 480.258 247.653C479.994 246.333 479.722 245.02 479.437 243.709C478.928 241.429 478.354 239.026 477.661 236.378L477.508 235.773C477.235 234.723 476.963 233.673 476.67 232.631C476.542 232.166 476.394 231.709 476.253 231.259C476.151 230.948 476.055 230.629 475.96 230.31C475.682 229.374 474.965 228.628 474.034 228.317C473.102 228.005 472.086 228.161 471.294 228.747C468.133 231.082 464.643 233.741 460.615 236.887C460.455 237.013 460.309 237.152 460.186 237.296C459.379 238.238 459.221 239.604 459.854 240.726C467.292 253.898 473.451 267.395 478.173 280.847C478.663 282.242 480.104 283.082 481.557 282.8C482.249 282.669 482.846 282.311 483.282 281.802L483.275 281.81ZM432.781 419.404C433.289 418.812 433.549 418.048 433.496 417.264C433.448 416.46 433.071 415.701 432.456 415.174L420.012 404.508C419.404 403.987 418.611 403.729 417.815 403.797C417.026 403.858 416.296 404.233 415.782 404.833L415.762 404.856C404.778 417.963 394.592 431.412 385.505 444.841C384.995 445.589 384.854 446.522 385.112 447.389C385.37 448.255 386.006 448.958 386.834 449.299C387.507 449.573 388.174 449.855 388.835 450.145C390.103 450.679 391.401 451.238 392.702 451.734C393.601 452.083 394.62 451.969 395.431 451.439L395.876 451.149C396.599 450.675 397.321 450.201 398.035 449.707L398.406 449.459C398.823 449.171 399.241 448.884 399.659 448.596C400.992 447.671 402.395 446.648 403.959 445.5L404.435 445.144C404.751 444.914 405.067 444.684 405.381 444.44C406.695 443.445 408.073 442.375 409.704 441.072C409.704 441.072 410.72 440.271 410.974 440.067C412.275 439.009 413.647 437.854 415.291 436.444L415.743 436.055C415.976 435.859 416.209 435.664 416.435 435.462C417.704 434.351 419.063 433.119 420.718 431.587L421.136 431.207C421.335 431.022 421.541 430.843 421.739 430.658C423.061 429.407 424.448 428.066 426.088 426.43C426.088 426.43 426.715 425.821 426.859 425.668C428.406 424.11 429.993 422.441 431.572 420.739L431.795 420.509C431.971 420.304 432.154 420.105 432.344 419.899C432.468 419.755 432.762 419.427 432.781 419.404ZM441.142 409.62C441.317 409.415 441.471 409.205 441.632 408.987L441.98 408.534C442.942 407.304 444.221 405.674 445.461 403.997C445.731 403.636 445.987 403.276 446.249 402.908L446.737 402.233C447.699 400.91 448.653 399.582 449.585 398.233C449.884 397.792 450.184 397.351 450.475 396.903L450.965 396.163C451.817 394.892 452.67 393.62 453.492 392.323C453.814 391.809 454.136 391.295 454.451 390.774L454.886 390.067C455.661 388.809 456.43 387.558 457.177 386.288C457.521 385.702 457.865 385.101 458.195 384.501L458.544 383.878C459.25 382.64 459.949 381.394 460.632 380.136C461.011 379.433 461.375 378.732 461.746 378.022L461.981 377.565C462.617 376.345 463.24 375.127 463.847 373.896C464.282 373.005 464.71 372.107 465.131 371.216C465.484 370.466 465.801 369.789 466.104 369.113L466.183 368.944C466.583 368.062 466.54 367.037 466.057 366.202C465.043 364.45 463.958 362.612 462.82 360.727C462.35 359.955 461.566 359.441 460.67 359.318C459.774 359.196 458.873 359.478 458.218 360.089C446.217 371.231 434.455 383.355 423.247 396.139L423.228 396.161C422.714 396.761 422.454 397.54 422.515 398.33C422.569 399.127 422.946 399.871 423.553 400.391L435.99 411.052C436.605 411.579 437.412 411.836 438.214 411.76C438.989 411.686 439.712 411.319 440.22 410.726C440.239 410.704 441.018 409.764 441.134 409.613L441.142 409.62ZM383.958 458.293C384.453 457.716 384.721 456.958 384.675 456.181C384.615 455.037 383.9 454.028 382.844 453.584L382.683 453.512C381.466 452.995 380.074 453.343 379.234 454.323C379.143 454.429 379.052 454.535 378.984 454.661L378.806 454.93C378.073 456.093 378.217 457.6 379.166 458.597C380.108 459.589 381.608 459.821 382.805 459.162L383.138 458.973C383.45 458.793 383.731 458.573 383.959 458.307L383.958 458.293ZM471.194 356.552C471.415 356.294 471.598 355.989 471.721 355.66L471.856 355.288C472.331 353.996 471.872 352.549 470.734 351.772C469.596 350.994 468.079 351.089 467.05 351.998L466.831 352.192C466.724 352.286 466.626 352.385 466.534 352.492C465.695 353.471 465.571 354.906 466.268 356.03C466.268 356.03 466.349 356.165 466.356 356.172C466.956 357.147 468.055 357.694 469.195 357.578C469.984 357.503 470.692 357.122 471.186 356.545L471.194 356.552Z" fill="#E5D9C3"/>
</g>
<defs>
<clipPath id="clip0_47_296">
<rect width="406.15" height="406.08" fill="white" transform="translate(572.861 264.48) rotate(130.602)"/>
</clipPath>
</defs>
</svg>
