<svg width="543" height="401" viewBox="0 0 543 401" fill="none" xmlns="http://www.w3.org/2000/svg">
<g clip-path="url(#clip0_320_39)">
<path d="M434.381 218.39C447.436 203.159 462.493 190.065 479.13 179.46L481.186 178.153C481.316 178.093 481.439 178.027 481.561 177.961C496.023 168.941 511.636 161.79 527.961 156.712L528.577 156.516C528.689 156.493 528.8 156.47 528.89 156.442C530.878 155.828 533.491 155.039 536.1 154.377L546.712 151.646C547.094 151.723 547.505 151.72 547.903 151.64C579.84 145.113 613.174 146.343 644.296 155.226L649.786 156.797C650.041 156.976 650.314 157.118 650.612 157.216C676.481 165.481 700.06 178.646 720.704 196.341C746.359 218.332 766.236 246.526 778.193 277.889C778.3 278.164 778.447 278.422 778.621 278.65L780.765 284.953C791.072 315.23 794.085 348.04 789.481 379.84C789.468 379.947 789.455 380.054 789.448 380.154L789.407 380.448C789.393 380.541 789.386 380.641 789.372 380.734C789.193 382.003 788.968 383.219 788.726 384.5C788.616 385.104 788.5 385.716 788.398 386.327C788.291 386.959 788.382 387.59 788.644 388.145L785.131 401.663L785.078 401.894L784.722 403.169C784.591 403.676 784.45 404.148 784.302 404.627C784.189 405.004 784.077 405.382 783.971 405.766L783.749 406.563C783.387 407.846 783.024 409.129 782.633 410.401C782.44 411.025 782.233 411.651 782.025 412.277L781.657 413.383L781.354 414.336C780.965 415.543 780.575 416.75 780.149 417.939C779.938 418.522 779.72 419.099 779.502 419.676C779.361 420.056 779.213 420.429 779.078 420.801L778.708 421.801C778.268 422.991 777.834 424.173 777.371 425.344C777.192 425.783 777.012 426.208 776.825 426.641C776.681 426.978 776.537 427.316 776.399 427.645C776.088 428.393 775.776 429.14 775.458 429.881C775.403 430.006 775.357 430.137 775.318 430.275L774.588 431.941L774.353 432.49C769.434 443.684 763.372 454.583 756.314 464.891C752.118 471.015 747.536 476.991 742.687 482.648C729.58 497.939 714.525 511.046 697.961 521.597L695.947 522.886C695.802 522.947 695.666 523.014 695.53 523.096C689.419 526.906 683.126 530.376 676.807 533.415L676.176 533.704C674.459 534.524 672.447 535.473 670.438 536.358L669.244 536.89C669.121 536.942 668.976 537.003 668.825 537.057C668.625 537.136 668.411 537.216 668.219 537.302L656.055 542.535C655.49 542.38 654.866 542.385 654.286 542.586C653.706 542.787 653.119 542.995 652.538 543.196C651.413 543.587 650.28 543.986 649.145 544.343L648.549 544.531C648.423 544.555 648.297 544.578 648.193 544.608C617.507 554.024 584.608 556.051 553.066 550.47C552.908 550.439 552.245 550.306 552.072 550.277L546.421 549.279C546.193 549.162 545.952 549.074 545.693 549.023C512.868 541.973 481.98 526.64 456.379 504.695C435.727 486.993 419.129 465.745 407.048 441.534C406.913 441.26 406.731 441.012 406.523 440.794C406.523 440.794 404.105 435.547 404.096 435.527C390.765 406.595 384.376 374.421 385.636 342.482C385.653 342.154 385.678 341.833 385.71 341.504C385.746 341.14 385.774 340.769 385.788 340.399C385.81 339.944 385.725 339.489 385.559 339.083C385.559 339.083 386.648 328.716 386.654 328.695C386.902 326.3 387.248 323.699 387.744 320.278C388.551 314.911 389.637 309.296 390.979 303.597C392.45 297.363 394.241 291.155 396.283 285.147C397.59 281.302 398.846 277.901 400.134 274.724C400.485 273.853 400.858 272.987 401.231 272.122L401.64 271.168C401.701 271.036 401.748 270.905 401.779 270.76C401.779 270.76 402.738 268.566 402.751 268.551C409.684 252.749 418.713 237.821 429.604 224.147C431.15 222.205 432.759 220.252 434.386 218.354L434.381 218.39ZM467.633 254.412C468.147 253.813 468.406 253.034 468.346 252.244C468.291 251.447 467.915 250.703 467.308 250.182L439.132 226.031C438.517 225.504 437.71 225.247 436.907 225.323C436.133 225.396 435.409 225.764 434.902 226.356C434.882 226.379 434.492 226.835 434.492 226.835C434.316 227.04 434.14 227.245 433.98 227.463C433.786 227.705 433.586 227.968 433.393 228.224L433.012 228.714C431.947 230.08 430.797 231.544 429.667 233.078C429.384 233.454 429.11 233.851 428.834 234.234L428.334 234.925C427.392 236.224 426.457 237.53 425.537 238.849C425.231 239.298 424.926 239.761 424.62 240.21L424.124 240.958C423.278 242.221 422.439 243.477 421.623 244.767C421.301 245.281 420.972 245.803 420.658 246.323L420.216 247.038C419.447 248.289 418.678 249.539 417.939 250.802C417.594 251.389 417.256 251.982 416.912 252.583L416.544 253.228C415.844 254.459 415.152 255.697 414.482 256.94C414.091 257.672 413.702 258.418 413.319 259.157L413.115 259.548C412.491 260.752 411.868 261.956 411.273 263.172C410.807 264.116 410.362 265.065 409.917 266.014C409.63 266.611 409.358 267.22 409.078 267.823L408.931 268.132C408.531 269.014 408.574 270.039 409.065 270.881C413.229 278.085 418.168 285.875 423.759 294.026C424.254 294.74 425.027 295.206 425.886 295.31C426.745 295.414 427.603 295.135 428.246 294.554C441.792 282.285 455.037 268.785 467.613 254.435L467.633 254.412ZM475.091 245.712C487.4 231.014 498.71 215.868 508.69 200.675C509.166 199.951 509.311 199.06 509.076 198.227C508.842 197.394 508.264 196.701 507.491 196.328C498.682 192.083 490.243 188.392 482.406 185.35C481.499 184.994 480.48 185.108 479.669 185.638L479.366 185.839C478.771 186.225 478.184 186.618 477.598 187.01C476.761 187.571 475.98 188.113 475.206 188.648C474.022 189.477 472.86 190.325 471.698 191.173L471.302 191.466C470.711 191.894 470.113 192.33 469.531 192.779C468.331 193.687 467.148 194.622 465.971 195.549L465.409 195.99C464.928 196.367 464.446 196.745 463.98 197.135C462.771 198.115 461.593 199.12 460.409 200.133L459.783 200.663C459.377 201.014 458.958 201.365 458.552 201.716C457.349 202.766 456.17 203.849 454.991 204.933L454.362 205.513C454.004 205.838 453.646 206.164 453.296 206.496C452.072 207.646 450.879 208.823 449.694 210.007L449.107 210.584C448.803 210.876 448.506 211.162 448.217 211.468C446.763 212.934 445.347 214.447 444.272 215.593L443.872 216.014C443.681 216.206 443.498 216.405 443.315 216.603C443.145 216.801 442.969 216.992 442.785 217.19C442.785 217.19 442.381 217.647 442.361 217.669C441.854 218.262 441.593 219.026 441.646 219.809C441.694 220.614 442.071 221.372 442.686 221.9L470.862 246.051C471.469 246.572 472.262 246.83 473.058 246.761C473.848 246.701 474.578 246.325 475.092 245.726L475.112 245.703L475.091 245.712ZM419.89 301.905C420.762 300.888 420.866 299.384 420.084 298.252C415.974 292.292 412.164 286.472 408.775 280.945C408.175 279.97 407.069 279.417 405.929 279.533C405.14 279.608 404.432 279.989 403.937 280.566C403.71 280.831 403.534 281.129 403.404 281.465C403.369 281.567 403.32 281.67 403.278 281.765C403.193 281.956 403.116 282.154 403.039 282.351C402.758 283.124 402.493 283.911 402.234 284.704C402.073 285.184 401.919 285.671 401.75 286.145L401.525 286.822L401.357 287.31C400.587 289.561 399.795 291.898 399.096 294.25C398.798 295.258 398.529 296.279 398.253 297.307C398.127 297.778 398.001 298.263 397.874 298.733C397.79 299.031 397.714 299.334 397.638 299.638L397.223 301.244C396.778 302.931 396.316 304.669 395.919 306.423C395.649 307.613 395.402 308.824 395.161 310.027L394.946 311.107C394.844 311.626 394.75 312.151 394.648 312.669L394.487 313.532C394.331 314.36 394.176 315.202 394.027 316.036C393.816 317.251 394.362 318.457 395.412 319.106C396.455 319.75 397.791 319.697 398.777 318.961C405.21 314.176 412.001 308.696 419.546 302.23C419.659 302.129 419.778 302.02 419.876 301.906L419.89 301.905ZM514.649 191.295C514.747 191.181 514.843 191.053 514.918 190.92C520.105 182.564 524.461 175.023 528.251 167.867C528.827 166.78 528.675 165.451 527.88 164.52C527.085 163.588 525.796 163.233 524.628 163.628C523.785 163.92 522.942 164.212 522.107 164.51L521.34 164.774C520.897 164.922 520.456 165.084 520.014 165.245L519.035 165.604C517.842 166.043 516.649 166.483 515.472 166.949C513.758 167.627 512.07 168.367 510.43 169.081C510.43 169.081 508.474 169.92 508.199 170.04C507.753 170.238 507.308 170.435 506.854 170.626C505.873 171.049 504.892 171.486 503.927 171.936C501.778 172.952 499.672 174.058 497.626 175.123C497.626 175.123 496.5 175.699 496.35 175.781C495.908 176.021 495.457 176.24 495.007 176.473C494.256 176.857 493.512 177.233 492.778 177.644C492.601 177.743 492.417 177.849 492.242 177.962C492.154 178.019 492.052 178.076 491.964 178.133C491.652 178.313 491.385 178.532 491.157 178.797C490.662 179.374 490.395 180.133 490.441 180.923C490.501 182.068 491.217 183.076 492.279 183.512C498.287 186.029 504.6 188.898 511.061 192.039C512.306 192.646 513.777 192.313 514.649 191.295ZM593.083 238.283C593.155 238.199 593.22 238.123 593.276 238.027C604.657 221.492 615.065 204.955 624.197 188.877C624.616 188.143 624.698 187.278 624.438 186.476C624.178 185.673 623.603 185.022 622.838 184.67C595.22 172.007 566.263 164.348 539.097 162.544C538.141 162.475 537.229 162.879 536.624 163.585C536.468 163.767 536.334 163.969 536.224 164.19C531.442 173.671 526.009 183.344 520.101 192.926C519.659 193.64 519.541 194.5 519.766 195.299C519.984 196.105 520.539 196.778 521.278 197.161C543.17 208.498 565.983 222.495 589.078 238.775C589.738 239.235 590.546 239.414 591.337 239.275C592.022 239.151 592.64 238.799 593.089 238.275L593.083 238.283ZM478.323 372.21C478.772 371.686 479.026 371.021 479.044 370.325C479.06 369.522 478.76 368.751 478.204 368.17C458.507 347.756 441.18 327.359 426.693 307.552C426.202 306.881 425.451 306.435 424.621 306.343C423.791 306.251 422.96 306.499 422.327 307.037C413.602 314.481 404.88 321.321 396.395 327.364C396.193 327.507 396.014 327.67 395.858 327.852C395.253 328.558 395.001 329.528 395.215 330.462C401.191 357.079 413.181 384.532 429.901 409.848C430.366 410.55 431.105 411.025 431.93 411.153C432.763 411.287 433.611 411.066 434.273 410.54C448.671 399.121 463.422 386.306 478.113 372.425C478.192 372.348 478.265 372.279 478.336 372.195L478.323 372.21ZM542.841 303.811C558.475 285.326 573.229 266.362 586.688 247.434C587.149 246.788 587.334 245.973 587.203 245.188C587.072 244.404 586.621 243.701 585.975 243.24C562.752 226.864 539.829 212.826 517.847 201.517C516.592 200.876 515.084 201.19 514.193 202.231C514.108 202.329 514.023 202.428 513.961 202.546C503.665 218.323 491.953 234.06 479.168 249.299C478.116 250.557 478.268 252.439 479.513 253.506L538.598 304.151C539.205 304.672 539.99 304.924 540.794 304.862C541.584 304.801 542.314 304.426 542.828 303.826L542.841 303.811ZM535.389 312.504C535.903 311.905 536.162 311.126 536.108 310.329C536.054 309.531 535.671 308.795 535.064 308.274L475.972 257.622C474.726 256.555 472.85 256.685 471.761 257.925C458.657 272.889 444.903 286.876 430.868 299.501C430.768 299.587 430.676 299.679 430.591 299.777C429.7 300.818 429.619 302.356 430.445 303.498C444.918 323.398 462.31 343.904 482.122 364.429C482.67 365.004 483.44 365.335 484.235 365.344C485.03 365.354 485.801 365.054 486.375 364.492C502.963 348.352 519.447 330.858 535.368 312.513L535.381 312.498L535.389 312.504ZM425.637 417.204C426.496 416.202 426.61 414.732 425.848 413.592C413.547 395.092 403.808 375.707 396.893 355.977C396.403 354.582 394.97 353.749 393.516 354.017C392.824 354.148 392.221 354.514 391.791 355.015C391.316 355.569 391.038 356.293 391.07 357.07C391.098 357.806 391.133 358.533 391.175 359.268L391.267 361.019C391.381 363.33 391.501 365.725 391.712 368.091C391.828 369.416 391.993 370.729 392.151 372.05L392.348 373.695C392.622 376.05 392.908 378.481 393.284 380.885C393.522 382.406 393.809 383.93 394.078 385.398L394.281 386.468C394.696 388.734 395.144 391.146 395.683 393.544C396.083 395.322 396.53 397.089 396.96 398.8L397.043 399.148C397.514 401.027 398.166 403.509 398.892 406.027C399.461 407.99 400.093 409.942 400.624 411.582C401.413 414.01 402.164 416.208 402.927 418.298C403.566 420.057 404.268 421.897 405.014 423.761C405.286 424.443 405.573 425.123 405.866 425.795L406.333 426.894C406.681 427.732 407.397 428.372 408.267 428.617C409.144 428.869 410.083 428.712 410.822 428.187C415.188 425.107 419.88 421.661 425.16 417.638C425.334 417.511 425.486 417.365 425.623 417.205L425.637 417.204ZM629.442 179.332C629.578 179.173 629.7 179 629.798 178.808C632.99 172.904 635.684 167.732 638.016 163.014C638.422 162.203 638.426 161.245 638.051 160.423C637.668 159.594 636.934 158.991 636.052 158.775L634.916 158.487C634.185 158.295 633.455 158.117 632.719 157.946C630.784 157.499 628.888 157.099 627.08 156.735C624.876 156.294 622.567 155.883 620.019 155.476C618.223 155.189 616.293 154.891 614.329 154.63C611.722 154.292 609.135 154.037 607.177 153.847L606.749 153.809C605.042 153.65 603.263 153.481 601.502 153.369C599.015 153.212 596.541 153.133 594.224 153.07L593.044 153.033C591.572 152.983 590.102 152.948 588.627 152.947C586.151 152.946 583.67 153.045 581.273 153.137L579.646 153.191C578.344 153.235 577.042 153.278 575.744 153.364C573.303 153.523 570.84 153.783 568.477 154.036L566.873 154.202C566.211 154.267 565.549 154.332 564.882 154.419C564.117 154.513 563.437 154.892 562.961 155.446C562.532 155.947 562.263 156.599 562.239 157.303C562.197 158.781 563.233 160.078 564.686 160.349C585.176 164.149 605.772 170.805 625.913 180.114C627.149 180.686 628.59 180.341 629.443 179.346L629.442 179.332ZM713.062 201.092C713.59 200.477 713.847 199.67 713.771 198.867C713.695 198.065 713.297 197.315 712.669 196.803C693.166 181.034 671.206 169.284 647.411 161.887C646.249 161.523 645.009 161.909 644.247 162.797C644.085 162.987 643.945 163.196 643.829 163.439C641.053 169.121 638.03 174.998 634.826 180.918C634.441 181.629 634.356 182.465 634.6 183.24C634.837 184.009 635.382 184.648 636.099 185.026C655.521 194.943 674.184 207.266 691.573 221.645C692.838 222.689 694.698 222.532 695.765 221.287L713.07 201.098L713.062 201.092ZM477.204 476.25C478.272 475.005 478.143 473.143 476.917 472.052C460.117 457.125 445.094 440.586 432.287 422.891C431.811 422.233 431.097 421.805 430.293 421.683C429.497 421.567 428.683 421.778 428.033 422.261C422.712 426.301 417.36 430.195 412.137 433.844C411.929 433.995 411.736 434.159 411.573 434.349C410.811 435.237 410.619 436.521 411.157 437.615C422.074 459.959 437.02 479.83 455.6 496.691C456.202 497.233 456.997 497.52 457.808 497.464C458.613 497.417 459.371 497.039 459.899 496.424L477.197 476.244L477.204 476.25ZM688.319 229.958C688.84 229.351 689.104 228.551 689.028 227.748C688.96 226.952 688.569 226.209 687.948 225.689C670.818 211.546 652.426 199.429 633.28 189.682C632.025 189.041 630.526 189.376 629.647 190.401C629.524 190.545 629.409 190.71 629.316 190.881C619.987 207.356 609.328 224.324 597.627 241.295C596.701 242.635 597.019 244.462 598.334 245.418C612.885 256.007 627.521 267.512 641.841 279.602C643.1 280.668 644.982 280.517 646.056 279.264L688.325 229.951L688.319 229.958ZM526.913 418.259C527.987 417.006 527.849 415.123 526.603 414.042C512.482 401.767 498.896 389.067 486.19 376.293C485.045 375.14 483.185 375.113 482.001 376.232C466.92 390.477 451.79 403.626 437.029 415.3C436.875 415.418 436.73 415.557 436.606 415.701C435.721 416.733 435.633 418.265 436.458 419.407C449.046 436.836 463.818 453.146 480.367 467.858C480.969 468.401 481.756 468.666 482.567 468.611C483.364 468.557 484.116 468.187 484.643 467.572L526.913 418.259ZM638.61 287.95C639.131 287.342 639.389 286.549 639.321 285.753C639.253 284.957 638.876 284.213 638.262 283.7C624.124 271.752 609.663 260.397 595.291 249.935C594.645 249.46 593.836 249.267 593.037 249.399C592.337 249.51 591.698 249.871 591.242 250.402C591.184 250.471 591.125 250.539 591.074 250.614C577.494 269.714 562.644 288.806 546.93 307.369C545.864 308.628 546.015 310.51 547.268 311.584L585.952 344.742C587.212 345.823 589.102 345.677 590.182 344.417L638.589 287.944L638.61 287.95ZM582.765 353.1C583.845 351.84 583.7 349.951 582.44 348.87L543.756 315.712C542.503 314.638 540.62 314.776 539.539 316.022C523.487 334.518 506.898 352.12 490.224 368.345C490.166 368.413 490.1 368.475 490.041 368.543C489.585 369.075 489.326 369.761 489.324 370.471C489.322 371.272 489.636 372.042 490.198 372.616C502.75 385.232 516.182 397.773 530.12 409.892C530.728 410.413 531.514 410.678 532.311 410.624C533.109 410.57 533.853 410.194 534.373 409.586L582.787 353.106L582.765 353.1ZM552.724 543.354C552.874 543.18 553.001 542.986 553.119 542.771C555.42 538.289 557.95 533.57 560.629 528.74C561.04 527.999 561.12 527.107 560.846 526.305C560.571 525.503 559.96 524.848 559.176 524.519C533.196 513.51 508.419 498.331 485.539 479.403C484.274 478.359 482.414 478.516 481.347 479.761L463.996 500.003C463.469 500.618 463.212 501.425 463.288 502.227C463.364 503.03 463.762 503.779 464.39 504.291C489.192 524.326 518.746 538.174 549.864 544.34C550.944 544.555 552.035 544.159 552.724 543.354ZM565.961 519.231C566.078 519.094 566.186 518.937 566.281 518.781C575.17 503.417 585.269 487.563 596.302 471.665C596.755 471.013 596.926 470.199 596.788 469.408C596.642 468.625 596.191 467.922 595.533 467.476C575.328 453.648 555.053 438.165 535.264 421.439C534.004 420.373 532.122 420.525 531.049 421.778L488.779 471.091C488.258 471.698 487.994 472.498 488.069 473.301C488.138 474.097 488.528 474.84 489.15 475.36C511.946 494.202 536.64 509.231 562.528 520.055C563.751 520.564 565.129 520.217 565.962 519.245L565.961 519.231ZM602.701 462.57C602.76 462.502 602.818 462.434 602.869 462.359C616.099 443.867 630.572 425.308 645.895 407.201C646.961 405.941 646.81 404.06 645.557 402.986L591.111 356.317C589.851 355.236 587.961 355.382 586.881 356.642L538.481 413.107C537.96 413.714 537.702 414.507 537.77 415.303C537.839 416.1 538.215 416.844 538.829 417.357C558.504 433.985 578.665 449.37 598.728 463.103C600 463.97 601.705 463.732 602.695 462.578L602.701 462.57ZM701.444 347.42C702.427 346.274 702.408 344.545 701.357 343.42C684.701 325.666 666.4 308.095 646.967 291.2C646.359 290.68 645.573 290.414 644.776 290.468C643.978 290.522 643.234 290.899 642.714 291.506L594.313 347.971C593.233 349.232 593.378 351.121 594.639 352.201L649.092 398.877C650.344 399.951 652.227 399.813 653.309 398.567C668.808 380.716 684.943 363.582 701.255 347.626C701.313 347.558 701.379 347.496 701.438 347.428L701.444 347.42ZM751.844 302.467C752.677 301.496 752.815 300.074 752.119 298.95C737.409 274.961 718.759 252.851 696.69 233.222C696.089 232.694 695.295 232.422 694.491 232.469C693.693 232.524 692.935 232.901 692.414 233.509L650.145 282.822C649.071 284.074 649.209 285.957 650.455 287.039C669.995 304.025 688.411 321.707 705.189 339.579C705.73 340.162 706.494 340.5 707.29 340.524C708.086 340.548 708.865 340.254 709.446 339.698C723.371 326.465 737.502 314.066 751.44 302.846C751.58 302.729 751.719 302.598 751.836 302.461L751.844 302.467ZM773.646 285.713C774.336 284.908 774.561 283.771 774.183 282.736C763.345 252.925 745.133 225.816 721.51 204.329C720.908 203.786 720.113 203.5 719.301 203.555C718.49 203.611 717.738 203.98 717.211 204.595L699.861 224.837C698.793 226.082 698.922 227.944 700.148 229.034C722.321 248.726 741.126 270.903 756.032 294.954C756.477 295.679 757.211 296.175 758.052 296.331C758.886 296.479 759.75 296.271 760.425 295.744C764.775 292.36 769.053 289.151 773.13 286.193C773.325 286.057 773.497 285.888 773.646 285.713ZM681.573 507.879C681.651 507.788 681.729 507.697 681.792 507.592C691.322 493.371 702.05 479.135 713.685 465.269C714.737 464.011 714.585 462.129 713.34 461.061L654.256 410.416C653.648 409.895 652.863 409.643 652.059 409.705C651.27 409.766 650.54 410.141 650.025 410.741L650.012 410.756C634.845 428.681 620.533 447.022 607.476 465.267C607.002 465.927 606.817 466.757 606.971 467.561C607.118 468.358 607.591 469.066 608.271 469.518C632.633 485.58 656.12 498.744 678.073 508.659C679.3 509.21 680.728 508.88 681.587 507.878L681.573 507.879ZM758.293 418.421C759.152 417.419 759.26 415.957 758.527 414.829C745.364 394.629 728.757 373.439 709.174 351.832C708.624 351.229 707.859 350.877 707.041 350.848C706.223 350.818 705.439 351.134 704.859 351.703C688.686 367.528 672.742 384.47 657.471 402.055L657.458 402.071C656.943 402.67 656.684 403.449 656.745 404.239C656.799 405.036 657.176 405.78 657.783 406.301L716.867 456.946C718.113 458.014 719.989 457.883 721.078 456.644C732.97 443.077 745.406 430.306 758.05 418.674C758.136 418.589 758.222 418.505 758.3 418.414L758.293 418.421ZM666.563 531.812C666.68 531.676 666.782 531.526 666.877 531.37C669.42 527.004 672.242 522.376 675.505 517.232C675.974 516.501 676.097 515.605 675.848 514.773C675.6 513.941 675.009 513.263 674.215 512.898C652.392 502.925 629.085 489.796 604.96 473.871C603.69 473.033 602.008 473.29 601.038 474.421C600.973 474.497 600.908 474.573 600.852 474.67C590.266 489.923 580.512 505.19 571.859 520.033C571.414 520.797 571.33 521.726 571.628 522.561C571.926 523.396 572.587 524.054 573.412 524.367C598.237 533.528 623.818 538.61 647.384 539.067C647.711 539.071 648.034 539.032 648.345 538.93C651.053 538.076 653.713 537.169 656.267 536.25C656.267 536.25 656.778 536.083 656.916 536.029C659.668 535.016 662.538 533.881 665.457 532.642C665.89 532.46 666.265 532.176 666.564 531.827L666.563 531.812ZM779.645 399.95C779.944 399.601 780.16 399.18 780.274 398.724C781.028 395.709 781.7 392.742 782.269 389.897C782.398 389.27 782.505 388.638 782.606 388.013C782.674 387.611 782.743 387.209 782.819 386.813C783.178 384.842 783.549 382.842 783.849 380.847C783.902 380.524 783.892 380.198 783.838 379.876C779.702 356.245 771.025 332.41 758.043 309.033C757.615 308.257 756.857 307.713 755.992 307.538C755.121 307.371 754.223 307.589 753.529 308.153C740.063 319.054 726.473 331.02 713.11 343.721C713.037 343.791 712.958 343.868 712.893 343.944C711.923 345.075 711.927 346.777 712.949 347.904C732.345 369.284 748.874 390.288 762.075 410.336C762.549 411.059 763.317 411.546 764.177 411.664C765.038 411.782 765.904 411.524 766.555 410.949C770.735 407.302 774.999 403.726 779.234 400.322C779.374 400.205 779.512 400.074 779.63 399.937L779.645 399.95ZM613.872 545.666C614.301 545.165 614.57 544.513 614.594 543.809C614.643 542.323 613.601 541.034 612.147 540.763C598.16 538.151 583.892 534.114 569.744 528.769C568.539 528.316 567.212 528.68 566.405 529.622C566.275 529.774 566.16 529.939 566.06 530.117C563.517 534.667 561.472 538.419 559.629 541.937C559.178 542.801 559.173 543.837 559.615 544.704C560.065 545.577 560.905 546.165 561.88 546.303C562.102 546.335 562.325 546.368 562.547 546.4C562.877 546.446 563.208 546.506 563.544 546.544C565.549 546.801 567.557 546.994 569.429 547.176C571.022 547.33 572.908 547.497 574.84 547.639C576.658 547.762 578.567 547.87 580.693 547.941C582.543 548.011 584.397 548.06 586.2 548.078C588.315 548.099 590.215 548.095 591.993 548.065C593.608 548.04 595.334 547.978 597.567 547.877C599.39 547.794 601.327 547.701 603.28 547.558C605.24 547.408 607.203 547.207 608.948 547.03C609.947 546.925 610.946 546.82 611.944 546.701C612.718 546.613 613.39 546.228 613.865 545.673L613.872 545.666ZM785.275 345.81C785.75 345.255 786.02 344.525 785.996 343.754C785.976 343.302 785.914 341.945 785.914 341.945C785.785 338.976 785.642 336.562 785.457 334.349C785.372 333.235 785.251 332.131 785.138 331.019L785.066 330.365C784.788 327.677 784.503 325.26 784.179 322.98C783.99 321.633 783.781 320.294 783.572 318.956C783.188 316.546 782.743 314.083 782.258 311.653C781.994 310.333 781.722 309.02 781.437 307.709C780.928 305.429 780.354 303.026 779.661 300.378L779.508 299.773C779.235 298.723 778.963 297.673 778.67 296.631C778.542 296.166 778.394 295.709 778.253 295.259C778.151 294.948 778.055 294.629 777.96 294.31C777.682 293.374 776.965 292.628 776.034 292.317C775.102 292.005 774.086 292.161 773.294 292.747C770.133 295.082 766.643 297.741 762.615 300.887C762.455 301.013 762.309 301.152 762.186 301.296C761.379 302.238 761.221 303.604 761.854 304.726C769.292 317.898 775.451 331.395 780.173 344.847C780.663 346.242 782.104 347.082 783.557 346.8C784.249 346.669 784.846 346.311 785.282 345.802L785.275 345.81ZM734.781 483.404C735.289 482.812 735.549 482.048 735.496 481.264C735.448 480.46 735.071 479.701 734.456 479.174L722.012 468.508C721.404 467.987 720.611 467.729 719.815 467.797C719.026 467.858 718.296 468.233 717.782 468.833L717.762 468.856C706.778 481.963 696.592 495.412 687.505 508.841C686.995 509.589 686.854 510.522 687.112 511.389C687.37 512.255 688.006 512.958 688.834 513.299C689.507 513.573 690.174 513.855 690.835 514.145C692.103 514.679 693.401 515.238 694.702 515.734C695.601 516.083 696.62 515.969 697.431 515.439L697.876 515.149C698.599 514.675 699.321 514.201 700.035 513.707L700.406 513.459C700.823 513.171 701.241 512.884 701.659 512.596C702.992 511.671 704.395 510.648 705.959 509.5L706.435 509.144C706.751 508.914 707.067 508.684 707.381 508.44C708.695 507.445 710.073 506.375 711.704 505.072C711.704 505.072 712.72 504.271 712.974 504.067C714.275 503.009 715.647 501.854 717.291 500.444L717.743 500.055C717.976 499.859 718.209 499.664 718.435 499.462C719.704 498.351 721.063 497.119 722.718 495.587L723.136 495.207C723.335 495.022 723.541 494.843 723.739 494.658C725.061 493.407 726.448 492.066 728.088 490.43C728.088 490.43 728.715 489.821 728.859 489.668C730.406 488.11 731.993 486.441 733.572 484.739L733.795 484.509C733.971 484.304 734.154 484.105 734.344 483.899C734.468 483.755 734.762 483.427 734.781 483.404ZM743.142 473.62C743.317 473.415 743.471 473.205 743.632 472.987L743.98 472.534C744.942 471.304 746.221 469.674 747.461 467.997C747.731 467.636 747.987 467.276 748.249 466.908L748.737 466.233C749.699 464.91 750.653 463.582 751.585 462.233C751.884 461.792 752.184 461.351 752.475 460.903L752.965 460.163C753.817 458.892 754.67 457.62 755.492 456.323C755.814 455.809 756.136 455.295 756.451 454.774L756.886 454.067C757.661 452.809 758.43 451.558 759.177 450.288C759.521 449.702 759.865 449.101 760.195 448.501L760.544 447.878C761.25 446.64 761.949 445.394 762.632 444.136C763.011 443.433 763.375 442.732 763.746 442.022L763.981 441.565C764.617 440.345 765.24 439.127 765.847 437.896C766.282 437.005 766.71 436.107 767.131 435.216C767.484 434.466 767.801 433.789 768.104 433.113L768.183 432.944C768.583 432.062 768.54 431.037 768.057 430.202C767.043 428.45 765.958 426.612 764.82 424.727C764.35 423.955 763.566 423.441 762.67 423.318C761.774 423.196 760.873 423.478 760.218 424.089C748.217 435.231 736.455 447.355 725.247 460.139L725.228 460.161C724.714 460.761 724.454 461.54 724.515 462.33C724.569 463.127 724.946 463.871 725.553 464.391L737.99 475.052C738.605 475.579 739.412 475.836 740.214 475.76C740.989 475.686 741.712 475.319 742.22 474.726C742.239 474.704 743.018 473.764 743.134 473.613L743.142 473.62ZM685.958 522.293C686.453 521.716 686.721 520.958 686.675 520.181C686.615 519.037 685.9 518.028 684.844 517.584L684.683 517.512C683.466 516.995 682.074 517.343 681.234 518.323C681.143 518.429 681.052 518.535 680.984 518.661L680.806 518.93C680.073 520.093 680.217 521.6 681.166 522.597C682.108 523.589 683.608 523.821 684.805 523.162L685.138 522.973C685.45 522.793 685.731 522.573 685.959 522.307L685.958 522.293ZM773.194 420.552C773.415 420.294 773.598 419.989 773.721 419.66L773.856 419.288C774.331 417.996 773.872 416.549 772.734 415.772C771.596 414.994 770.079 415.089 769.05 415.998L768.831 416.192C768.724 416.286 768.626 416.385 768.534 416.492C767.695 417.471 767.571 418.906 768.268 420.03C768.268 420.03 768.349 420.165 768.356 420.172C768.956 421.147 770.055 421.694 771.195 421.578C771.984 421.503 772.692 421.122 773.186 420.545L773.194 420.552Z" fill="#E5D9C3"/>
</g>
<g clip-path="url(#clip1_320_39)">
<path d="M190 402.457C190 402.457 120.384 272.342 116.059 237.404C111.734 202.466 118.362 185.945 111.892 168.386C108.965 160.452 85.8329 145.669 85.8329 145.669C85.8329 145.669 72.3442 95.7962 55.5587 58.9688C47.9508 42.269 34.1399 34.3828 40.1509 63.3378C46.1619 92.2927 51.3161 125.603 51.3161 125.603C47.6972 119.029 37.0392 119.75 33.2626 121.495C28.4854 123.7 22.7006 131.49 27.1283 138.758C19.6094 135.213 6.12759 144.92 12.2345 162.217C6.81984 159.037 -4.22882 170.529 1.70675 184.619C3.40655 188.665 7.094 191.207 10.9391 202.555C14.7842 213.903 21.6725 235.639 33.009 246.101C44.3455 256.563 49.5066 257.284 52.9473 268.77C56.388 280.249 90.0344 417.014 90.0344 417.014L190 402.471V402.457Z" fill="#F9B75D"/>
<path d="M83.1186 144.768C80.6854 143.202 77.56 142.22 70.3359 144.205C64.7019 145.751 40.7882 150.491 40.9664 153.136C41.9329 167.507 60.7334 164.12 70.1714 163.206C72.255 174.404 85.2296 184.151 85.2296 184.151" stroke="#4B4B4B" stroke-width="1.34" stroke-linecap="round" stroke-linejoin="round"/>
<path d="M52.5018 127.897C55.6273 134.134 58.5745 140.029 61.6999 146.266" stroke="#4B4B4B" stroke-width="1.34" stroke-linecap="round" stroke-linejoin="round"/>
<path d="M57.8205 186.082C58.787 187.772 58.8829 189.935 58.0673 191.701C57.2517 193.466 55.5519 194.799 53.6396 195.156C51.9535 195.472 50.1989 195.06 48.6567 194.311C47.1146 193.563 45.7575 192.484 44.4347 191.392C34.8459 183.512 26.1756 174.507 18.6636 164.621" stroke="#4B4B4B" stroke-width="1.34" stroke-linecap="round" stroke-linejoin="round"/>
<path d="M40.2811 192.422C41.5011 194.181 42.7485 195.987 43.2832 198.069C43.8178 200.144 43.5162 202.575 41.9672 204.059C40.7335 205.241 38.9103 205.632 37.2174 205.467C35.5244 205.296 33.9206 204.622 32.3784 203.901C22.0083 199.051 12.8445 191.618 5.9425 182.461" stroke="#4B4B4B" stroke-width="1.34" stroke-linecap="round" stroke-linejoin="round"/>
<path d="M13.9411 191.344C12.3578 191.79 10.6992 192.01 9.0542 191.983" stroke="#4B4B4B" stroke-width="1.34" stroke-linecap="round" stroke-linejoin="round"/>
<path d="M21.3092 197.581C18.828 198.797 16.5319 200.384 14.5168 202.28" stroke="#4B4B4B" stroke-width="1.34" stroke-linecap="round" stroke-linejoin="round"/>
<path d="M68.1016 165.872C69.7671 169.698 70.6513 173.861 70.6787 178.038C70.6855 179.535 70.5622 181.115 69.7191 182.345C68.4443 184.199 65.8123 184.715 63.6465 184.117C61.4806 183.513 59.678 182.029 58.0125 180.504C46.299 169.774 38.1907 155.753 30.2743 141.966" stroke="#4B4B4B" stroke-width="1.34" stroke-linecap="round" stroke-linejoin="round"/>
<path d="M35.449 188.342C34.4758 191.577 32.1385 194.387 29.1365 195.926" stroke="#4B4B4B" stroke-width="1.34" stroke-linecap="round" stroke-linejoin="round"/>
<path d="M50.24 178.23C49.1228 181.534 46.484 184.289 43.2352 185.546" stroke="#4B4B4B" stroke-width="1.34" stroke-linecap="round" stroke-linejoin="round"/>
<path d="M57.1008 165.521C55.6546 167.829 53.2077 169.478 50.5278 169.952" stroke="#4B4B4B" stroke-width="1.34" stroke-linecap="round" stroke-linejoin="round"/>
<path d="M42.7279 198.983C42.3852 198.488 42.0357 197.987 41.5764 197.602C41.1172 197.217 40.5278 196.949 39.9315 197.004C39.2735 197.066 38.7115 197.499 38.1974 197.911C37.4572 198.502 36.717 199.099 35.9767 199.697C35.5792 200.013 35.1748 200.343 34.9281 200.789C34.4757 201.621 34.7361 202.768 35.5106 203.317" stroke="#4B4B4B" stroke-width="1.34" stroke-linecap="round" stroke-linejoin="round"/>
<path d="M57.6012 189.077C57.0597 187.895 56.3949 186.59 55.1612 186.171C54.4278 185.917 53.6053 186.04 52.8925 186.343C52.1797 186.645 51.5491 187.119 50.9254 187.579C49.959 188.301 48.9035 189.187 48.8555 190.396C48.8281 191.014 49.0885 191.625 49.4655 192.12C49.8356 192.615 50.3223 193.02 50.7952 193.418" stroke="#4B4B4B" stroke-width="1.34" stroke-linecap="round" stroke-linejoin="round"/>
<path d="M69.6917 179.054C69.486 178.58 69.4997 178.038 69.4518 177.522C69.4038 177.007 69.2599 176.444 68.8349 176.142C68.1906 175.674 67.2996 176.032 66.6074 176.41C65.3805 177.083 64.1879 177.825 63.0364 178.622C62.5155 178.986 61.9535 179.439 61.9055 180.078C61.8712 180.579 62.1865 181.046 62.5978 181.335C63.009 181.623 63.5025 181.761 63.9823 181.891" stroke="#4B4B4B" stroke-width="1.34" stroke-linecap="round" stroke-linejoin="round"/>
<path d="M54.037 149.962C54.4072 150.704 54.7773 151.473 54.8458 152.304C54.9144 153.136 54.6128 154.049 53.9 154.468C53.2694 154.839 52.4812 154.764 51.7547 154.674C49.0542 154.338 46.3468 154.001 43.6464 153.671" stroke="#4B4B4B" stroke-width="1.34" stroke-linecap="round" stroke-linejoin="round"/>
<path d="M74.1193 179.604C67.5737 185.917 64.3866 195.129 63.8383 204.217C63.2968 213.306 65.1611 222.36 67.4709 231.166" stroke="#4B4B4B" stroke-width="1.34" stroke-linecap="round" stroke-linejoin="round"/>
<path d="M94.743 240.591C83.9 243.689 73.3379 247.777 63.2283 252.785" stroke="#4B4B4B" stroke-width="1.34" stroke-linecap="round" stroke-linejoin="round"/>
<path d="M85.5861 247.097C81.7205 248.56 77.8548 250.03 73.9891 251.493" stroke="#4B4B4B" stroke-width="1.34" stroke-linecap="round" stroke-linejoin="round"/>
<path d="M76.6142 131.359C71.0419 131.394 65.4764 132.424 60.2605 134.382" stroke="#4B4B4B" stroke-width="1.34" stroke-linecap="round" stroke-linejoin="round"/>
<path d="M67.1557 102.466C62.5498 102.157 57.8617 103.27 53.8932 105.619" stroke="#4B4B4B" stroke-width="1.34" stroke-linecap="round" stroke-linejoin="round"/>
<path d="M57.3682 69.7537C53.7082 69.8704 50.0755 70.7841 46.7993 72.4259" stroke="#4B4B4B" stroke-width="1.34" stroke-linecap="round" stroke-linejoin="round"/>
</g>
<g clip-path="url(#clip2_320_39)">
<path d="M260 407.195C260 407.195 311.542 238.495 310.914 194.716C310.286 150.938 308.045 137.882 310.488 118.673C312.932 99.4647 321.323 73.6347 322.361 45.9555C323.392 18.2763 317.4 2.8261 321.621 0.432501C325.836 -1.96109 333.599 5.57015 336.535 24.2715C339.472 42.9729 345.278 89.8083 345.278 89.8083C367.933 57.7371 379.611 11.4013 386.523 9.34324C394.436 6.98692 390.371 42.0408 379.858 69.5112C369.345 96.9816 366.095 107.771 366.095 107.771C366.095 107.771 382.809 97.1904 389.729 98.0778C396.648 98.9651 403.096 111.552 403.096 111.552C403.096 111.552 420.453 143.862 391.552 173.621C397.776 207.437 373.933 237.48 373.933 237.48C373.933 237.48 362.762 380.164 364.421 417.015L260 407.195Z" fill="#FF5A2A"/>
<path d="M330.67 112.581C352.398 129.672 360.289 128.203 365.049 127.494C369.808 126.786 381.293 107.861 388.219 106.832C395.146 105.803 412.025 109.181 414.939 113.901C417.853 118.621 408.819 126.294 395.661 127.069C393.704 134.72 391.724 145.174 389.198 150.99C391.335 167.306 392.545 197.155 370.653 221.463L330.662 112.581H330.67Z" fill="#FF5A2A"/>
<path d="M330.67 112.581C352.398 129.672 360.289 128.203 365.048 127.494C369.808 126.786 381.293 107.861 388.219 106.832C395.146 105.803 412.025 109.181 414.939 113.901C417.853 118.621 408.819 126.294 395.661 127.069C393.704 134.72 391.723 145.174 389.198 150.99C391.335 167.306 392.545 197.155 370.652 221.463" stroke="#4B4B4B" stroke-width="1.34" stroke-linecap="round" stroke-linejoin="round"/>
<path d="M330.401 96.5715C335.564 98.9129 340.727 101.254 345.89 103.596C352.055 106.392 358.436 109.352 362.785 114.527" stroke="#4B4B4B" stroke-width="1.34" stroke-linecap="round" stroke-linejoin="round"/>
<path d="M329.288 66.7C332.941 67.0131 336.528 68.1242 339.718 69.9287" stroke="#4B4B4B" stroke-width="1.34" stroke-linecap="round" stroke-linejoin="round"/>
<path d="M327.577 31.4597C330.139 31.4895 332.695 32.2278 334.877 33.57" stroke="#4B4B4B" stroke-width="1.34" stroke-linecap="round" stroke-linejoin="round"/>
<path d="M361.708 76.6995C365.519 77.9298 368.949 80.301 371.437 83.4254" stroke="#4B4B4B" stroke-width="1.34" stroke-linecap="round" stroke-linejoin="round"/>
<path d="M377.168 36.1201C379.529 37.9843 381.621 40.1915 383.347 42.6522" stroke="#4B4B4B" stroke-width="1.34" stroke-linecap="round" stroke-linejoin="round"/>
<path d="M401.474 109.591C402.692 111.023 403.91 112.447 405.121 113.878C405.651 114.497 406.189 115.131 406.892 115.549C408.64 116.6 410.867 116.1 412.839 115.564" stroke="#4B4B4B" stroke-width="1.34" stroke-linecap="round" stroke-linejoin="round"/>
<path d="M399.905 139.082C401.975 141.826 403.425 145.025 404.119 148.388" stroke="#4B4B4B" stroke-width="1.34" stroke-linecap="round" stroke-linejoin="round"/>
<path d="M368.321 119.605C369.188 120.59 370.055 121.574 370.929 122.551" stroke="#4B4B4B" stroke-width="1.34" stroke-linecap="round" stroke-linejoin="round"/>
</g>
<defs>
<clipPath id="clip0_320_39">
<rect width="406.15" height="406.08" fill="white" transform="translate(874.861 328.48) rotate(130.602)"/>
</clipPath>
<clipPath id="clip1_320_39">
<rect width="190" height="373" fill="white" transform="translate(0 44)"/>
</clipPath>
<clipPath id="clip2_320_39">
<rect width="156" height="417" fill="white" transform="translate(260)"/>
</clipPath>
</defs>
</svg>
