<svg width="190" height="357" viewBox="0 0 190 357" fill="none" xmlns="http://www.w3.org/2000/svg">
<g clip-path="url(#clip0_47_8)">
<path d="M190 358.457C190 358.457 120.384 228.342 116.059 193.404C111.734 158.466 118.362 141.945 111.892 124.386C108.965 116.452 85.8329 101.669 85.8329 101.669C85.8329 101.669 72.3442 51.7962 55.5587 14.9688C47.9508 -1.73097 34.1399 -9.61716 40.1509 19.3378C46.1619 48.2927 51.3161 81.6029 51.3161 81.6029C47.6972 75.0288 37.0392 75.7501 33.2626 77.4949C28.4854 79.7001 22.7006 87.4901 27.1283 94.758C19.6094 91.2133 6.12759 100.92 12.2345 118.217C6.81984 115.037 -4.22882 126.529 1.70675 140.619C3.40655 144.665 7.094 147.207 10.9391 158.555C14.7842 169.903 21.6725 191.639 33.009 202.101C44.3455 212.563 49.5066 213.284 52.9473 224.77C56.388 236.249 90.0344 373.014 90.0344 373.014L190 358.471V358.457Z" fill="#F9B75D"/>
<path d="M83.1186 100.768C80.6854 99.2022 77.56 98.2199 70.3359 100.205C64.7019 101.751 40.7882 106.491 40.9664 109.136C41.9329 123.507 60.7334 120.12 70.1714 119.206C72.255 130.404 85.2296 140.151 85.2296 140.151" stroke="#4B4B4B" stroke-width="1.34" stroke-linecap="round" stroke-linejoin="round"/>
<path d="M52.5018 83.897C55.6273 90.1345 58.5745 96.0285 61.6999 102.266" stroke="#4B4B4B" stroke-width="1.34" stroke-linecap="round" stroke-linejoin="round"/>
<path d="M57.8205 142.082C58.787 143.772 58.8829 145.935 58.0673 147.701C57.2517 149.466 55.5519 150.799 53.6396 151.156C51.9535 151.472 50.1989 151.06 48.6567 150.311C47.1146 149.563 45.7575 148.484 44.4347 147.392C34.8459 139.512 26.1756 130.507 18.6636 120.621" stroke="#4B4B4B" stroke-width="1.34" stroke-linecap="round" stroke-linejoin="round"/>
<path d="M40.2811 148.422C41.5011 150.181 42.7485 151.987 43.2832 154.069C43.8178 156.144 43.5162 158.575 41.9672 160.059C40.7335 161.241 38.9103 161.632 37.2174 161.467C35.5244 161.296 33.9206 160.622 32.3784 159.901C22.0083 155.051 12.8445 147.618 5.9425 138.461" stroke="#4B4B4B" stroke-width="1.34" stroke-linecap="round" stroke-linejoin="round"/>
<path d="M13.9411 147.344C12.3578 147.79 10.6992 148.01 9.0542 147.983" stroke="#4B4B4B" stroke-width="1.34" stroke-linecap="round" stroke-linejoin="round"/>
<path d="M21.3092 153.581C18.828 154.797 16.5319 156.384 14.5168 158.28" stroke="#4B4B4B" stroke-width="1.34" stroke-linecap="round" stroke-linejoin="round"/>
<path d="M68.1016 121.872C69.7671 125.698 70.6513 129.861 70.6787 134.038C70.6855 135.535 70.5622 137.115 69.7191 138.345C68.4443 140.199 65.8123 140.715 63.6465 140.117C61.4806 139.513 59.678 138.029 58.0125 136.504C46.299 125.774 38.1907 111.753 30.2743 97.9658" stroke="#4B4B4B" stroke-width="1.34" stroke-linecap="round" stroke-linejoin="round"/>
<path d="M35.449 144.342C34.4758 147.577 32.1385 150.387 29.1365 151.926" stroke="#4B4B4B" stroke-width="1.34" stroke-linecap="round" stroke-linejoin="round"/>
<path d="M50.24 134.23C49.1228 137.534 46.484 140.289 43.2352 141.546" stroke="#4B4B4B" stroke-width="1.34" stroke-linecap="round" stroke-linejoin="round"/>
<path d="M57.1008 121.521C55.6546 123.829 53.2077 125.478 50.5278 125.952" stroke="#4B4B4B" stroke-width="1.34" stroke-linecap="round" stroke-linejoin="round"/>
<path d="M42.7279 154.983C42.3852 154.488 42.0357 153.987 41.5764 153.602C41.1172 153.217 40.5278 152.949 39.9315 153.004C39.2735 153.066 38.7115 153.499 38.1974 153.911C37.4572 154.502 36.717 155.099 35.9767 155.697C35.5792 156.013 35.1748 156.343 34.9281 156.789C34.4757 157.621 34.7361 158.768 35.5106 159.317" stroke="#4B4B4B" stroke-width="1.34" stroke-linecap="round" stroke-linejoin="round"/>
<path d="M57.6012 145.077C57.0597 143.895 56.3949 142.59 55.1612 142.171C54.4278 141.917 53.6053 142.04 52.8925 142.343C52.1797 142.645 51.5491 143.119 50.9254 143.579C49.959 144.301 48.9035 145.187 48.8555 146.396C48.8281 147.014 49.0885 147.625 49.4655 148.12C49.8356 148.615 50.3223 149.02 50.7952 149.418" stroke="#4B4B4B" stroke-width="1.34" stroke-linecap="round" stroke-linejoin="round"/>
<path d="M69.6917 135.054C69.486 134.58 69.4997 134.038 69.4518 133.522C69.4038 133.007 69.2599 132.444 68.8349 132.142C68.1906 131.674 67.2996 132.032 66.6074 132.41C65.3805 133.083 64.1879 133.825 63.0364 134.622C62.5155 134.986 61.9535 135.439 61.9055 136.078C61.8712 136.579 62.1865 137.046 62.5978 137.335C63.009 137.623 63.5025 137.761 63.9823 137.891" stroke="#4B4B4B" stroke-width="1.34" stroke-linecap="round" stroke-linejoin="round"/>
<path d="M54.037 105.962C54.4072 106.704 54.7773 107.473 54.8458 108.304C54.9144 109.136 54.6128 110.049 53.9 110.468C53.2694 110.839 52.4812 110.764 51.7547 110.674C49.0542 110.338 46.3468 110.001 43.6464 109.671" stroke="#4B4B4B" stroke-width="1.34" stroke-linecap="round" stroke-linejoin="round"/>
<path d="M74.1193 135.604C67.5737 141.917 64.3866 151.129 63.8383 160.217C63.2968 169.306 65.1611 178.36 67.4709 187.166" stroke="#4B4B4B" stroke-width="1.34" stroke-linecap="round" stroke-linejoin="round"/>
<path d="M94.743 196.591C83.9 199.689 73.3379 203.777 63.2283 208.785" stroke="#4B4B4B" stroke-width="1.34" stroke-linecap="round" stroke-linejoin="round"/>
<path d="M85.5861 203.097C81.7205 204.56 77.8548 206.03 73.9891 207.493" stroke="#4B4B4B" stroke-width="1.34" stroke-linecap="round" stroke-linejoin="round"/>
<path d="M76.6142 87.3594C71.0419 87.3937 65.4764 88.4242 60.2605 90.382" stroke="#4B4B4B" stroke-width="1.34" stroke-linecap="round" stroke-linejoin="round"/>
<path d="M67.1557 58.4662C62.5498 58.157 57.8617 59.2699 53.8932 61.6193" stroke="#4B4B4B" stroke-width="1.34" stroke-linecap="round" stroke-linejoin="round"/>
<path d="M57.3682 25.7537C53.7082 25.8704 50.0755 26.7841 46.7993 28.4259" stroke="#4B4B4B" stroke-width="1.34" stroke-linecap="round" stroke-linejoin="round"/>
</g>
<defs>
<clipPath id="clip0_47_8">
<rect width="190" height="373" fill="white"/>
</clipPath>
</defs>
</svg>
