<svg width="389" height="359" viewBox="0 0 389 359" fill="none" xmlns="http://www.w3.org/2000/svg">
<g clip-path="url(#clip0_47_151)">
<path d="M150.027 170.825C148.623 171.641 147.219 172.457 145.815 173.273C145.187 173.639 144.805 174.319 144.82 175.045V175.056C144.994 182.544 144.537 189.791 143.587 196.765C143.496 197.426 143.08 197.996 142.478 198.287C139.822 199.58 132.693 203.059 127.051 205.915C116.555 211.231 119.14 210.173 113.369 212.999C106.948 216.146 104.64 217.019 101.374 219.577C98.7636 221.625 96.796 223.763 95.3695 225.569C94.416 226.778 92.9554 227.465 91.4154 227.484C88.2446 227.526 84.3245 227.813 79.9202 228.682C76.7115 229.317 72.1066 230.257 67.0816 232.728C60.4978 235.97 56.6383 240.145 52.8923 244.199C49.169 248.23 42.4603 256.428 38.1959 268.488C36.7845 272.477 35.4186 276.441 35.1537 281.983C34.8586 288.164 36.0808 293.298 37.2537 296.778C37.4921 297.484 37.1894 298.259 36.5272 298.61C33.9088 300.008 30.598 301.999 27.045 304.753C22.7503 308.082 16.7643 312.82 12.3486 320.946C11.1264 323.194 8.81829 327.441 7.66801 333.259C7.21773 335.533 7.14205 337.064 6.26421 340.513C5.8442 342.16 5.12149 344.975 3.72904 348.439C2.15497 352.361 1.40577 352.939 0.686847 355.693C0.0398131 358.179 -0.0320796 360.329 0.00954252 361.765C125.617 361.406 251.225 361.051 376.829 360.692C379.467 360.684 381.378 358.266 380.878 355.678C380.874 355.652 380.871 355.629 380.863 355.603C380.428 353.105 382.494 351.205 384.31 348.194C386.433 344.676 386.962 341.529 388.022 335.227C388.487 332.454 390.061 321.725 386.047 308.766C384.934 305.177 382.993 300.125 379.501 294.583C379.032 293.839 378.91 292.924 379.175 292.086C380.227 288.727 381.461 284.235 382.46 278.866C383.954 270.823 384.825 266.16 383.784 260.078C382.755 254.044 380.375 249.715 378.218 245.789C375.376 240.617 372.455 237.126 369.738 233.881C367.805 231.568 364.914 228.153 360.464 224.356C357.819 222.101 355.519 220.136 351.985 218.27C348.034 216.18 344.739 215.402 341.118 214.563C335.631 213.29 331.299 213.045 325.483 212.712C321.627 212.493 318.426 212.448 316.209 212.448C313.518 210.468 309.928 207.903 305.606 205.039C297.687 199.784 291.413 196.232 289.177 194.982C281.171 190.508 276.482 187.89 269.565 185.457C265.256 183.938 261.453 182.979 258.528 182.355C257.556 182.147 256.882 181.271 256.931 180.277C257.086 177.077 257.234 173.862 257.378 170.636C257.548 166.79 257.703 162.962 257.851 159.154C257.885 158.244 257.404 157.394 256.606 156.952C254.937 156.026 253.265 155.104 251.596 154.178C251.85 155.229 252.088 156.336 252.307 157.492C252.508 158.565 252.678 159.604 252.814 160.601C252.376 161.655 251.785 162.407 251.123 162.951C250.465 163.495 250.17 163.469 248.951 164.236C247.729 165.006 247.57 165.316 246.594 165.962C245.504 166.684 244.607 167.02 243.525 167.428C237.149 169.85 236.941 170.145 233.169 171.342C232.34 171.607 231.065 172.022 229.34 172.479C227.504 172.967 225.439 173.401 221.314 174.278C216.902 175.211 213.232 175.91 210.663 176.375C208.275 178.256 205.887 180.134 203.5 182.015L163.554 183.043C161.204 182.249 158.31 180.912 155.529 178.623C154.049 177.406 152.138 175.8 150.837 173.016C150.428 172.139 150.182 171.369 150.031 170.821L150.027 170.825Z" fill="#FF5A2A" stroke="black" stroke-width="0.75" stroke-miterlimit="10"/>
<path opacity="0.4" d="M3.29017 351.02C3.98639 350.098 5.18965 348.983 12.1481 347.143C17.1503 345.821 19.6514 345.16 21.899 345.156C21.899 345.156 28.1083 345.141 34.2229 348.458C35.57 349.187 36.6824 349.807 37.8214 351.02C39.0965 352.376 39.1911 353.196 40.9052 355.293C42.3657 357.076 43.0922 357.458 42.9522 357.73C42.5511 358.519 36.5689 354.983 28.2672 353.902C25.9629 353.604 21.3239 353.037 15.7844 354.235C7.75887 355.969 4.2664 360.012 2.3934 358.474C0.902575 357.254 1.5042 353.381 3.29017 351.02Z" fill="#820000"/>
<path opacity="0.5" d="M214.36 183.451C214.151 186.587 212.403 212.739 196.719 218.712C191.112 220.85 187.93 218.802 180.366 222.652C175.488 225.134 174.86 226.978 171.636 227.235C165.741 227.703 164.477 221.802 156.365 219.044C149.599 216.743 143.121 218.349 137.404 219.766C137.404 219.766 130.045 221.587 124.388 225.097C105.173 237.016 105.968 277.211 114.769 303.261C117.573 311.558 120.509 315.929 124.88 317.565C133.336 320.731 138.577 310.439 153.527 307.47C163.04 305.581 173.63 308.732 194.812 315.041C206.069 318.392 207.39 319.673 215.033 320.931C217.882 321.4 218.397 321.335 242.837 321.774C252.576 321.947 253.034 320.251 262.217 320.092C269.27 319.968 270.969 320.485 274.462 319.137C275.801 318.619 279.642 315.479 287.266 309.223C290.044 306.945 291.44 305.77 291.803 304.039C292.427 301.074 290.104 299.332 287.705 294.828C285.859 291.364 285.022 287.14 283.346 278.696C282.741 275.651 281.95 271.654 281.519 266.825C281.031 261.355 280.868 253.281 282.722 243.345C288.519 238.622 293.298 237.662 296.506 237.613C310.885 237.387 314.548 255.06 332.998 258.249C339.275 259.333 341.038 257.667 352.912 259.352C363.34 260.833 367.317 262.877 369.897 264.634C373.882 267.347 377.711 271.533 378.491 272.391C380.326 274.397 381.729 276.206 382.71 277.551C382.354 279.467 381.786 282.376 380.969 285.92C380.091 289.724 379.641 291.636 379.179 292.101C376.084 295.202 369.512 289.913 355.171 288.179C352.715 287.881 348.118 287.325 342.132 287.609C338.477 287.779 336.649 288.153 330.894 288.398C327.152 288.557 327.288 288.425 322.963 288.564C315.414 288.802 311.57 288.946 308.191 290.102C304.309 291.428 301.724 292.312 300.324 294.504C295.224 302.49 313.719 315.427 310.094 330.75C308.164 338.907 301.176 342.349 302.844 344.82C305.205 348.315 316.5 340.581 333.637 342.534C344.065 343.721 353.165 348.099 352.923 349.225C352.851 349.558 351.989 349.512 344.758 349.762C337.746 350.003 337.508 350.083 335.904 349.969C331.666 349.667 331.132 348.957 327.182 348.692C324.526 348.515 322.592 348.719 318.721 349.131C312.402 349.803 309.099 350.155 304.914 351.605C300.816 353.026 301.096 353.691 295.814 355.535C293.566 356.32 291.743 356.819 289.018 358.202C286.911 359.275 286.638 359.668 285.265 360.219C285.265 360.219 281.95 361.553 277.546 360.983C270.273 360.038 267.269 354.031 262.509 349.924C255.312 343.713 251.18 347.635 225.318 343.139C207.602 340.06 204.192 337.411 197.907 340.056C188.8 343.891 184.66 354.28 182.723 361.251C178.258 361.262 173.793 361.277 169.328 361.289C165.73 339.228 159.819 333.372 155.01 332.194C151.915 331.434 150.712 332.964 139.36 335.889C126.125 339.3 125.58 337.781 118.326 340.426C112.423 342.58 107.754 345.685 98.4155 351.896C86.6176 359.743 83.0911 363.465 81.0629 362.188C77.8505 360.163 86.2581 348.976 81.6078 337.166C78.9099 330.316 75.1412 331.699 71.819 323.111C70.4001 319.446 69.0379 313.896 66.0601 307.349C65.5682 306.265 64.5692 304.141 62.4616 302.131C60.5054 300.265 58.5302 299.392 57.3535 298.886C53.4637 297.209 49.8918 297.092 48.068 297.148C41.0944 297.36 36.0089 300.786 35.5322 299.929C35.2749 299.472 36.8489 298.701 37.2727 296.785C37.7079 294.821 36.5954 293.204 35.9446 291.848C34.8284 289.524 34.9457 287.012 35.1727 281.991C35.4754 275.424 38.037 269.791 40.4057 264.691C43.3722 258.31 47.4928 249.658 56.1843 241.395C58.5075 239.189 61.4589 236.416 66.0828 233.816C68.7655 232.305 74.5774 229.109 82.497 228.24C88.1765 227.617 89.7317 228.761 93.4133 227.076C96.7317 225.558 97.3977 223.748 101.155 220.48C103.645 218.311 106.642 216.664 112.639 213.369C119.597 209.546 127.543 205.783 130.256 204.499C132.636 203.373 134.824 201.85 137.26 200.853C140.159 199.666 142.826 198.945 143.602 196.769C143.704 196.478 143.708 196.353 143.863 194.759C144.067 192.647 144.249 190.954 144.374 189.862C145.161 186.7 145.301 184.082 145.267 182.197C145.184 177.874 144.136 175.778 145.562 173.734C146.587 172.268 148.627 171.206 150.053 171.716C151.563 172.256 151.427 174.213 152.971 176.601C154.443 178.876 156.406 179.945 158.491 181.086C163.308 183.712 168.076 183.636 173.441 183.553C177.089 183.496 176.99 183.145 181.209 183.058C187.464 182.933 187.691 183.738 192.3 183.64C197.389 183.534 203.106 183.417 208.007 179.907C210.591 178.056 211.855 176.046 213.084 176.514C214.764 177.149 214.496 181.69 214.378 183.455L214.36 183.451Z" fill="#820000"/>
<path d="M153.202 39.1852C152.683 39.733 152.449 40.2997 152.256 40.806C151.525 42.7441 151.253 44.3234 151.018 45.3812C150.587 47.3005 150.333 47.07 149.754 49.2802C148.888 52.5973 148.54 56.0921 148.377 57.7657C148.271 58.8312 148.188 59.9117 147.688 61.3209C147.545 61.7289 147.284 62.3939 146.311 64.0751C144.643 66.9653 145.085 66.342 144.491 67.6907C143.719 69.4475 143.685 71.6124 143.734 72.7798C143.901 76.5352 145.138 78.666 146.618 82.1872C147.787 84.9792 148.419 85.595 149.448 88.9008C150.352 91.8137 150.106 93.5667 150.103 94.005C150.072 96.0829 149.452 96.933 148.725 99.2792C147.851 102.101 146.667 105.925 147.806 109.488C148.354 111.203 148.748 110.693 151.366 115.223C152.483 117.153 153.398 118.74 154.125 120.614C154.795 122.348 155.483 124.811 155.619 128.986C155.835 135.681 154.337 137.933 152.517 150.431C151.9 154.677 152.104 154.193 151.714 156.279C150.84 160.934 149.573 164.644 149.993 168.206C150.163 169.668 150.568 171.074 150.568 171.074C150.697 171.527 151.113 172.914 151.832 174.285C153.561 177.595 156.335 179.469 157.689 180.364C159.664 181.668 161.401 182.314 162.052 182.544C166.577 184.123 170.603 183.56 172.389 183.345C184.486 181.902 191.929 184.89 202.024 182.427C203.417 182.087 205.634 181.456 207.995 179.903C210.806 178.06 212.347 175.883 212.933 175.086C218.325 167.768 224.95 165.822 235.674 153.294C237.887 150.706 239.261 148.859 240.154 146.184C241.482 142.206 240.903 138.953 240.04 133.913C238.652 125.809 236.415 112.385 237.399 112.121C237.691 112.042 237.963 113.198 239.352 114.07C240.721 114.932 242.186 114.902 243.026 114.871C246.609 114.75 249.447 112.491 250.605 111.547C252.062 110.357 255.263 107.67 256.576 102.831C258.203 96.8423 255.736 92.014 255.081 90.7899C254.249 89.222 253.11 87.0836 250.601 85.8595C248.187 84.6807 245.875 85.0207 244.857 85.1719C244.138 85.2777 240.423 86.1088 238.447 89.3731C238.156 89.8529 237.028 90.2383 236.472 90.5632C235.068 91.3792 232.586 90.5972 231.534 89.0708C231.141 88.5003 230.838 87.673 231.421 84.1405C232.249 79.0967 233.347 77.8764 233.26 74.5064C233.214 72.7307 233.328 71.6161 232.571 70.4941C229.536 65.9906 225.666 66.8407 225.45 64.5323C225.34 63.3724 226.581 63.2364 228.091 60.059C228.92 58.3136 229.253 56.8703 229.355 56.3905C229.896 53.8252 229.567 51.7737 229.241 49.8544C228.901 47.8483 229.264 46.4655 227.19 42.9141C226.021 40.9155 223.24 35.9776 219.366 33.7976C218.541 33.3329 215.956 31.9804 212.358 31.7348C208.203 31.4515 197.612 35.29 191.99 37.7344C178.353 43.6546 183.692 43.7982 178.935 43.5488C175.98 43.3939 173.43 42.4797 170.32 41.3689C164.576 39.3136 161.882 37.0581 157.341 37.5833C156.213 37.7117 155.146 38.0064 155.146 38.0064C154.643 38.1915 153.871 38.4862 153.205 39.189L153.202 39.1852Z" fill="#F3CBAC" stroke="black" stroke-miterlimit="10"/>
<path opacity="0.4" d="M243.151 97.1446C243.533 95.8336 244.793 95.1422 244.766 95.1082C244.747 95.0818 244.036 95.4672 241.951 97.122C240.036 98.6445 239.817 98.9694 239.896 99.1508C240.01 99.4077 240.699 99.3359 241.815 99.2263C243.586 99.0488 243.779 98.7616 244.49 98.8825C245.996 99.1319 246.741 100.677 246.897 100.556C247.037 100.447 246.609 99.0677 245.497 98.5198C244.482 98.0174 243.431 98.4707 243.12 97.9116C242.999 97.6887 243.067 97.4431 243.151 97.1522V97.1446Z" fill="#B56F4F"/>
<path opacity="0.4" d="M171.897 149.376C173.445 149.966 175.575 150.623 178.171 150.952C180.029 151.19 182.727 151.534 185.928 150.793C189.666 149.928 191.921 148.081 192.137 148.406C192.319 148.678 190.824 150.177 189.103 151.281C185.754 153.427 182.333 153.574 181.085 153.574C179.291 153.574 176.366 153.566 173.846 151.553C172.885 150.786 172.268 149.955 171.901 149.376H171.897Z" fill="#B56F4F"/>
<path opacity="0.3" d="M192.319 79.399C189.753 80.9593 189.28 82.8181 187.445 82.9013C185.254 82.9995 182.662 80.4984 182.825 78.4847C183.052 75.7191 188.467 74.1663 191.914 73.2181C202.713 70.2372 223.66 68.367 230.146 78.9721C231.848 81.7527 232.976 86.0824 231.379 87.5672C229.453 89.3618 224.076 86.532 223.433 86.1957C220.262 84.5296 219.99 83.1922 217.474 81.3107C211.669 76.9697 204.283 77.4684 199.292 77.8046C196.235 78.0124 194.358 78.1598 192.315 79.4028L192.319 79.399Z" fill="#B56F4F"/>
<path opacity="0.3" d="M151.858 44.0476C151.427 46.0877 151.215 45.6986 150.401 48.8608C150.178 49.726 149.913 50.7763 149.724 51.9513C149.694 52.1289 149.63 52.5671 149.52 53.2056C149.414 53.8215 149.334 54.2182 149.236 54.8C148.964 56.3905 148.468 59.7455 148.332 60.6144C147.923 63.2024 146.867 63.2402 145.46 66.5838C145.358 66.8256 144.707 67.4414 144.151 71.1628C143.681 74.2835 145.244 78.2769 148.086 83.7854C149.667 86.8531 149.505 89.664 150.689 93.7066C151.196 95.4294 148.025 101.293 147.889 105.339C147.859 106.254 147.049 106.408 148.566 109.865C150.587 114.471 152.797 116.972 153.837 119.201C154.129 119.824 155.309 122.416 155.869 125.96C156.353 129.032 156.142 131.344 155.835 134.427C155.517 137.612 155.237 137.744 153.947 145.421C153.599 147.491 153.637 147.37 152.982 151.334C151.972 157.443 151.756 158.467 151.597 159.188C151.052 161.67 150.859 162.007 150.636 163.669C150.197 166.914 150.496 168.773 150.579 169.264C150.606 169.423 150.908 171.078 151.669 172.774C153.864 177.67 158.745 180.315 159.831 180.904C165.083 183.749 170.176 183.56 172.385 183.341C170.932 181.728 169.116 179.473 167.372 176.56C166.032 174.319 163.448 170.001 162.442 164.538C160.686 155.021 165.166 149.905 164.001 141.019C163.902 140.271 163.626 138.435 163.891 136.006C164.277 132.477 165.401 131.45 166.066 128.911C167.629 122.96 163.475 121.026 164.754 114.048C165.139 111.932 165.431 112.604 166.891 107.935C167.996 104.399 168.545 101.716 169.491 96.7139C170.301 92.4296 171.182 87.605 172.102 82.3043C172.42 81.5072 172.726 80.3473 172.306 79.2214C171.455 76.9357 168.564 77.3513 166.547 75.2771C163.176 71.8164 165.446 64.7288 165.707 63.9429C165.979 63.1306 166.581 61.5401 170.274 56.9157C176.139 49.5673 181.417 45.0261 180.888 44.2592C180.839 44.1874 180.706 44.1231 180.282 44.2214C174.989 43.8473 171.288 42.4948 168.821 41.2669C166.736 40.228 163.353 38.1878 158.575 38.1236C157.939 38.116 157.413 38.1425 157.057 38.1689C156.652 38.1953 156.142 38.2822 155.566 38.4409C155.025 38.592 154.454 38.8301 153.894 39.2268C153.739 39.3741 153.512 39.6046 153.273 39.9144C152.274 41.2102 152.218 42.4003 151.87 44.0476H151.858Z" fill="#B56F4F"/>
<path d="M372.921 292.452C366.246 290.888 359.609 289.547 352.794 288.938C345.991 288.243 339.218 288.304 332.366 288.576L332.347 288.462C345.798 286.381 360.411 287.499 372.917 292.452H372.921Z" fill="black"/>
<path d="M248.266 84.9301C248.743 85.0359 248.391 82.3232 248.414 81.8359C248.648 77.3513 248.917 75.9685 249.148 71.4877L250.65 54.9851C250.65 54.9851 250.65 53.0356 251.702 50.0358C252.436 47.9428 253.39 45.9933 253.897 45.011C254.093 44.6294 253.957 44.1609 253.586 43.9456L248.395 40.8891L240.131 34.2888L230.982 25.331L221.95 16.5885L216.497 11.7413C216.497 11.7413 211.359 7.32848 208.347 5.98727C205.055 4.52137 196.568 4.26447 196.568 4.26447L182.761 4C174.327 4.20024 166.172 5.90415 157.159 9.33464C148.252 13.4301 153.637 10.8534 144.733 15.1529C144.733 15.1529 141.627 16.3619 135.421 20.9371C132.886 22.8035 130.669 25.6332 131.297 25.5539C132.875 25.3499 136.693 24.9079 139.795 23.8764C140.836 23.5326 140.624 23.9444 140.616 23.9293C140.605 23.9067 137.249 24.8663 134.305 27.3787C133 28.4932 131.426 30.2123 131.751 30.677C132.001 31.0359 133.124 30.3067 136.409 29.3282C137.268 29.0713 136.942 28.8673 143.413 27.2163C144.173 27.0236 145.342 26.7364 145.498 26.6949C148.748 25.8335 149.826 25.671 149.179 26.0262C148.85 26.2075 146.19 27.7187 143.322 30.9754C141.967 32.5131 141.263 33.809 139.867 36.3743C138.989 37.9875 137.665 40.6473 136.56 44.176C135.671 47.0209 136.428 49.386 136.889 49.6693C137.646 50.1303 135.614 47.3458 142.777 42.3852C146.235 39.9899 149.66 38.8754 151.427 38.1009C152.721 37.5342 157.265 36.7748 161.764 38.2142C167.989 40.209 171.701 42.7139 178.882 43.3902C182.814 43.7604 181.274 43.462 187.702 39.7103C192.769 36.7521 198.267 35.2031 202.978 33.6919C212.013 30.7903 212.937 31.0019 217.231 32.94C222.101 35.1389 227.591 41.8676 228.795 47.871C228.904 48.415 230.074 55.4838 227.879 59.9004C227.088 61.4947 225.711 62.5337 224.75 64.4076C224.296 65.2917 225.87 65.4919 228.662 68.027C232.987 71.9524 232.711 72.2207 232.597 73.6714C232.488 75.0542 231.432 75.3225 231.091 81.8623C230.827 86.9136 230.335 87.8128 231.197 88.8404C231.742 89.4902 234.277 91.9271 237.127 89.7018C238.406 88.7006 240.025 83.094 248.259 84.9301H248.266Z" fill="#5C2C17" stroke="black" stroke-miterlimit="10"/>
<path d="M172.018 74.9371C172.556 77.2266 172.813 79.603 172.73 81.9945C172.624 84.386 172.23 86.7209 171.844 89.0293C171.031 93.5819 170.285 98.3687 169.237 102.88L168.352 106.284C167.845 108.048 167.504 109.858 166.638 111.528C165.711 112.797 165.056 113.904 166.293 115.272C167.728 116.957 169.495 118.506 171.428 119.651C173.384 120.871 175.458 122.004 177.842 121.577L177.868 121.687C175.511 122.348 173.169 121.302 171.144 120.176C169.056 119.084 167.202 117.588 165.612 115.85C164.088 114.274 164.557 112.597 165.745 111.01C166.891 108.343 167.357 105.403 168.132 102.604C168.428 101.47 168.67 100.333 168.893 99.181C169.321 96.9632 170.501 91.1299 170.963 88.8517C171.417 86.5584 171.912 84.2651 172.124 81.9378C172.34 79.6105 172.219 77.2644 171.901 74.9484L172.015 74.9333L172.018 74.9371Z" fill="black"/>
<path d="M182.564 118.362C183.813 116.114 186.666 113.035 189.345 115.026L189.326 115.087C188.694 114.879 188.02 114.784 187.366 114.883C186.7 114.951 186.143 115.362 185.61 115.752C185.076 116.152 184.554 116.568 184.074 117.036L182.613 118.411L182.568 118.366L182.564 118.362Z" fill="black"/>
<path d="M186.624 106.359C190.128 106.813 193.942 109.563 193.681 113.428C193.628 114.18 193.416 114.905 193.162 115.548C192.924 116.205 192.584 116.938 191.986 117.422C191.388 117.886 190.658 118.124 189.954 118.109L189.946 118.056C191.384 117.932 192.462 116.802 192.769 115.43C194.472 110.674 190.631 107.667 186.624 106.363V106.359Z" fill="black"/>
<path d="M243.843 95.5503C242.761 96.8953 241.611 98.142 240.441 99.4001L240.392 99.453C240.475 99.4039 240.547 99.1583 240.502 99.0034C240.494 98.9014 240.377 98.7465 240.313 98.7012C240.282 98.6785 240.245 98.6596 240.218 98.6445C240.589 98.6596 241.024 98.6294 241.448 98.5878L243.733 98.3385H243.779C245.307 98.278 246.469 99.3775 246.987 100.624C247.423 101.584 247.294 102.627 247.067 103.609H246.991V102.661C247.003 101.72 246.643 100.783 246.007 100.092C245.508 99.4152 244.664 99.0185 243.828 99.0563C243.094 99.1583 242.277 99.2679 241.508 99.3246C241.02 99.351 240.517 99.4115 240.029 99.3094C239.98 99.2943 239.923 99.2792 239.87 99.2226C239.813 99.1621 239.836 99.0639 239.885 99.011C240.597 98.3309 241.297 97.6698 242.015 97.0048L243.798 95.4936L243.847 95.5503H243.843Z" fill="black"/>
<path d="M243.283 115.442C246.556 130.69 249.829 145.942 253.102 161.19C253.136 161.342 253.079 161.5 252.958 161.595C251.728 162.551 249.965 163.839 247.74 165.195C241.872 168.769 236.661 170.447 233.294 171.505C232.446 171.773 230.259 172.336 225.919 173.458C213.667 176.62 212.097 176.9 211.775 176.314C211.393 175.615 213.031 174.142 219.297 168.652C228.829 160.306 231.875 157.734 235.095 153.177C236.824 150.733 237.993 149.052 238.856 146.418C240.604 141.076 239.499 136.667 238.705 132.145C237.918 127.649 237.119 121.222 237.187 112.982C237.187 112.627 237.611 112.45 237.872 112.688C238.443 113.205 239.215 113.787 240.211 114.267C241.255 114.773 242.22 115.011 242.95 115.128C243.116 115.155 243.245 115.279 243.279 115.446L243.283 115.442Z" fill="#F3CBAC" stroke="black" stroke-miterlimit="10"/>
<path d="M66.3438 302.241C64.887 301.44 63.6081 300.598 62.1551 299.853C60.721 299.071 59.3059 298.486 57.8264 297.723L57.8378 297.647C61.0919 298.153 64.1681 299.759 66.3968 302.188L66.34 302.241H66.3438Z" fill="black"/>
<path d="M55.855 297.209C52.7484 296.476 49.763 296.098 46.6489 296.377C41.4651 296.77 36.7504 298.928 32.2742 301.527L32.1985 301.44C36.985 297.284 43.3721 294.643 49.7819 295.407C51.8971 295.645 53.9631 296.234 55.9004 297.103L55.855 297.205V297.209Z" fill="black"/>
<path d="M180.388 222.709C179.363 223.525 178.319 224.201 177.278 224.866C176.767 225.217 176.23 225.508 175.723 225.852C175.201 226.17 174.675 226.479 174.164 226.812C173.634 227.114 173.12 227.439 172.597 227.756C172.06 228.055 171.553 228.395 171.012 228.689C169.945 229.313 168.867 229.932 167.678 230.48L167.603 230.397C168.515 229.536 169.472 228.727 170.475 227.972C171.474 227.216 172.51 226.502 173.577 225.845C175.727 224.553 177.989 223.442 180.354 222.603L180.396 222.709H180.388Z" fill="black"/>
<path d="M167.599 226.215C163.588 223.381 159.244 220.71 154.477 219.471C151.302 218.67 148.097 219.082 144.873 219.569C139.879 220.272 134.994 221.152 130.033 222.233L129.995 222.127C133.181 221.039 136.435 220.143 139.731 219.456C144.65 218.579 149.777 217.11 154.745 218.443C158.018 219.324 160.974 221.062 163.751 222.958C165.132 223.925 166.441 224.987 167.675 226.139L167.599 226.222V226.215Z" fill="black"/>
<path d="M157.042 228.157C155.472 227.454 153.966 226.812 152.43 226.313C152.044 226.196 151.654 226.094 151.275 225.966C150.89 225.852 150.5 225.769 150.114 225.667L148.945 225.406C148.551 225.342 148.158 225.27 147.764 225.218C146.977 225.089 146.182 225.002 145.38 224.957C144.578 224.87 143.772 224.889 142.959 224.855C142.145 224.862 141.324 224.866 140.495 224.908C139.663 224.934 138.83 225.002 137.968 225.032L137.938 224.923C139.549 224.435 141.211 224.118 142.887 223.967C144.567 223.827 146.262 223.861 147.934 224.099C149.603 224.349 151.234 224.836 152.785 225.497C154.333 226.166 155.79 227.039 157.114 228.074L157.046 228.164L157.042 228.157Z" fill="black"/>
<path d="M183.366 221.322C197.646 216.313 214.106 215.005 229.011 217.589L229.003 217.703C213.765 216.388 198.04 218.009 183.366 221.322Z" fill="black"/>
<path d="M261.771 220.567C266.084 220.518 270.523 220.484 274.802 221.08C275.71 221.194 277.122 221.545 278.018 221.779C279.055 222.033 280.111 222.244 281.174 222.471C283.312 222.943 286.767 223.506 286.865 226.343C286.869 227.624 286.396 228.618 286.063 229.747C285.76 230.737 285.503 231.754 285.287 232.793C284.856 234.867 284.576 237.02 284.076 239.185C283.543 241.331 283.032 243.318 282.65 245.468C281.897 249.665 281.386 253.942 281.152 258.196C280.675 266.765 282.502 275.262 284.523 283.54C286.154 289.792 288.329 295.905 290.963 301.81L290.861 301.859C288.916 297.994 287.213 294.005 285.768 289.928C283.615 283.804 282.063 277.476 280.913 271.091C279.797 264.683 279.786 258.124 280.592 251.679C281.087 247.38 281.935 243.118 283.074 238.947C283.823 235.8 284.126 232.528 285.174 229.445C285.601 228.021 286.634 226.234 285.427 224.942C284.25 223.82 282.529 223.578 281.004 223.174C279.952 222.928 278.893 222.69 277.844 222.414C274.745 221.462 271.472 221.152 268.249 220.948C266.088 220.812 263.924 220.737 261.763 220.68V220.567H261.771Z" fill="black"/>
<path d="M287.758 310.39C284.08 316.465 279.672 322.087 274.829 327.278C269.694 333.013 264.73 337.324 256.674 337.797C253.129 338.072 249.47 337.234 246 336.618C239.041 335.428 231.981 334.903 224.92 335.035C212.116 335.088 198.638 338.533 186.359 333.395C184.293 332.587 182.235 331.464 180.313 330.399C175 327.452 169.105 325.522 163.021 325.163C152.543 324.709 142.13 328.166 132.481 331.978C125.754 334.419 119 336.659 111.996 338.25C107.572 339.206 102.945 339.663 98.442 338.983C84.7219 336.996 73.9152 325.148 70.5817 312.09C68.7503 305.124 68.6936 297.859 68.9698 290.737C69.2914 280.03 71.766 269.376 76.2801 259.658C82.3116 246.715 91.8657 235.501 103.569 227.458L103.633 227.552C90.5792 236.733 80.3705 249.877 74.7893 264.812C71.6828 273.105 69.9839 281.907 69.7795 290.76C69.5525 297.817 69.6547 304.988 71.5012 311.845C74.4904 323.277 83.1781 333.686 94.7149 337.101C98.9528 338.375 103.486 338.511 107.852 337.891C114.44 336.958 120.77 334.751 127.082 332.715C132.133 331.03 137.022 328.91 142.104 327.305C148.884 325.28 155.975 323.765 163.089 324.112C166.642 324.35 170.157 325.053 173.517 326.232C176.892 327.365 180.036 329.077 183.135 330.788C184.66 331.608 186.352 332.356 187.975 332.964C199.856 337.332 212.627 334.162 224.916 334.226C232.019 334.139 239.128 334.714 246.121 335.96C249.523 336.588 253.163 337.445 256.648 337.203C264.533 336.833 269.471 332.613 274.572 327.04C276.997 324.456 279.377 321.827 281.556 319.027C283.747 316.243 285.787 313.337 287.667 310.334L287.762 310.394L287.758 310.39Z" fill="black"/>
<path d="M9.67346 356.256C16.3368 352.183 24.8125 350.906 32.3045 353.256C34.7754 354.065 37.163 355.229 39.1797 356.872L39.123 356.97C38.0181 356.339 36.8716 355.784 35.6948 355.308C29.1904 352.644 21.846 352.675 15.1222 354.496C13.2832 355.002 11.4746 355.618 9.71508 356.362L9.66968 356.256H9.67346Z" fill="black"/>
<path d="M15.5345 346.807C20.6654 344.502 26.8141 344.457 31.9828 346.667C33.712 347.415 35.3277 348.428 36.6559 349.746L36.5953 349.841C31.9677 346.913 26.3752 345.825 20.953 346.161C19.1405 346.263 17.3356 346.535 15.5572 346.917L15.5308 346.807H15.5345Z" fill="black"/>
<path d="M7.66418 351.87C11.4707 349.781 16.4124 349.218 20.6124 350.272L20.62 350.385C18.4557 350.593 16.2875 350.74 14.1345 351.035C11.974 351.28 9.82853 351.628 7.68689 351.979L7.66418 351.87Z" fill="black"/>
<path d="M317.631 289.63C315.229 289.925 311.797 290.28 309.477 290.828C306.745 291.375 304.24 292.237 301.524 293.03L301.463 292.936C305.02 290.654 309.205 289.328 313.435 289.233C314.847 289.192 316.258 289.294 317.647 289.52L317.631 289.634V289.63Z" fill="black"/>
<path d="M286.434 280.785C286.842 283.683 287.716 286.849 290.32 288.485C291.731 289.452 293.199 290.355 294.785 291.001C294.97 291.073 295.129 291.115 295.265 291.311C295.352 291.436 295.386 291.576 295.39 291.674L294.974 291.073C296.51 291.628 298.811 292.195 297.259 294.247C296.325 296.083 295.333 298.365 294.406 300.314C293.684 302.332 292.719 304.281 291.875 306.216C289.563 311.305 287.978 316.651 286.547 322.099C283.505 332.938 282.563 344.231 284.565 355.368L284.455 355.395C283.191 349.883 282.635 344.208 282.854 338.556C283.172 330.059 285.299 321.759 287.811 313.674C289.094 309.627 290.876 305.762 292.677 301.928C293.233 300.628 293.755 299.306 294.414 298.063C295.216 296.487 295.939 294.87 296.858 293.363C296.938 293.208 297.036 293.057 296.972 292.939C296.457 292.263 295.481 292.089 294.717 291.749L294.667 291.678C294.656 291.696 294.675 291.738 294.69 291.738C294.141 291.511 293.578 291.228 293.059 290.941C291.478 290.015 289.862 289.044 288.625 287.677C287.032 285.761 286.517 283.215 286.32 280.797L286.434 280.789V280.785Z" fill="black"/>
<path d="M348.012 349.849C340.274 350.544 332.475 350.117 324.756 349.497C314.888 349.082 305.084 351.114 296.548 356.233L296.484 356.139C305.531 349.565 317.143 347.408 328.132 348.674C334.738 349.339 341.375 349.69 348.016 349.735V349.849H348.012Z" fill="black"/>
<path d="M337.262 354.624C339.324 353.464 341.651 353.264 343.944 353.532C344.697 353.649 345.454 353.812 346.222 354.174L346.23 354.288C343.248 354.507 340.263 354.658 337.27 354.737L337.266 354.624H337.262Z" fill="black"/>
<path d="M159.581 183.897C160.527 189.152 161.363 194.32 162.653 199.481C163.887 204.657 165.435 209.682 166.774 214.854L166.668 214.9C162.589 205.182 159.43 194.305 159.581 183.897Z" fill="black"/>
<path d="M164.534 191.54C167.387 194.23 168.163 199.145 166.297 202.591L166.184 202.576C166.494 199.772 166.248 196.92 165.427 194.222C165.151 193.327 164.818 192.447 164.432 191.589L164.534 191.54Z" fill="black"/>
<path d="M173.014 188.85C173.611 192.371 173.313 196.036 172.389 199.489C171.761 201.744 170.842 203.837 170.327 206.085C169.502 209.44 169.408 212.799 169.491 216.305L169.381 216.328C168.431 211.745 168.621 206.901 170.225 202.485C170.611 201.382 171.023 200.29 171.364 199.179C172.389 195.839 172.877 192.344 172.896 188.854H173.01L173.014 188.85Z" fill="black"/>
<path d="M257.446 186.904C260.329 188.974 261.01 193.55 258.918 196.398L258.808 196.376C259.281 193.988 259.137 191.487 258.339 189.186C258.07 188.423 257.737 187.679 257.348 186.965L257.446 186.908V186.904Z" fill="black"/>
<path d="M184.21 33.382C185.792 28.1872 189.939 22.5276 194.755 19.8528C198.29 17.8655 202.474 17.5406 206.436 17.8655C212.188 18.2622 217.931 20.3364 222.404 23.8991L222.313 24.0653C217.394 21.4698 211.938 19.8339 206.368 19.645C200.465 19.3049 195.414 20.4006 191.104 24.6736C188.421 27.2351 186.091 30.1631 184.38 33.4614L184.21 33.3745V33.382Z" fill="black"/>
<path opacity="0.3" d="M228.428 36.4725C229.06 37.9611 230.399 38.1273 232.302 39.8917C232.609 40.175 232.412 40.0201 233.506 41.1724C236.922 44.7692 237.876 45.2565 238.83 45.3774C239.401 45.4492 240.214 45.6154 240.441 45.2527C240.964 44.4102 237.611 41.7656 230.906 36.4725C230.153 35.8793 228.73 34.7686 228.307 35.1124C227.974 35.3769 228.401 36.4007 228.432 36.4725H228.428Z" fill="#BA9797"/>
<path opacity="0.3" d="M252.448 46.7602C251.479 46.2048 250.514 45.6495 249.545 45.0941C249.227 44.9505 248.766 44.7389 248.213 44.4745C244.785 42.8348 241.357 39.0945 235.22 33.9979C231.462 30.881 229.033 28.3308 223.539 22.267C217.163 15.2322 215.279 12.9616 211.858 10.6003C210.912 9.94667 209.21 8.86614 206.875 7.83851C204.393 6.74287 199.837 5.14096 187.396 5.47721C180.752 5.65478 176.272 5.77568 170.093 7.09045C162.691 8.6659 157.228 11.0045 152.085 13.2411C148.907 14.6201 146.077 16.0369 143.371 17.4839C141.646 18.4058 142.228 18.1866 139.186 19.9699C136.401 21.6058 133.041 24.0691 133.125 23.9709C133.896 23.0377 134.967 21.9836 137.536 20.1966C138.573 19.475 140.685 17.8428 143.98 16.086C144.294 15.9198 148.264 13.9099 151.506 12.4213C155.843 10.4303 155.786 10.2905 158.798 9.1835C165.775 6.61819 172.51 5.64722 172.51 5.64722C175.042 5.32987 178.477 4.50247 181.838 4.60448C186.242 4.74049 189.882 4.57425 197.427 4.93317C200.295 5.06918 205.066 5.32987 208.093 6.7202C210.091 7.63827 212.093 8.87748 212.093 8.87748C213.069 9.48197 213.796 9.99201 214.072 10.1922C215.487 11.2085 217.379 12.7764 220.1 15.644C221.496 17.1175 222.733 18.2698 223.418 18.9989C225.299 21.0051 226.683 22.3803 227.75 23.6649C229.502 25.773 230.002 25.1912 233.328 28.4441C237.297 32.3242 237.373 32.4564 238.561 33.5672C239.049 34.0243 239.62 34.591 239.802 34.7459C240.699 35.5053 241.149 35.8302 242.515 36.9108C246.416 40.0012 246.798 40.5831 248.709 41.7429C248.872 41.8412 249.379 42.1396 250.393 42.7403C251.592 43.4506 252.595 44.04 253.31 44.4556C253.42 44.5198 253.458 44.6558 253.405 44.7692C253.087 45.4341 252.769 46.0953 252.448 46.7602Z" fill="#BA9797"/>
<path opacity="0.3" d="M132.568 30.0121C133.2 29.2338 134.025 28.361 135.085 27.5148C135.505 27.1785 136.488 26.4229 137.896 25.6937C138.028 25.6257 138.153 25.5615 138.278 25.501C138.278 25.501 138.717 25.2895 139.198 25.0855C141.283 24.2089 143.704 23.5553 143.704 23.5553C144.941 23.2229 146.504 22.8602 148.347 22.5844C149.036 22.4824 149.857 22.3841 150.787 22.3123C152.07 22.2179 153.069 22.2141 153.5 22.2179C155.109 22.2292 156.471 22.3615 157.008 22.4332C161.219 23.0113 165.385 26.8838 165.177 27.2163C165.083 27.3674 164.144 26.6647 161.783 25.894C160.951 25.6219 158.881 24.9986 156.126 24.7756C153.054 24.5301 150.719 24.9117 150.019 25.0363C149.8 25.0741 149.168 25.2215 147.9 25.5162C145.059 26.1735 143.11 26.676 141.937 26.982C139.697 27.5714 138.959 27.8094 138.448 27.9832C137.571 28.2817 137.272 28.4215 136.216 28.8031C135.376 29.1053 134.135 29.536 132.572 30.0007L132.568 30.0121Z" fill="#BA9797"/>
<path opacity="0.4" d="M149.698 26.3737C148.532 27.2238 146.761 28.2665 145.108 29.9213C143.757 31.2701 141.816 33.45 140.223 36.9372C139.92 37.5984 139.75 37.485 137.676 42.7366C137.321 43.6395 136.814 44.7427 136.734 46.2879C136.7 46.9415 136.746 47.5271 136.818 48.0259C136.988 47.6783 137.241 47.1682 137.559 46.56C138.157 45.4228 139.069 44.686 139.436 44.3573C141.714 42.3172 143.553 41.1195 145.017 40.3488C146.55 39.5403 146.799 39.4118 148.487 38.694C150.651 37.7722 151.347 37.587 151.896 37.1979C153.054 36.9674 154.779 36.7219 156.876 36.8125C158.049 36.8654 159.959 37.0506 163.649 38.1991C166.963 39.2343 168.193 39.9483 170.388 40.7644C172.654 41.6069 176.048 42.6005 180.6 42.9481C177.789 39.2305 174.928 36.6085 172.749 34.8668C171.012 33.4803 168.715 31.663 165.245 30.046C161.639 28.3648 158.541 27.7187 156.145 27.2351C153.561 26.7137 151.34 26.4833 149.69 26.3737H149.698Z" fill="#1E1919"/>
<path d="M152.331 84.2878C152.759 83.6795 153.338 83.1355 153.917 82.6746C155.12 81.7149 156.505 81.0273 157.98 80.5966C159.604 80.1244 161.329 79.9846 163.013 80.0715C164.629 80.1546 166.536 80.2793 167.781 81.4316C168.231 81.8509 168.575 82.3723 168.832 82.9504C170.066 84.4276 170.539 86.4866 169.918 88.3643C169.51 89.5922 168.708 90.6538 167.629 91.3717C167.338 91.5644 167.031 91.7306 166.717 91.8704C165.995 92.2633 165.192 92.4975 164.36 92.6109C164.209 92.6449 164.061 92.6789 163.91 92.7129C163.751 92.7507 163.607 92.7356 163.486 92.6864C162.075 92.7393 160.625 92.4862 159.365 92.0782C157.78 91.5644 156.259 90.7861 154.859 89.8869C153.644 89.1048 152.573 88.0545 152.097 86.6642C151.82 85.8632 151.824 85.0018 152.324 84.2878H152.331Z" fill="white"/>
<path d="M192.621 81.1331C195.051 77.8915 199.561 78.2731 203.163 78.3185C208.018 78.3789 213.213 78.7492 217.477 81.3069C217.92 81.5714 218.037 82.2023 217.761 82.6255C217.621 82.8408 217.428 82.9693 217.213 83.0184C217.103 83.1808 216.989 83.3395 216.864 83.4869C216.547 83.8571 216.221 84.216 215.873 84.556C215.211 85.1983 214.511 85.8066 213.773 86.362C212.286 87.4727 210.693 88.4399 209.005 89.2144C207.288 90.004 205.43 90.6576 203.557 90.9599C201.389 91.3112 199.266 91.0619 197.234 90.2232C196.208 89.8 195.213 89.29 194.26 88.727C193.405 88.2208 192.618 87.6049 192.088 86.7511C191.028 85.0396 191.471 82.6821 192.629 81.1369L192.621 81.1331Z" fill="white"/>
<path d="M183.729 71.5368C184.236 72.2811 184.819 72.9876 185.459 73.6487C184.902 72.9876 184.524 72.2093 184.369 71.4083C184.312 71.1137 188.387 70.1125 188.773 69.9991C193.31 68.6768 197.979 67.6907 202.834 67.2449C212.782 66.3344 224.602 70.5847 230.149 78.9683C229.953 78.8436 229.756 78.7151 229.559 78.5905C228.379 77.8651 227.145 77.2115 225.877 76.6183C223.342 75.4358 220.686 74.495 217.965 73.8036C211.321 72.1148 205.078 72.0922 198.611 73.5165C196.84 73.9057 195.088 74.359 193.382 74.9144C192.515 75.194 191.668 75.5076 190.816 75.8211C189.961 76.1385 189.106 76.3765 188.141 76.1952C185.776 75.7494 183.937 73.611 183.71 71.5028C183.718 71.5141 183.726 71.5255 183.733 71.5368H183.729Z" fill="#5C2C17"/>
<path d="M207.994 90.2862C211.505 89.1284 213.41 85.3486 212.251 81.8437C211.091 78.3389 207.306 76.4362 203.795 77.5939C200.285 78.7517 198.38 82.5315 199.539 86.0364C200.699 89.5413 204.484 91.444 207.994 90.2862Z" fill="black"/>
<path d="M211.649 85.6274C212.581 82.4494 210.756 79.1188 207.573 78.1883C204.39 77.2578 201.055 79.0797 200.123 82.2577C199.191 85.4357 201.016 88.7662 204.198 89.6967C207.381 90.6272 210.717 88.8053 211.649 85.6274Z" fill="#0084C9"/>
<path d="M191.38 78.6623C191.312 78.7076 191.248 78.7076 191.191 78.6849C191.509 78.326 191.812 77.9596 192.182 77.6611C192.795 77.3626 193.431 77.1246 194.101 76.9584C198.884 75.4774 204.037 75.2507 208.949 76.2065C210.818 76.573 212.661 77.1057 214.412 77.8613C215.294 78.2391 216.153 78.6736 216.982 79.1648C217.742 79.6181 218.726 80.1319 219.316 80.8007C218.858 80.6306 218.416 80.3208 217.981 80.0942C217.152 79.6559 216.323 79.2328 215.464 78.8625C213.784 78.1333 212.04 77.5629 210.262 77.1322C206.675 76.2594 202.921 76.0327 199.254 76.4899C197.461 76.7128 195.69 77.1019 193.968 77.6422C193.355 77.8349 192.671 78.9041 192.322 79.4028C191.85 80.079 191.414 80.7855 191.308 81.6167C191.35 81.2994 192.005 80.7515 192.213 80.5173C193.268 79.3423 194.434 78.054 196.031 77.6535C201.476 76.2896 208.286 76.777 213.546 78.6963C214.465 79.0325 215.37 79.4103 216.255 79.8373C217.129 80.2604 218.026 80.7327 218.756 81.3825C218.756 81.3825 218.76 81.3863 218.764 81.39C219.017 81.5865 219.26 81.7943 219.494 82.0134C219.585 82.0965 219.672 82.1797 219.751 82.2703C219.793 82.3194 219.751 82.3912 219.695 82.3837C219.672 82.3988 219.642 82.4026 219.615 82.3837C219.415 82.2288 219.207 82.0814 218.995 81.9379C218.998 81.9492 219.002 81.9605 219.006 81.9719C219.017 81.9983 219.021 82.0248 219.021 82.0474C219.021 82.0474 219.021 82.0474 219.025 82.0474C219.294 82.5764 219.702 83.0524 220.081 83.4869C220.641 84.1329 221.269 84.7185 221.931 85.2588C221.973 85.2928 222.014 85.3268 222.056 85.3608C221.931 85.3003 221.806 85.2361 221.685 85.1681C221.049 84.8168 220.425 84.4427 219.808 84.0649C219.161 83.6682 218.522 83.2564 217.894 82.8295C216.6 84.0989 215.347 85.4175 213.943 86.5698C210.553 89.3618 206.444 91.5228 201.96 91.5833C199.943 91.6097 197.938 91.0921 196.137 90.1929C194.423 89.3353 193.401 88.1188 192.001 86.9098C194.85 89.3693 198.607 90.7597 202.372 90.7483C206.618 90.737 210.386 88.9197 213.58 86.2373C214.269 85.6555 214.927 85.0359 215.54 84.3747C215.669 84.2387 217.178 82.3648 217.114 82.3383C216.811 82.2099 216.512 82.0852 216.206 81.9681C213.232 80.5626 210.084 79.3839 206.822 78.957C205.051 78.7227 203.262 78.7189 201.479 78.8512C199.618 78.991 197.907 79.1648 196.095 79.5917C194.948 79.8561 193.942 80.9064 193.246 81.8019C192.83 82.3383 192.462 82.9088 192.122 83.4944C192.046 83.6229 191.895 84.0082 191.71 84.3181C191.66 84.4465 191.607 84.575 191.558 84.6996C191.547 84.7336 191.532 84.7714 191.517 84.813C191.505 84.8885 191.49 84.9603 191.475 85.0321C191.441 85.1832 191.32 85.2739 191.172 85.2588C190.972 85.0737 190.828 84.9074 190.726 84.6014C189.954 82.3497 191.006 79.6521 192.587 77.9596C192.175 78.1711 191.774 78.4016 191.384 78.6509L191.38 78.6623Z" fill="black"/>
<path d="M205.138 84.488C205.399 84.3104 205.664 84.1329 205.925 83.9553C205.872 83.279 205.816 82.6065 205.766 81.9303C205.717 81.2766 205.657 80.6193 205.596 79.9657C205.596 79.9279 205.649 79.9317 205.653 79.9657C205.77 81.2691 205.903 82.5725 206.035 83.876C206.724 83.4075 207.409 82.9428 208.101 82.4781C208.661 82.1003 209.213 81.6998 209.796 81.3598C209.823 81.3447 209.849 81.3824 209.826 81.4051C209.357 81.7791 208.85 82.1116 208.354 82.4554C207.866 82.7954 207.374 83.1355 206.886 83.4755C206.61 83.6682 206.33 83.8608 206.054 84.0535C206.152 85.0056 206.247 85.9577 206.341 86.9098L206.531 88.8517C206.546 88.9953 206.341 89.0179 206.33 88.8706C206.198 87.2913 206.065 85.7159 205.94 84.1366C205.271 84.6014 204.601 85.0661 203.935 85.5345C203.379 85.9237 202.819 86.3053 202.27 86.702C202.134 86.8002 201.99 86.6037 202.134 86.5093C203.144 85.8519 204.139 85.1643 205.138 84.488Z" fill="#006495"/>
<path d="M204.567 82.7652C203.916 82.3421 203.265 81.9189 202.614 81.492C202.535 81.4391 202.614 81.3182 202.694 81.3673C203.349 81.7867 204.003 82.2061 204.658 82.6254C204.749 82.6821 204.658 82.8219 204.567 82.7652Z" fill="#006495"/>
<path d="M206.61 85.1757C207.023 86.1806 207.431 87.1894 207.844 88.1981C207.866 88.251 207.787 88.2926 207.764 88.2397C207.329 87.2461 206.89 86.2524 206.455 85.2588C206.41 85.153 206.569 85.0737 206.61 85.1757Z" fill="#006495"/>
<path d="M207.17 84.8583C208.078 85.7121 209.013 86.5471 209.978 87.3367C210.023 87.3745 209.978 87.4501 209.929 87.4123C208.945 86.6227 207.98 85.8179 207.045 84.9679C206.966 84.8961 207.091 84.7827 207.17 84.8545V84.8583Z" fill="#006495"/>
<path d="M210.046 85.3532C209.172 85.0246 208.294 84.6959 207.42 84.371C207.344 84.3407 207.382 84.2198 207.458 84.25C208.332 84.5901 209.202 84.9263 210.076 85.2664C210.133 85.289 210.106 85.3759 210.05 85.357L210.046 85.3532Z" fill="#006495"/>
<path d="M210.008 84.3445L207.98 84.2387C207.904 84.2349 207.908 84.114 207.984 84.1216C208.657 84.1707 209.335 84.2198 210.008 84.2727C210.053 84.2727 210.053 84.3482 210.008 84.3445Z" fill="#006495"/>
<path d="M210.367 82.9201C209.369 83.1808 208.385 83.483 207.416 83.8306C207.306 83.8684 207.265 83.6908 207.374 83.6568C208.354 83.3395 209.342 83.0561 210.345 82.8143C210.413 82.7992 210.436 82.9012 210.367 82.9201Z" fill="#006495"/>
<path d="M207.541 82.3043C207.488 82.361 207.405 82.2703 207.462 82.2136C207.719 81.9491 207.976 81.6809 208.237 81.4164C208.275 81.3787 208.328 81.4391 208.294 81.4769C208.044 81.7527 207.794 82.0285 207.545 82.3005L207.541 82.3043Z" fill="#006495"/>
<path d="M206.879 82.2099L207.787 80.0677C207.806 80.0186 207.885 80.0413 207.866 80.0942L206.992 82.2439C206.962 82.3157 206.849 82.2779 206.879 82.2099Z" fill="#006495"/>
<path d="M206.482 82.4101C206.792 81.3749 207.102 80.3359 207.409 79.297C207.424 79.2403 207.514 79.2667 207.496 79.3234C207.197 80.3624 206.905 81.4051 206.61 82.4479C206.587 82.531 206.455 82.4894 206.482 82.4063V82.4101Z" fill="#006495"/>
<path d="M205.165 82.0059C204.457 81.22 203.746 80.4342 203.023 79.6597C202.955 79.5879 203.072 79.4821 203.137 79.5577C203.829 80.3586 204.533 81.152 205.237 81.9379C205.278 81.987 205.206 82.0512 205.165 82.0059Z" fill="#006495"/>
<path d="M204.749 82.3005C204.158 81.8396 203.576 81.3711 203.012 80.8724C202.959 80.8233 203.038 80.7289 203.095 80.7742C203.666 81.2578 204.234 81.7489 204.805 82.2325C204.843 82.2627 204.79 82.3308 204.749 82.3005Z" fill="#006495"/>
<path d="M201.12 82.7274C201.782 82.9617 202.448 83.1884 203.118 83.4075C203.174 83.4264 203.148 83.5171 203.091 83.4982C202.421 83.279 201.756 83.0637 201.082 82.8559C200.999 82.8294 201.04 82.701 201.124 82.7274H201.12Z" fill="#006495"/>
<path d="M201.733 84.5901C202.414 84.4767 203.099 84.3823 203.787 84.3105C203.852 84.3029 203.875 84.4011 203.81 84.4087C203.125 84.4918 202.444 84.5976 201.763 84.7261C201.676 84.7412 201.642 84.6052 201.733 84.5901Z" fill="#006495"/>
<path d="M205.153 86.3733C204.979 86.7889 204.802 87.2045 204.628 87.62C204.59 87.7069 204.45 87.6616 204.488 87.5747C204.669 87.1591 204.851 86.7473 205.029 86.3317C205.063 86.2562 205.188 86.2939 205.153 86.3695V86.3733Z" fill="#006495"/>
<path d="M205.619 86.0748L205.414 87.4236C205.407 87.4727 205.331 87.4689 205.339 87.4236L205.543 86.0748C205.551 86.0257 205.626 86.0295 205.619 86.0748Z" fill="#006495"/>
<path d="M205.581 84.8016C205.645 84.7336 205.744 84.8394 205.679 84.9112C204.783 85.901 203.95 86.9438 203.216 88.0583C203.193 88.0885 203.148 88.0583 203.167 88.0243C203.867 86.8795 204.665 85.7839 205.581 84.8016Z" fill="#006495"/>
<path d="M204.892 85.017C204.964 84.9414 205.074 85.0623 205.002 85.1379C204.431 85.7461 203.84 86.3355 203.265 86.9362C203.209 86.9967 203.121 86.9022 203.178 86.8418C203.753 86.2373 204.313 85.6177 204.892 85.017Z" fill="#006495"/>
<path d="M207.692 84.8394C208.249 85.2323 208.824 85.5912 209.403 85.9463C209.467 85.9841 209.403 86.0748 209.342 86.0408C208.74 85.7272 208.162 85.3645 207.602 84.9792C207.514 84.9187 207.602 84.7789 207.692 84.8394Z" fill="#006495"/>
<path d="M201.264 81.8094C201.979 82.0852 202.679 82.395 203.379 82.7085C204.075 83.0183 204.767 83.3357 205.448 83.6757C205.566 83.7324 205.456 83.8986 205.339 83.8457C204.658 83.5171 203.977 83.1846 203.284 82.8672C202.599 82.5536 201.907 82.2552 201.218 81.9454C201.135 81.9076 201.173 81.7754 201.26 81.8094H201.264Z" fill="#006495"/>
<path d="M206.194 81.764C206.319 80.9329 206.44 80.1017 206.557 79.2667C206.569 79.1798 206.709 79.1836 206.693 79.2705C206.58 80.1017 206.47 80.9329 206.36 81.7678C206.345 81.8774 206.175 81.8698 206.19 81.7603L206.194 81.764Z" fill="#006495"/>
<path d="M203.031 83.0524C202.535 84.6316 203.417 86.3166 204.998 86.8115C206.58 87.3065 208.268 86.4262 208.763 84.8469C209.259 83.2677 208.377 81.5827 206.796 81.0878C205.214 80.5928 203.526 81.4731 203.031 83.0524Z" fill="black"/>
<path d="M197.033 83.3697C197.253 82.8144 197.767 82.5234 198.218 82.3572C199.489 81.885 200.779 81.7112 201.998 81.8736C202.539 81.9454 203.254 82.1381 203.341 82.9504C203.398 83.5057 203.095 84.1405 202.709 84.5145C202.319 84.8923 201.865 85.0585 201.426 85.1794C200.284 85.4892 198.925 85.6744 197.889 85.2814C197.518 85.1416 197.181 84.8545 197.022 84.3936C196.931 84.1254 196.905 83.7967 196.999 83.4793C197.011 83.4415 197.022 83.4037 197.037 83.3697H197.033Z" fill="white"/>
<path d="M147.772 81.8887C147.083 80.0941 146.406 77.8122 147.306 75.9647C150.53 69.3644 163.062 71.8655 168.307 73.7658C168.42 73.8074 168.541 73.8527 168.609 73.951C168.681 74.0492 168.685 74.1777 168.685 74.2986L168.715 75.874C168.95 75.4433 169.116 74.9748 169.207 74.4912C169.256 75.0579 169.271 75.636 169.218 76.2027C169.094 76.6712 168.931 77.1359 168.757 77.5779C168.481 77.8499 168.068 77.9104 167.648 77.8424C166.032 77.5779 164.439 77.1623 162.828 76.8639C157.829 75.942 149.028 74.257 147.995 81.3862C147.965 81.5902 147.927 81.7565 147.768 81.8887H147.772Z" fill="#5C2C17"/>
<path d="M165.649 92.2982C168.639 91.9649 170.768 89.047 170.402 85.7809C170.037 82.5149 167.317 80.1374 164.326 80.4708C161.336 80.8042 159.207 83.7221 159.572 86.9881C159.938 90.2542 162.658 92.6316 165.649 92.2982Z" fill="black"/>
<path d="M165.581 91.6862C168.264 91.3871 170.173 88.7693 169.846 85.8391C169.518 82.909 167.077 80.7762 164.394 81.0753C161.711 81.3744 159.801 83.9922 160.129 86.9223C160.456 89.8524 162.897 91.9853 165.581 91.6862Z" fill="#0084C9"/>
<path d="M162.926 92.1575C164.663 92.184 166.18 91.7042 167.849 91.4133C167.565 91.8175 166.986 92.0064 166.536 92.1651C164.591 92.8527 162.688 93.0341 160.641 92.7507C159.676 92.4862 158.707 92.2255 157.761 91.9006C156.039 91.0619 154.314 90.0796 153.145 88.5759C155.858 90.805 159.396 92.1009 162.926 92.1575Z" fill="black"/>
<path d="M148.952 86.5018C149.894 86.1882 150.791 85.7877 151.65 85.3192C151.65 85.3494 151.654 85.3797 151.658 85.4099C151.503 85.5459 151.344 85.6781 151.181 85.8066C151.014 85.9388 150.848 86.0786 150.678 86.2146C151.204 85.9577 151.718 85.6781 152.203 85.3457C152.819 84.9225 153.413 84.4578 154 83.9893C154.503 83.5851 155.003 83.1506 155.536 82.7841C155.937 82.4894 156.38 82.259 156.853 82.1645C158.544 81.8169 160.145 81.6923 161.885 81.6016C163.55 81.5147 165.227 81.5487 166.888 81.7867C167.523 81.8774 168.155 81.9983 168.783 82.1456C168.526 82.0852 168.034 81.3938 167.815 81.2011C165.787 79.4368 162.899 78.6623 160.251 78.7718C158.488 78.8474 156.755 79.2516 155.063 79.7503C154.484 79.9203 153.709 80.0337 153.186 80.3359C153.024 80.4304 152.327 81.2993 152.248 81.2691C152.301 81.2918 152.362 81.288 152.422 81.2502C152.782 81.0349 153.152 80.8384 153.535 80.6571C152.498 81.7074 151.726 83.2111 151.643 84.7185C150.75 85.2965 149.823 85.8179 148.873 86.294C148.763 86.3506 148.827 86.5395 148.949 86.5018H148.952ZM153.236 82.9088C153.043 83.109 152.437 83.5851 152.407 83.8647C152.49 83.1279 152.887 82.5083 153.319 81.919C153.637 81.4845 154.261 80.5475 154.829 80.3888C156.433 79.9392 158.083 79.6257 159.759 79.4594C160.342 79.4028 160.928 79.3612 161.515 79.3385C162.616 79.4179 163.705 79.6181 164.765 79.943C161.995 79.7466 159.222 79.8939 156.758 80.4342C155.271 80.7591 154.204 81.8812 153.236 82.905V82.9088Z" fill="black"/>
<path d="M164.466 86.9815C164.648 86.7851 164.829 86.5886 165.007 86.3884C164.856 85.8065 164.701 85.2247 164.553 84.6391C164.405 84.0724 164.254 83.5095 164.099 82.9465C164.091 82.9163 164.137 82.9088 164.144 82.939C164.451 84.0611 164.769 85.1794 165.083 86.3015C165.556 85.7839 166.029 85.2663 166.505 84.7525C166.891 84.3331 167.266 83.8948 167.678 83.5019C167.697 83.483 167.728 83.5132 167.709 83.5359C167.395 83.9402 167.043 84.3104 166.706 84.6882C166.369 85.066 166.036 85.4401 165.699 85.8141C165.51 86.0257 165.317 86.241 165.128 86.4526C165.359 87.2687 165.59 88.0885 165.821 88.9046L166.286 90.5745C166.32 90.6991 166.161 90.7483 166.127 90.6236C165.768 89.2635 165.404 87.9034 165.049 86.5433C164.591 87.0571 164.129 87.5709 163.671 88.0847C163.289 88.5116 162.907 88.9348 162.532 89.3693C162.438 89.4788 162.294 89.3277 162.392 89.2219C163.092 88.4852 163.777 87.7258 164.466 86.9777V86.9815Z" fill="#006495"/>
<path d="M163.732 85.5648C163.142 85.2965 162.555 85.0283 161.965 84.7638C161.893 84.7298 161.935 84.6089 162.01 84.6429C162.601 84.9074 163.191 85.1681 163.781 85.4325C163.861 85.4665 163.811 85.6026 163.732 85.5686V85.5648Z" fill="#006495"/>
<path d="M165.756 87.3518C166.248 88.1679 166.736 88.9839 167.228 89.8C167.255 89.8415 167.198 89.8907 167.171 89.8491C166.664 89.0481 166.15 88.251 165.643 87.45C165.59 87.3669 165.703 87.2687 165.752 87.3556L165.756 87.3518Z" fill="#006495"/>
<path d="M166.15 86.9816C167.012 87.5823 167.894 88.1679 168.795 88.7044C168.836 88.7308 168.81 88.8064 168.768 88.7799C167.856 88.2434 166.956 87.6918 166.07 87.0987C165.995 87.0496 166.078 86.9287 166.15 86.9816Z" fill="#006495"/>
<path d="M168.526 86.9627C167.773 86.8153 167.02 86.668 166.271 86.5168C166.207 86.5055 166.218 86.3922 166.282 86.4035C167.035 86.5622 167.784 86.7171 168.537 86.8758C168.587 86.8871 168.579 86.9664 168.53 86.9589L168.526 86.9627Z" fill="#006495"/>
<path d="M168.333 86.0861L166.698 86.3166C166.638 86.3241 166.619 86.2183 166.683 86.2108C167.232 86.1466 167.777 86.0823 168.325 86.0219C168.363 86.0181 168.375 86.0823 168.337 86.0861H168.333Z" fill="#006495"/>
<path d="M168.39 84.7789C167.637 85.1643 166.899 85.5874 166.18 86.0446C166.1 86.0975 166.036 85.9464 166.119 85.8972C166.85 85.4628 167.595 85.0585 168.356 84.6883C168.409 84.6618 168.443 84.7525 168.393 84.7789H168.39Z" fill="#006495"/>
<path d="M166.032 84.6883C166.002 84.7449 165.919 84.6807 165.953 84.624C166.116 84.352 166.278 84.0762 166.441 83.8042C166.464 83.7664 166.517 83.808 166.494 83.8495C166.339 84.1291 166.184 84.4087 166.029 84.692L166.032 84.6883Z" fill="#006495"/>
<path d="M165.488 84.7109L165.866 82.6934C165.873 82.6481 165.942 82.6556 165.934 82.701L165.586 84.7222C165.575 84.7903 165.476 84.7751 165.491 84.7109H165.488Z" fill="#006495"/>
<path d="M165.204 84.9489C165.283 83.9931 165.366 83.0372 165.438 82.0776C165.442 82.0247 165.518 82.036 165.514 82.0889C165.442 83.0486 165.378 84.0044 165.313 84.9641C165.31 85.0396 165.196 85.0283 165.204 84.9489Z" fill="#006495"/>
<path d="M164.087 84.8054C163.395 84.2273 162.699 83.6568 161.999 83.0939C161.935 83.041 162.01 82.9314 162.075 82.9843C162.756 83.5737 163.448 84.1555 164.137 84.7336C164.178 84.7676 164.129 84.8394 164.087 84.8054Z" fill="#006495"/>
<path d="M163.804 85.1303C163.259 84.8205 162.714 84.5031 162.188 84.1556C162.139 84.1216 162.188 84.0271 162.237 84.0573C162.771 84.3898 163.304 84.7298 163.838 85.0623C163.872 85.085 163.838 85.1492 163.804 85.1303Z" fill="#006495"/>
<path d="M160.973 86.0824C161.541 86.1806 162.109 86.2751 162.68 86.362C162.729 86.3695 162.722 86.4526 162.672 86.4451C162.105 86.3582 161.533 86.2751 160.966 86.1995C160.894 86.1919 160.909 86.0673 160.977 86.0824H160.973Z" fill="#006495"/>
<path d="M161.764 87.6125C162.29 87.4047 162.824 87.212 163.361 87.042C163.41 87.0269 163.444 87.1062 163.395 87.1251C162.862 87.3065 162.332 87.5105 161.813 87.7296C161.745 87.7598 161.7 87.6427 161.768 87.6163L161.764 87.6125Z" fill="#006495"/>
<path d="M164.788 88.6288C164.716 89.0217 164.64 89.4109 164.568 89.8038C164.553 89.8831 164.436 89.868 164.451 89.7887C164.526 89.3995 164.606 89.0066 164.682 88.6175C164.697 88.5457 164.803 88.557 164.788 88.6326V88.6288Z" fill="#006495"/>
<path d="M165.109 88.2926L165.162 89.5053C165.162 89.5469 165.102 89.5582 165.102 89.5167L165.049 88.3039C165.049 88.2623 165.109 88.251 165.109 88.2926Z" fill="#006495"/>
<path d="M164.871 87.1856C164.912 87.1138 165.007 87.1931 164.969 87.2649C164.413 88.2737 163.917 89.3164 163.512 90.4083C163.501 90.4385 163.456 90.4196 163.467 90.3894C163.842 89.2749 164.299 88.1943 164.871 87.1856Z" fill="#006495"/>
<path d="M164.356 87.484C164.402 87.4047 164.508 87.4954 164.462 87.5709C164.103 88.1943 163.728 88.8026 163.365 89.4222C163.327 89.4826 163.244 89.4146 163.282 89.3542C163.641 88.7346 163.993 88.1036 164.356 87.484Z" fill="#006495"/>
<path d="M166.566 86.8833C167.073 87.1402 167.591 87.3631 168.11 87.5785C168.166 87.6011 168.132 87.6918 168.076 87.6729C167.542 87.4954 167.024 87.2687 166.513 87.0193C166.433 86.9815 166.483 86.8418 166.562 86.8833H166.566Z" fill="#006495"/>
<path d="M160.943 85.255C161.56 85.3834 162.169 85.5421 162.778 85.7046C163.384 85.867 163.989 86.0333 164.587 86.2222C164.689 86.2562 164.629 86.4186 164.526 86.3884C163.929 86.2108 163.331 86.0257 162.729 85.8595C162.131 85.6932 161.53 85.5421 160.932 85.3834C160.86 85.3646 160.868 85.2399 160.943 85.255Z" fill="#006495"/>
<path d="M164.871 84.4313C164.837 83.6833 164.799 82.9352 164.757 82.1909C164.754 82.1116 164.863 82.0927 164.867 82.172C164.909 82.9163 164.958 83.6644 165.007 84.4087C165.015 84.5069 164.875 84.5258 164.871 84.4313Z" fill="#006495"/>
<path d="M162.551 86.0597C162.411 87.5218 163.388 88.8555 164.731 89.0368C166.074 89.2182 167.277 88.183 167.417 86.7209C167.557 85.2588 166.581 83.9251 165.238 83.7438C163.895 83.5624 162.691 84.5976 162.551 86.0597Z" fill="black"/>
<path d="M158.049 86.0521C158.23 85.5572 158.65 85.2965 159.017 85.1416C160.054 84.7109 161.106 84.5485 162.097 84.6845C162.536 84.7449 163.119 84.9112 163.183 85.6328C163.229 86.1239 162.979 86.6906 162.661 87.0307C162.343 87.3669 161.972 87.5218 161.613 87.6314C160.682 87.9147 159.573 88.0885 158.73 87.7485C158.427 87.6238 158.155 87.3707 158.03 86.9627C157.958 86.7246 157.939 86.4299 158.015 86.1504C158.026 86.1164 158.033 86.0824 158.045 86.0521H158.049Z" fill="white"/>
<path d="M160.527 93.9408C162.638 94.5264 164.901 94.4357 166.971 93.7141C167.546 93.5139 168.102 93.2645 168.636 92.9698C168.655 92.9585 168.677 92.9925 168.655 93.0038C166.751 94.1221 164.515 94.6057 162.317 94.4093C161.692 94.3526 161.076 94.243 160.47 94.073C160.379 94.0466 160.436 93.9143 160.527 93.9408Z" fill="black"/>
<path d="M194.593 90.7785C195.758 91.5681 197.056 92.1651 198.407 92.5618C199.758 92.9585 201.177 93.1587 202.584 93.1436C202.694 93.1436 202.807 93.1436 202.917 93.136C203.504 93.17 204.094 93.1663 204.677 93.1172C204.76 93.1134 204.839 93.1058 204.923 93.0983C203.538 93.3476 202.115 93.3741 200.719 93.1927C199.311 93.0114 197.919 92.5996 196.632 92.0026C195.91 91.6664 195.217 91.2697 194.562 90.8163C194.536 90.7974 194.566 90.7596 194.593 90.7785Z" fill="#69280E"/>
<path d="M172.314 149.399C172.605 149.569 172.983 149.769 173.437 149.97C173.774 150.117 174.24 150.321 174.875 150.487C175.636 150.687 176.34 150.763 176.99 150.831C177.017 150.831 176.998 150.831 177.096 150.842C178.095 150.944 178.901 151.039 179.416 151.099C179.874 151.156 179.855 151.156 179.995 151.171C181.342 151.322 182.469 151.235 183.256 151.171C183.847 151.122 184.751 151.046 185.92 150.797C187.025 150.559 187.952 150.257 188.679 149.977C188.679 149.977 189.825 149.645 191.547 148.307C191.547 148.307 191.554 148.303 191.554 148.3C191.554 148.292 191.52 148.288 191.509 148.288C190.919 148.266 189.659 148.772 189.659 148.772C189.454 148.855 189.121 148.934 188.459 149.097C188.172 149.169 187.509 149.324 186.458 149.467C185.3 149.63 184.392 149.679 183.525 149.724C181.028 149.852 179.783 149.905 179.219 149.909C177.55 149.92 175.208 149.83 172.314 149.395V149.399Z" fill="#543E36"/>
<path d="M164.965 143.384C165.261 143.513 165.692 143.694 166.218 143.879C166.96 144.144 168.711 144.714 171.527 144.952C173.933 145.156 178.322 145.224 183.938 144.813C188.925 143.785 192.773 142.901 194.699 142.395C195.183 142.266 196.068 142.032 197.219 141.658C198.611 141.208 199.64 140.804 200 140.66C200.787 140.347 201.396 140.075 202.024 139.795C202.319 139.663 202.792 139.444 203.731 139.006C204.548 138.624 205.036 138.397 205.592 138.084C205.835 137.952 206.255 137.706 206.731 137.309C206.826 137.23 206.902 137.162 206.955 137.117C206.591 137.283 206.092 137.502 205.494 137.732C205.233 137.834 204.745 138.027 203.833 138.318C202.709 138.677 202.111 138.87 201.249 139.1C200.174 139.387 199.72 139.455 197.923 139.825C196.731 140.071 197.151 139.999 194.513 140.562C189.995 141.533 187.805 141.953 186.885 142.13C185.148 142.459 184.585 142.549 184.289 142.591C182.246 142.889 180.581 143.007 179.802 143.052C178.402 143.135 178.197 143.09 176.472 143.199C176.158 143.218 175.269 143.279 174.281 143.343C174.221 143.347 173.77 143.377 173.093 143.426C171.504 143.536 171.53 143.536 171.504 143.536C171.095 143.558 169.922 143.619 168.488 143.536C167.406 143.471 166.967 143.362 164.965 143.388V143.384Z" fill="#7A5346"/>
<g opacity="0.4">
<path d="M206.864 137.249C206.735 136.391 206.977 135.341 206.92 134.502C206.917 134.275 206.55 134.143 206.368 134.17C206.319 134.17 206.277 134.181 206.251 134.26C206.232 134.332 206.232 134.43 206.239 134.529L206.205 134.544C206.164 134.457 206.13 134.362 206.13 134.26C206.122 133.898 206.606 133.894 206.852 133.988C207.284 134.109 207.337 134.612 207.306 134.986C207.276 135.662 207.083 136.603 206.962 137.271L206.864 137.249Z" fill="#B56F4F"/>
</g>
<path d="M250.59 51.4488C250.363 55.6311 249.659 59.7719 249.254 63.9315C249.034 66.3382 248.713 69.7347 248.577 72.1035C248.512 74.1286 248.361 76.2745 248.02 78.2391C247.771 80.2717 248.035 82.1985 247.937 84.3634C246.011 82.0965 244.91 79.0287 245.099 76.0592C245.107 75.7002 245.107 74.9068 245.099 74.563C245.145 69.3909 246.041 64.2527 247.763 59.3714C248.645 56.7457 249.477 54.0519 250.593 51.4526L250.59 51.4488Z" fill="#382214"/>
<path opacity="0.3" d="M173.218 15.6629C177.206 13.9817 182.727 11.8244 189.855 11.5108C192.186 11.4088 195.138 11.2879 199.058 11.6355C199.058 11.6355 200.477 11.7602 202.811 12.2173C203.103 12.274 207.295 12.3684 211.597 14.1215C212.101 14.3255 213.338 15.3267 213.349 15.8027C213.364 16.4639 211.858 17.0003 211.291 17.1968C208.491 18.1678 207.06 17.4235 202.86 17.6086C199.75 17.7446 198.116 18.2584 197.188 18.6098C195.955 19.0783 195.244 19.5392 194.737 19.8074C188.463 23.1473 176.937 16.8228 172.336 17.1137C172.136 17.125 170.921 16.6301 173.214 15.6629H173.218Z" fill="#BA9797"/>
<path d="M148.873 26.6458C159.127 25.4255 169.313 30.2387 176.298 37.5682C177.278 38.6374 178.235 39.7217 179.072 40.8967L179.015 40.9458C177.119 38.7923 175.019 36.8201 172.749 35.0671C165.62 29.4755 157.795 26.676 148.873 26.642V26.6458Z" fill="black"/>
<g opacity="0.3">
<path d="M135.694 26.6382C144.185 20.7671 155.445 20.2684 165.049 23.4873C166.415 23.9747 167.769 24.4885 169.06 25.1345L169.033 25.2063C166.35 24.19 163.569 23.4231 160.743 22.9357C151.824 21.3225 143.594 22.505 135.694 26.642V26.6382Z" fill="black"/>
</g>
<path d="M185.285 35.1918C186.265 30.9868 189.25 26.5853 193.004 24.3298C197.079 21.9647 202.16 22.2179 206.587 23.2984C209.493 24.0691 212.214 25.4179 214.458 27.322L214.371 27.4883C211.824 26.2189 209.107 25.2819 206.315 24.7756C202.213 24.156 197.616 23.9331 193.847 25.909C192.599 26.5664 191.479 27.4467 190.48 28.4479C188.463 30.4503 186.719 32.7247 185.451 35.2787L185.281 35.1956L185.285 35.1918Z" fill="black"/>
<path d="M238.758 163.68C238.746 164.5 237.482 169.14 237.475 169.963L238.758 163.68Z" fill="#F3CBAC"/>
<path d="M238.814 163.684C239.855 165.777 239.064 168.335 237.532 169.967H237.418C237.441 169.415 237.558 168.894 237.668 168.369C237.831 167.587 238.19 166.019 238.387 165.241C238.478 164.791 238.659 164.13 238.705 163.684H238.818H238.814Z" fill="black"/>
<path opacity="0.4" d="M236.079 161.002C237.04 161.908 237.933 162.804 238.758 163.68C238.322 165.622 237.891 167.564 237.456 169.502C236.707 169.782 235.643 170.16 234.349 170.571C233.691 170.779 233.218 170.919 232.579 171.108C230.013 171.86 227.932 172.389 226.801 172.664C225.983 172.865 225.991 172.853 224.871 173.122C219.918 174.308 218.544 174.792 215.305 175.46C214.651 175.596 213.622 175.8 212.331 176.016C212.46 175.842 212.653 175.581 212.899 175.279C214.454 173.356 215.983 172.226 216.565 171.788C218.196 170.56 216.743 171.467 224.61 164.772C226.574 163.102 227.153 162.626 228.269 161.591C229.998 159.981 231.337 158.576 232.204 157.632C233.453 158.633 234.754 159.751 236.079 161.002Z" fill="#B56F4F"/>
<path opacity="0.4" d="M191.778 162.256C190.502 161.991 188.747 161.697 186.605 161.549C185.073 161.444 182.848 161.289 180.207 161.621C177.123 162.01 175.265 162.834 175.087 162.69C174.936 162.569 176.169 161.897 177.592 161.402C180.354 160.442 183.173 160.374 184.202 160.374C185.682 160.374 188.092 160.374 190.173 161.277C190.964 161.621 191.475 161.991 191.778 162.252V162.256Z" fill="#B56F4F"/>
<path d="M84.5705 332.526C86.5759 337.305 86.4662 342.682 85.9478 347.748C85.244 352.754 84.4797 358.225 81.0969 362.214L81.0023 362.15C83.6699 357.809 84.177 352.569 84.824 347.62C85.1116 345.111 85.3121 342.587 85.3007 340.06C85.297 337.536 85.0813 335.001 84.4645 332.553L84.5743 332.522L84.5705 332.526Z" fill="black"/>
<path opacity="0.3" d="M289.347 223.427C291.016 221.949 292.567 221.266 294.21 220.536C301.308 217.393 299.836 217.96 303.31 216.509C305.762 215.489 306.942 215.017 308.221 214.541C312.402 212.973 313.689 212.769 314.392 212.682C315.274 212.572 316.53 212.587 319.039 212.614C320.575 212.633 321.771 212.682 323.644 212.761C325.585 212.844 326.732 212.92 327.432 212.969C327.988 213.007 328.586 213.056 329.342 213.12C333.849 213.494 336.236 213.713 339.245 214.306C340.864 214.624 342.363 214.998 343.063 215.172C344.281 215.478 345.117 215.685 346.124 215.999C348.682 216.792 350.562 217.707 351.152 218.001C352.492 218.666 354.142 219.607 355.916 220.914C355.413 220.85 354.588 220.74 353.578 220.582C350.414 220.087 348.087 219.539 347.524 219.407C344.194 218.64 336.399 217.223 332.43 216.891C327.704 216.494 323.016 217.812 313.643 220.461C306.306 222.535 298.803 223.997 291.47 226.083C290.456 226.37 287.614 227.186 287.202 226.434C286.793 225.686 288.961 223.767 289.344 223.427H289.347Z" fill="white"/>
<path opacity="0.3" d="M257.854 182.28C258.089 182.351 258.403 182.446 258.782 182.548C259.693 182.793 260.375 182.926 260.492 182.948C260.946 183.039 268.729 184.713 277.765 188.993C279.861 189.987 282.045 191.192 286.411 193.599C287.724 194.324 289.9 195.526 292.632 197.12C295.307 198.68 298.788 200.777 302.829 203.388C306.575 205.039 308.44 207.989 307.839 210.048C307.203 212.225 303.964 212.871 303.783 212.905C299.681 213.668 296.022 210.43 293.131 208.027C287.259 203.15 280.478 199.459 274.45 194.766C270.674 191.827 265.013 187.49 257.858 182.28H257.854Z" fill="white"/>
<path d="M299.337 217.231C301.248 216.452 303.245 215.685 305.33 214.937C308.543 213.785 309.576 213.335 310.987 213.037C313.541 212.493 315.149 212.417 316.069 212.353" stroke="black" stroke-miterlimit="10"/>
</g>
<defs>
<clipPath id="clip0_47_151">
<rect width="389" height="359" fill="white"/>
</clipPath>
</defs>
</svg>
