<svg width="20" height="20" viewBox="0 0 20 20" fill="none" xmlns="http://www.w3.org/2000/svg">
<g clip-path="url(#clip0_120_1908)">
<path d="M0.640416 20C0.474267 20 0.311379 19.9348 0.191038 19.8135C0.0332737 19.6558 -0.0303909 19.4267 0.0239569 19.2106L1.2179 14.4184C1.24585 14.3064 1.30361 14.2038 1.38498 14.1224L14.8255 0.681871C15.7345 -0.22729 17.2143 -0.22729 18.1235 0.681871L19.3225 1.88094C20.2317 2.7901 20.2317 4.26991 19.3225 5.17892L5.88218 18.6194C5.80066 18.7008 5.69802 18.7593 5.58622 18.7865L0.793987 19.9805C0.743056 19.9941 0.692124 20 0.640416 20ZM2.40858 14.8966L1.51309 18.4906L5.10703 17.5951L18.4236 4.27923C18.8367 3.86618 18.8367 3.19289 18.4236 2.77985L17.2246 1.58078C16.8107 1.16696 16.1373 1.16774 15.7252 1.58078L2.40858 14.8966Z" fill="#0057FF"/>
<path d="M16.8054 7.43387C16.6425 7.43387 16.4796 7.37191 16.3559 7.24738L12.7577 3.65002C12.5091 3.40142 12.5091 2.99863 12.7577 2.75018C13.0062 2.50173 13.409 2.50173 13.6574 2.75018L17.2557 6.34847C17.5042 6.59691 17.5042 6.99971 17.2557 7.24816C17.1301 7.37191 16.9674 7.43387 16.8054 7.43387Z" fill="#0057FF"/>
<path d="M5.43322 18.806C5.27033 18.806 5.1076 18.7441 4.98384 18.6194L1.38555 15.0212C1.13711 14.7726 1.13711 14.3698 1.38555 14.1214C1.634 13.8729 2.0368 13.8729 2.2854 14.1214L5.88353 17.7197C6.13198 17.9681 6.13198 18.3709 5.88353 18.6194C5.75884 18.7441 5.59611 18.806 5.43322 18.806Z" fill="#0057FF"/>
</g>
<defs>
<clipPath id="clip0_120_1908">
<rect width="20" height="20" fill="white"/>
</clipPath>
</defs>
</svg>
