<svg width="19" height="22" viewBox="0 0 19 22" fill="none" xmlns="http://www.w3.org/2000/svg">
<path d="M9.5 13.7778V16M4.1875 8.80978C4.68838 8.77778 5.30588 8.77778 6.1 8.77778H12.9C13.6941 8.77778 14.3116 8.77778 14.8125 8.80978M4.1875 8.80978C3.56241 8.84967 3.11893 8.93944 2.74041 9.14111C2.14064 9.46067 1.65301 9.97056 1.34742 10.5978C1 11.3109 1 12.2442 1 14.1111V15.6667C1 17.5336 1 18.4669 1.34742 19.18C1.65301 19.8072 2.14064 20.3171 2.74041 20.6367C3.42225 21 4.31483 21 6.1 21H12.9C14.6852 21 15.5777 21 16.2596 20.6367C16.8594 20.3171 17.347 19.8072 17.6526 19.18C18 18.4669 18 17.5336 18 15.6667V14.1111C18 12.2442 18 11.3109 17.6526 10.5978C17.347 9.97056 16.8594 9.46067 16.2596 9.14111C15.8811 8.93944 15.4376 8.84967 14.8125 8.80978M4.1875 8.80978V6.55556C4.1875 3.48731 6.56599 1 9.5 1C12.434 1 14.8125 3.48731 14.8125 6.55556V8.80978" stroke="black" stroke-width="2" stroke-linecap="round" stroke-linejoin="round"/>
</svg>
