<svg width="70" height="43" viewBox="0 0 70 43" fill="none" xmlns="http://www.w3.org/2000/svg">
<g clip-path="url(#clip0_110_171)">
<path d="M14.1058 16.6494C12.8871 16.6494 11.8967 17.6133 11.8967 18.8063V41.8761C11.8967 42.8996 13.183 43.3894 13.8904 42.6359L20.6656 37.2797C21.0836 36.8371 21.6721 36.5828 22.2895 36.5828H36.2676C37.4863 36.5828 38.4767 35.6189 38.4767 34.4258V18.8063C38.4767 17.6164 37.4895 16.6494 36.2676 16.6494H14.1058Z" fill="#0057FF"/>
<path d="M57.1697 3.47555C58.3884 3.47555 59.3788 4.43941 59.3788 5.63246V28.7023C59.3788 29.7258 58.0926 30.2155 57.3852 29.462L50.6099 24.1059C50.1919 23.6632 49.6035 23.4089 48.9861 23.4089H35.0079C33.7892 23.4089 32.7988 22.4419 32.7988 21.252V5.62932C32.7988 4.43941 33.7892 3.47241 35.0079 3.47241H57.1729L57.1697 3.47555Z" fill="#FF5A2A"/>
<path d="M2.59418 36.7458C-4.23893 27.4558 4.5782 21.8892 4.6618 21.8296L5.71973 23.2644C5.43033 23.4685 -1.45745 28.2061 4.0637 35.7129L5.09269 34.9908L4.9705 38.683L1.60057 37.4397L2.59097 36.7458H2.59418Z" fill="#0057FF"/>
<path d="M66.3976 1.60748C74.4527 9.90859 66.4909 16.5897 66.4137 16.6619L65.1661 15.3778C65.4265 15.136 71.594 9.53497 65.0825 2.8225L64.1628 3.67333L63.7705 0L67.2819 0.78804L66.3944 1.60748H66.3976Z" fill="#0057FF"/>
<path d="M22.2969 31H21.2813L24.2188 23H25.2188L28.1563 31H27.1406L24.75 24.2656H24.6875L22.2969 31ZM22.6719 27.875H26.7656V28.7344H22.6719V27.875Z" fill="#F6F2E9"/>
<path d="M39.9688 18V10H42.6719C43.2969 10 43.8099 10.1068 44.2109 10.3203C44.612 10.5312 44.9089 10.8216 45.1016 11.1914C45.2943 11.5612 45.3906 11.9818 45.3906 12.4531C45.3906 12.9245 45.2943 13.3424 45.1016 13.707C44.9089 14.0716 44.6133 14.3581 44.2148 14.5664C43.8164 14.7721 43.3073 14.875 42.6875 14.875H40.5V14H42.6563C43.0833 14 43.4271 13.9375 43.6875 13.8125C43.9505 13.6875 44.1406 13.5104 44.2578 13.2812C44.3776 13.0495 44.4375 12.7734 44.4375 12.4531C44.4375 12.1328 44.3776 11.8529 44.2578 11.6133C44.138 11.3737 43.9466 11.1888 43.6836 11.0586C43.4206 10.9258 43.0729 10.8594 42.6406 10.8594H40.9375V18H39.9688ZM43.7344 14.4062L45.7031 18H44.5781L42.6406 14.4062H43.7344ZM52.2549 10H53.2236V15.2969C53.2236 15.8437 53.0947 16.332 52.8369 16.7617C52.5817 17.1888 52.221 17.526 51.7549 17.7734C51.2887 18.0182 50.7419 18.1406 50.1143 18.1406C49.4867 18.1406 48.9398 18.0182 48.4736 17.7734C48.0075 17.526 47.6455 17.1888 47.3877 16.7617C47.1325 16.332 47.0049 15.8437 47.0049 15.2969V10H47.9736V15.2188C47.9736 15.6094 48.0596 15.957 48.2314 16.2617C48.4033 16.5638 48.6481 16.8021 48.9658 16.9766C49.2861 17.1484 49.6689 17.2344 50.1143 17.2344C50.5596 17.2344 50.9424 17.1484 51.2627 16.9766C51.583 16.8021 51.8278 16.5638 51.9971 16.2617C52.1689 15.957 52.2549 15.6094 52.2549 15.2188V10Z" fill="#F6F2E9"/>
</g>
<defs>
<clipPath id="clip0_110_171">
<rect width="70" height="43" fill="white"/>
</clipPath>
</defs>
</svg>
