<svg width="76" height="78" viewBox="0 0 76 78" fill="none" xmlns="http://www.w3.org/2000/svg">
<path d="M39.6321 34.7986C41.0377 55.2225 64.1447 58.5352 65.4315 49.9939C65.8603 47.1473 62.9622 44.8917 60.3756 46.1619C60.1721 46.2622 59.9778 46.3811 59.7969 46.5189C56.2002 49.427 58.6643 54.9666 62.5725 56.2733C62.6735 56.309 62.7766 56.3436 62.8807 56.3776C71.224 59.1042 79.7176 52.5359 79.3413 43.7699C79.1244 38.7282 78.704 33.4647 84.4221 27.3405" stroke="#F44545" stroke-miterlimit="10" stroke-linecap="round"/>
<path d="M20.4798 6.31624C7.3795 12.6676 12.7658 32.6508 12.7658 32.6508L15.4701 31.1447C15.4701 31.1447 11.215 8.08803 26.9314 6.38898C26.9314 6.38898 22.4662 5.35294 20.4798 6.31624Z" fill="#0057FF"/>
<path d="M37.3604 22.9607C37.3604 22.9607 36.7578 3.38603 20.4797 6.31616C20.4797 6.31616 37.5533 -2.09725 41.2341 23.8748L37.3604 22.9607Z" fill="#0946BC"/>
<path d="M43.2277 25.8183C43.1748 23.7616 42.7972 21.7172 41.5145 21.621C38.9016 21.4248 37.3553 22.3544 37.3553 22.3544C36.0156 23.0932 35.1012 24.5737 34.8441 26.1072C34.0688 30.7352 36.6134 33.5611 37.6932 34.4872C37.8162 34.5994 37.9485 34.7022 38.0901 34.7932C38.0965 34.7975 38.104 34.8013 38.1104 34.8056C38.3784 34.9843 38.6685 35.1293 38.9712 35.2379C41.2892 36.1317 43.5468 34.9743 43.5468 34.9743L43.3703 33.4391C44.4996 31.2836 44.104 27.9496 43.2273 25.8199L43.2277 25.8183Z" fill="#0057FF"/>
<path d="M40.3812 21.7264C38.5908 22.2307 37.3446 23.9885 37.0378 25.8216C36.227 30.6643 39.0516 33.535 40.0287 34.319C41.0058 35.1031 42.3714 35.4095 43.5471 34.9726C47.2022 33.6161 46.5614 27.5907 45.1076 24.8593C44.1637 23.0855 42.6367 21.0895 40.3816 21.7248L40.3812 21.7264Z" fill="#0946BC"/>
<path d="M41.4434 24.5609C41.4434 24.5609 41.4898 24.5466 41.5702 24.5317C42.0151 24.4502 42.8747 24.9296 43.7351 26.5929C44.7855 28.626 44.5885 31.4014 42.894 31.7535C41.7135 31.9984 41.5765 26.5975 41.5765 26.5975" fill="#0057FF"/>
<path d="M43.1527 31.6168C43.0753 31.6724 42.9907 31.7175 42.8932 31.754C42.5961 31.8646 42.1723 31.7673 41.8615 31.5174C41.4758 31.2078 39.578 29.5045 40.1029 26.3745C40.2126 25.7178 40.5693 25.0992 41.0346 24.7624C41.4141 24.4873 41.7737 24.4593 42.0999 24.727C42.3344 24.9192 42.7083 25.3256 43.1561 26.1685C44.0305 27.812 44.1922 30.8632 43.1533 31.6178L43.1527 31.6168Z" fill="white"/>
<path d="M18.9375 29.8437C18.9375 29.8437 14.922 28.4691 13.2135 31.1051C11.5051 33.7412 11.743 39.7157 13.5148 41.6119C15.2867 43.5081 18.7048 42.9848 20.1631 42.1672C21.6209 41.3485 18.9375 29.8437 18.9375 29.8437Z" fill="#0057FF"/>
<path d="M15.4413 36.3317C15.4413 36.3317 15.9078 41.6605 19.0073 42.1994C22.1067 42.7383 22.4389 37.3085 22.236 35.4067C22.0331 33.5048 20.4201 28.6905 17.433 30.0012C15.0286 31.056 15.4403 36.3323 15.4403 36.3323L15.4413 36.3317Z" fill="#0946BC"/>
</svg>
