<svg width="48" height="38" viewBox="0 0 48 38" fill="none" xmlns="http://www.w3.org/2000/svg">
<path d="M43.9855 0H4.01215C1.79783 0 0 1.80365 0 4.02513V23.6424C0 25.8662 1.79783 27.6676 4.01215 27.6676H24.0451C24.7508 27.6676 25.1465 28.4823 24.7138 29.0395L19.4198 35.8548C18.8622 36.5744 19.6697 37.5493 20.4772 37.1315L38.555 27.7604C38.6753 27.6977 38.8095 27.6652 38.9437 27.6652H43.9879C46.2045 27.6652 48 25.8616 48 23.6401V4.02513C48 1.80133 46.2022 0 43.9879 0H43.9855Z" fill="#0057FF"/>
<path d="M38.7561 18.5751C38.9805 18.5751 39.1633 18.3917 39.1633 18.1665V10.9032C39.1633 10.678 38.9805 10.4946 38.7561 10.4946C38.5317 10.4946 38.3489 10.678 38.3489 10.9032V18.1665C38.3489 18.3917 38.5317 18.5751 38.7561 18.5751Z" fill="white"/>
<path d="M36.4959 17.0454C36.7203 17.0454 36.9031 16.862 36.9031 16.6368V12.433C36.9031 12.2078 36.7203 12.0244 36.4959 12.0244C36.2714 12.0244 36.0886 12.2078 36.0886 12.433V16.6368C36.0886 16.862 36.2714 17.0454 36.4959 17.0454Z" fill="white"/>
<path d="M34.2376 17.5489C34.462 17.5489 34.6448 17.3655 34.6448 17.1404V11.9291C34.6448 11.7039 34.462 11.5205 34.2376 11.5205C34.0131 11.5205 33.8303 11.7039 33.8303 11.9291V17.1404C33.8303 17.3655 34.0131 17.5489 34.2376 17.5489Z" fill="white"/>
<path d="M31.9768 19.3898C32.2012 19.3898 32.384 19.2064 32.384 18.9813V10.0907C32.384 9.86551 32.2012 9.68213 31.9768 9.68213C31.7524 9.68213 31.5696 9.86551 31.5696 10.0907V18.9813C31.5696 19.2064 31.7524 19.3898 31.9768 19.3898Z" fill="white"/>
<path d="M29.7163 17.6651C29.9408 17.6651 30.1235 17.4817 30.1235 17.2565V11.8131C30.1235 11.5879 29.9408 11.4045 29.7163 11.4045C29.4919 11.4045 29.3091 11.5879 29.3091 11.8131V17.2565C29.3091 17.4817 29.4919 17.6651 29.7163 17.6651Z" fill="white"/>
<path d="M27.4578 16.3094C27.6822 16.3094 27.865 16.126 27.865 15.9008V13.171C27.865 12.9458 27.6822 12.7625 27.4578 12.7625C27.2333 12.7625 27.0505 12.9458 27.0505 13.171V15.9008C27.0505 16.126 27.2333 16.3094 27.4578 16.3094Z" fill="white"/>
<path d="M41.0169 16.3094C41.2413 16.3094 41.4241 16.126 41.4241 15.9008V13.171C41.4241 12.9458 41.2413 12.7625 41.0169 12.7625C40.7924 12.7625 40.6096 12.9458 40.6096 13.171V15.9008C40.6096 16.126 40.7924 16.3094 41.0169 16.3094Z" fill="white"/>
<path d="M7.11939 16.3094C7.34383 16.3094 7.52662 16.126 7.52662 15.9008V13.171C7.52662 12.9458 7.34383 12.7625 7.11939 12.7625C6.89495 12.7625 6.71216 12.9458 6.71216 13.171V15.9008C6.71216 16.126 6.89495 16.3094 7.11939 16.3094Z" fill="white"/>
<path d="M25.1973 18.7121C25.4217 18.7121 25.6045 18.5288 25.6045 18.3036V10.7687C25.6045 10.5435 25.4217 10.3601 25.1973 10.3601C24.9728 10.3601 24.79 10.5435 24.79 10.7687V18.3036C24.79 18.5288 24.9728 18.7121 25.1973 18.7121Z" fill="white"/>
<path d="M22.9368 18.0133C23.1612 18.0133 23.344 17.8299 23.344 17.6048V11.4649C23.344 11.2398 23.1612 11.0564 22.9368 11.0564C22.7123 11.0564 22.5295 11.2398 22.5295 11.4649V17.6048C22.5295 17.8299 22.7123 18.0133 22.9368 18.0133Z" fill="white"/>
<path d="M20.6785 16.9293C20.9029 16.9293 21.0857 16.746 21.0857 16.5208V12.5514C21.0857 12.3262 20.9029 12.1428 20.6785 12.1428C20.454 12.1428 20.2712 12.3262 20.2712 12.5514V16.5208C20.2712 16.746 20.454 16.9293 20.6785 16.9293Z" fill="white"/>
<path d="M18.4177 18.2454C18.6422 18.2454 18.825 18.062 18.825 17.8369V11.2328C18.825 11.0076 18.6422 10.8242 18.4177 10.8242C18.1933 10.8242 18.0105 11.0076 18.0105 11.2328V17.8369C18.0105 18.062 18.1933 18.2454 18.4177 18.2454Z" fill="white"/>
<path d="M16.1575 19.3898C16.3819 19.3898 16.5647 19.2064 16.5647 18.9813V10.0907C16.5647 9.86551 16.3819 9.68213 16.1575 9.68213C15.933 9.68213 15.7502 9.86551 15.7502 10.0907V18.9813C15.7502 19.2064 15.933 19.3898 16.1575 19.3898Z" fill="white"/>
<path d="M13.8992 18.3825C14.1236 18.3825 14.3064 18.1991 14.3064 17.9739V11.0982C14.3064 10.8731 14.1236 10.6897 13.8992 10.6897C13.6747 10.6897 13.4919 10.8731 13.4919 11.0982V17.9739C13.4919 18.1991 13.6747 18.3825 13.8992 18.3825Z" fill="white"/>
<path d="M11.6384 18.7886C11.8629 18.7886 12.0457 18.6052 12.0457 18.38V10.6896C12.0457 10.4644 11.8629 10.281 11.6384 10.281C11.414 10.281 11.2312 10.4644 11.2312 10.6896V18.38C11.2312 18.6052 11.414 18.7886 11.6384 18.7886Z" fill="white"/>
<path d="M9.37793 17.4911C9.60237 17.4911 9.78516 17.3077 9.78516 17.0825V11.9896C9.78516 11.7644 9.60237 11.5811 9.37793 11.5811C9.15349 11.5811 8.9707 11.7644 8.9707 11.9896V17.0825C8.9707 17.3077 9.15349 17.4911 9.37793 17.4911Z" fill="white"/>
</svg>
